<svg width="79" height="79" viewBox="0 0 79 79" fill="none" xmlns="http://www.w3.org/2000/svg">
<path d="M60.4742 64.4052C59.5238 64.0905 58.4741 64.1818 57.5976 64.6617L54.8359 66.1708L55.2168 65.0394C55.5755 63.9741 55.3993 62.7923 54.7415 61.8796C54.0853 60.9669 53.0231 60.4224 51.8996 60.4224C50.4597 60.4224 49.1835 61.2863 48.6485 62.6239L47.0119 66.7169H43.1266L43.0574 66.6823L45.7798 65.2361C47.4195 64.3659 48.2173 62.4477 47.6775 60.6726C47.3675 59.6482 46.6704 58.8173 45.7152 58.3326C44.7585 57.848 43.679 57.7787 42.6671 58.1312L32.3395 61.7537L28.5974 64.2007H20.1659V61.686H0V78.0517H20.1691V75.8061L24.9576 76.7645L41.6946 76.7896L54.4063 74.2467L60.9306 71.0758C62.6883 70.2088 63.4311 68.13 62.6238 66.3439C62.2084 65.4297 61.4247 64.7247 60.4742 64.4068V64.4052ZM17.6513 75.5339H2.51779V64.2038H12.589V73.0161H15.1068V64.2038H17.6513V75.5339ZM50.9884 63.5586C51.256 62.8851 52.2741 62.7624 52.6974 63.3493C52.8831 63.6106 52.9334 63.9316 52.8312 64.2369L51.9971 66.7169H49.7248L50.9884 63.5586ZM59.8164 68.8161L53.7517 71.8091L41.4492 74.2703H25.3306L20.1707 73.238V66.7169H29.3638L33.3261 64.0764L43.5043 60.5058C43.8615 60.3831 44.2423 60.4051 44.5791 60.5782C44.9158 60.7497 45.1613 61.0424 45.2715 61.4043C45.4603 62.0306 45.1802 62.7057 44.6011 63.0126L37.567 66.7515L42.5334 69.2347H54.4835L58.8078 66.8711C59.08 66.7216 59.39 66.6964 59.6795 66.7924C59.9722 66.89 60.2051 67.0993 60.331 67.3794C60.5765 67.9223 60.3515 68.5533 59.818 68.8161H59.8164Z" fill="#5D5C75"/>
<path d="M52.033 3.77669H48.6764L44.0594 7.23865V0H26.4349V7.55338H28.9527V18.5687L22.6582 23.2896V26.4368H26.4349V55.3914H74.2729V26.4368H78.0496V23.2896L52.033 3.77669ZM28.9543 2.51779H41.5432V5.03558H28.9543V2.51779ZM43.6424 7.55338L41.5432 9.127V7.55338H43.6424ZM39.0254 7.55338V11.0153L31.472 16.6804V7.55338H39.0254ZM56.65 52.8736H44.061V33.9902H56.65V52.8736ZM71.7567 52.8736H59.1678V31.4724H41.5432V52.8736H28.9543V26.4368H71.7567V52.8736ZM26.0179 23.919L49.5168 6.29448H51.1958L74.6947 23.919H26.0179Z" fill="#5D5C75"/>
<path d="M44.0605 16.3658C44.0605 19.8372 46.8836 22.6603 50.355 22.6603C53.8264 22.6603 56.6495 19.8372 56.6495 16.3658C56.6495 12.8944 53.8264 10.0713 50.355 10.0713C46.8836 10.0713 44.0605 12.8944 44.0605 16.3658ZM54.1317 16.3658C54.1317 18.4477 52.4369 20.1425 50.355 20.1425C48.2731 20.1425 46.5783 18.4477 46.5783 16.3658C46.5783 14.2839 48.2731 12.5891 50.355 12.5891C52.4369 12.5891 54.1317 14.2839 54.1317 16.3658Z" fill="#5D5C75"/>
<path d="M54.133 41.5436H51.6152V44.0614H54.133V41.5436Z" fill="#5D5C75"/>
</svg>
