<svg width="54" height="72" viewBox="0 0 54 72" fill="none" xmlns="http://www.w3.org/2000/svg">
<path d="M38.1862 50.8348C39.7377 50.8348 40.9955 49.5771 40.9955 48.0256C40.9955 46.4741 39.7377 45.2163 38.1862 45.2163C36.6347 45.2163 35.377 46.4741 35.377 48.0256C35.377 49.5771 36.6347 50.8348 38.1862 50.8348Z" fill="#5D5C75"/>
<path d="M50.6941 34.45C49.8998 32.7764 49.1162 31.3388 48.5654 30.2052C48.2889 29.64 48.0715 29.1507 47.9376 28.7753C47.8038 28.4044 47.7665 28.1453 47.7708 28.0994V28.0861V28.0894C47.7905 27.8305 47.8454 27.7174 47.9025 27.6231C47.9617 27.5319 48.0451 27.4486 48.1878 27.3586C48.3436 27.2632 48.4446 27.2192 48.5192 27.1906L48.7541 27.3147L49.3685 27.1698C50.6656 26.8614 51.583 25.7048 51.583 24.3682V21.4141C51.583 19.1634 49.7614 17.3417 47.5096 17.3406H40.9672C40.401 16.1653 39.2091 15.3478 37.8177 15.3478H27.9249C26.5335 15.3478 25.3418 16.1654 24.7766 17.3406H20.1786C19.6827 15.3006 18.3109 11.203 14.6347 6.2165C13.9345 5.27179 12.6527 3.82645 11.0068 2.52061C10.1836 1.87205 9.27292 1.26188 8.2787 0.795568C7.28435 0.332632 6.19578 0.00230501 5.02817 5.50197e-05C4.05589 -0.00430434 3.02652 0.250226 2.11134 0.821865C1.35632 1.28719 0.811966 1.96978 0.480654 2.69737C0.144843 3.42806 0 4.20838 0 4.98646C0.00224999 5.92696 0.210655 6.87167 0.634356 7.75072C1.05567 8.62638 1.70324 9.44187 2.59424 10.0366C4.60025 11.3721 6.48996 13.0149 7.87694 14.662C8.6605 15.5805 9.26181 16.5012 9.66793 17.3407H9.62181C7.37224 17.3419 5.55059 19.1635 5.55059 21.4142V24.3573C5.55059 25.7061 6.48546 26.8704 7.7958 27.1656L8.44999 27.3137L8.63645 27.2029C8.70663 27.2324 8.78791 27.2653 8.91067 27.3368C9.06873 27.43 9.16098 27.5179 9.22454 27.6122C9.28389 27.7089 9.34309 27.8219 9.36292 28.0929V28.0973C9.36939 28.14 9.33212 28.4013 9.196 28.7753C8.96341 29.436 8.47178 30.4247 7.86386 31.6044C6.04446 35.1642 3.19569 40.5359 3.19119 47.2377C3.19119 47.6722 3.20216 48.1133 3.22846 48.5578C3.5488 54.1873 5.50657 60.0265 9.63489 64.5148C13.7566 69.0086 20.0643 72.0154 28.5667 71.9999C37.0692 72.0154 43.3769 69.0086 47.4986 64.5148C51.6269 60.0265 53.5847 54.1873 53.9073 48.5578C53.9315 48.1123 53.9424 47.6722 53.9424 47.2388C53.9424 42.1326 52.2832 37.798 50.6941 34.45ZM48.2118 21.4142V23.8131C47.6697 23.8834 47.0575 24.0907 46.4144 24.4923C46.2981 24.5636 46.1861 24.669 46.0699 24.7556H41.3215V20.7118H47.5096C47.898 20.7129 48.2118 21.0257 48.2118 21.4142ZM4.46412 7.23181C4.13928 7.01455 3.86492 6.6897 3.6696 6.28471C3.47413 5.88308 3.36894 5.41129 3.37105 4.9866C3.37105 4.63546 3.44136 4.32257 3.54233 4.10657C3.64541 3.8872 3.75735 3.76964 3.88475 3.6885C4.25783 3.46237 4.598 3.37575 5.02817 3.37139C5.53512 3.36914 6.16723 3.52832 6.84757 3.84881C7.87033 4.32384 8.96762 5.14691 9.88295 5.99417C10.8004 6.83694 11.5509 7.71373 11.9219 8.21632C14.3009 11.4482 15.5981 14.2232 16.3003 16.1646C16.4431 16.5586 16.555 16.9076 16.6537 17.2291H13.2519C12.723 15.571 11.7135 13.9951 10.4536 12.4884C8.81181 10.5458 6.71384 8.73298 4.46412 7.23181ZM8.92164 23.8064V21.4141C8.92164 21.0257 9.23551 20.7129 9.62167 20.7118H24.4209V24.7556H11.0636C10.9101 24.6393 10.7586 24.5109 10.6028 24.4209C9.99489 24.0677 9.43084 23.8746 8.92164 23.8064ZM50.5406 48.3667C50.2596 53.362 48.5083 58.4482 45.0185 62.2298C41.5223 66.0058 36.3033 68.6131 28.5667 68.6285C20.8324 68.613 15.6111 66.0057 12.1149 62.2298C8.6252 58.4492 6.87612 53.3619 6.59515 48.3667C6.57321 47.9859 6.56224 47.6095 6.56224 47.2375C6.55999 42.8753 7.98874 39.0467 9.48569 35.895C10.2341 34.3181 10.9933 32.9211 11.5991 31.6822C11.902 31.0601 12.1677 30.4783 12.3717 29.9033C12.5737 29.326 12.7295 28.7565 12.7338 28.0971L12.7272 27.8678V27.8644C12.7074 27.566 12.6525 27.2806 12.5803 27.0029H24.4209V35.1026C24.4209 36.5742 25.6236 37.766 27.0951 37.766C28.5667 37.766 29.7694 36.5742 29.7694 35.1026V33.383C29.7694 31.9114 30.9721 30.7088 32.4438 30.7088C33.9165 30.7088 35.1182 31.9114 35.1182 33.383V38.4737C35.1182 40.1813 36.5008 41.5748 38.2203 41.5748C39.9279 41.5748 41.3215 40.1813 41.3215 38.4737V27.0028H44.5534C44.4809 27.2784 44.4261 27.5636 44.4085 27.8599L44.3998 28.097C44.4042 28.7576 44.5598 29.326 44.7618 29.9032C45.1218 30.9051 45.6616 31.9509 46.2718 33.1448C48.1088 36.7057 50.5779 41.5134 50.5714 47.2384C50.5714 47.6107 50.5625 47.987 50.5406 48.3667Z" fill="#5D5C75"/>
<path d="M44.4086 27.8535L44.4062 27.8683C44.4062 27.8648 44.4086 27.8626 44.4086 27.8603V27.857V27.8535Z" fill="#5D5C75"/>
</svg>
