<svg width="68" height="63" viewBox="0 0 68 63" fill="none" xmlns="http://www.w3.org/2000/svg">
<path d="M31.5925 36.9979C31.5925 36.3209 31.1412 35.8696 30.4642 35.8696C29.7872 35.8696 29.3359 36.3209 29.3359 36.9979C29.3359 37.6749 29.7872 38.1261 30.4642 38.1261C31.1412 38.1261 31.5925 37.6749 31.5925 36.9979Z" fill="#5D5C75"/>
<path d="M33.849 33.6132C33.172 33.6132 32.7207 34.0644 32.7207 34.7414C32.7207 35.4184 33.172 35.8697 33.849 35.8697C34.5259 35.8697 34.9772 35.4184 34.9772 34.7414C34.9772 34.0644 34.5259 33.6132 33.849 33.6132Z" fill="#5D5C75"/>
<path d="M31.5931 40.3827C30.9161 40.3827 30.4648 40.834 30.4648 41.511C30.4648 42.1879 30.9161 42.6392 31.5931 42.6392C32.2701 42.6392 32.7214 42.1879 32.7214 41.511C32.7214 40.834 32.2701 40.3827 31.5931 40.3827Z" fill="#5D5C75"/>
<path d="M20.3099 39.2546C19.6329 39.2546 19.1816 39.7059 19.1816 40.3829C19.1816 41.0599 19.6329 41.5112 20.3099 41.5112C20.9869 41.5112 21.4382 41.0599 21.4382 40.3829C21.4382 39.7059 20.9869 39.2546 20.3099 39.2546Z" fill="#5D5C75"/>
<path d="M22.5677 38.1261C23.2447 38.1261 23.696 37.6749 23.696 36.9979C23.696 36.3209 23.2447 35.8696 22.5677 35.8696C21.8907 35.8696 21.4395 36.3209 21.4395 36.9979C21.4395 37.6749 21.8907 38.1261 22.5677 38.1261Z" fill="#5D5C75"/>
<path d="M16.9251 35.8696C16.2482 35.8696 15.7969 36.3209 15.7969 36.9979C15.7969 37.6749 16.2482 38.1261 16.9251 38.1261C17.6021 38.1261 18.0534 37.6749 18.0534 36.9979C18.0534 36.3209 17.6021 35.8696 16.9251 35.8696Z" fill="#5D5C75"/>
<path d="M33.849 36.9977C33.172 36.9977 32.7207 37.449 32.7207 38.1259C32.7207 38.8029 33.172 39.2542 33.849 39.2542C34.5259 39.2542 34.9772 38.8029 34.9772 38.1259C34.9772 37.449 34.5259 36.9977 33.849 36.9977Z" fill="#5D5C75"/>
<path d="M67.6982 41.7367C67.6982 40.6085 67.3597 39.3673 66.7955 38.1261C66.6827 37.9004 66.457 37.6748 66.1185 37.5619C65.78 37.4491 65.4416 37.5619 65.2159 37.6747C63.2997 38.779 60.9794 39.7515 58.3346 40.5778C62.8918 33.8561 63.9199 25.0292 61.2669 14.3188C60.5899 11.3852 59.0102 9.24146 56.7537 8.22598C55.7382 7.77471 54.61 7.549 53.5945 7.66179C53.0303 6.64631 52.0148 4.50258 51.902 0.891968C51.902 0.327772 51.4508 -0.236292 50.8866 0.102199C49.0812 -0.0104547 45.245 0.666527 44.1166 4.27701C44.0038 4.72829 44.1166 5.29248 44.5679 5.51819C44.5679 5.51819 48.6298 8.22611 48.517 11.2725C48.517 11.3853 48.4042 15.2216 49.7582 17.4782C49.8653 17.4782 53.3267 23.6817 46.7263 32.8056C44.5984 29.2945 40.7765 26.9381 36.3722 26.8464C36.9589 25.4212 37.234 23.9031 37.234 22.3298C37.234 15.4472 31.7054 9.91844 24.8226 9.91844C17.9399 9.91844 12.4112 15.4471 12.4112 22.3298C12.4112 24.3789 12.9289 26.3629 13.8648 28.1361C8.79323 29.0011 4.6089 33.1926 3.59184 38.3702C3.20945 38.1799 2.83751 37.9863 2.48222 37.7876C2.25652 37.6748 1.91803 37.5619 1.57954 37.6748C1.24105 37.7876 1.01534 38.0133 0.902555 38.239C0.338491 39.3673 0 40.6085 0 41.8495C0 46.0021 3.40421 49.7157 9.02647 52.462V61.8205C9.02647 62.4975 9.47775 62.9487 10.1547 62.9487H57.5435C58.2205 62.9487 58.6717 62.4975 58.7847 61.8205V52.3903C64.3395 49.6348 67.6982 45.915 67.6982 41.7367ZM51.9019 16.1242C50.9992 14.6574 50.8864 11.9495 50.8864 11.0468C50.8864 7.66192 48.0657 4.95399 46.5988 3.82573C47.2758 2.58455 48.7426 2.13328 49.758 2.02049C50.0965 6.87215 52.0147 9.35451 52.1275 9.46729C52.466 9.80578 52.8045 10.0315 53.2557 9.91857C54.0455 9.80578 54.9482 9.91857 55.738 10.3698C57.8817 11.2725 58.6716 13.5291 59.0101 14.883C61.8254 26.2567 60.3691 35.1573 54.6426 41.5857C52.5621 42.0798 50.3335 42.4959 47.982 42.8276C48.3278 41.6834 48.5169 40.4925 48.5169 39.2544C48.5169 37.7625 48.2567 36.3344 47.7797 35.0121C54.6026 26.3527 53.365 18.8251 51.9019 16.1242ZM45.4634 35.3924C45.4661 35.4009 45.4679 35.41 45.4707 35.4182C45.4824 35.4438 45.4931 35.4699 45.5044 35.4957C45.991 36.687 46.2605 37.9932 46.2605 39.3673C46.2605 39.4564 46.2592 39.5459 46.2566 39.6358C46.2564 39.6446 46.256 39.6534 46.2557 39.6621C46.2342 40.3686 46.135 41.0954 45.9593 41.8063C45.8435 42.2583 45.6909 42.7066 45.4976 43.1417C41.8378 43.5519 37.9245 43.7677 33.8491 43.7677C31.8147 43.7677 29.8209 43.7137 27.8786 43.6094C27.8853 43.5783 27.8914 43.5475 27.898 43.5164C28.0753 42.7675 28.1701 41.9985 28.1982 41.2258C28.2013 41.151 28.2033 41.0784 28.2046 41.0066C28.2048 40.9975 28.2049 40.9885 28.2052 40.9793C28.206 40.931 28.2077 40.8808 28.2077 40.834C28.2077 40.8191 28.207 40.8042 28.207 40.7891C28.2071 40.7665 28.2077 40.7437 28.2077 40.7211C28.2077 38.7257 27.7327 36.816 26.8943 35.1096C28.6013 31.546 32.0753 29.2124 36.1059 29.2124C40.3336 29.2126 43.9277 31.7475 45.4634 35.3924ZM24.7098 12.1752C30.3514 12.1752 34.8646 16.6884 34.8646 22.3299C34.8646 24.0224 34.5261 25.6021 33.7363 27.0688C33.6879 27.0785 33.6398 27.0896 33.5915 27.0998C30.2554 27.7857 27.3437 29.8233 25.4853 32.8051C23.2292 29.8827 19.9634 28.1966 16.3604 27.9714C15.2321 26.2789 14.6679 24.3608 14.5551 22.3298C14.5551 16.6884 19.0683 12.1752 24.7098 12.1752ZM15.7963 30.228C15.9626 30.228 16.1282 30.2329 16.2928 30.2416C16.3042 30.2422 16.3155 30.2428 16.3268 30.2434C19.3071 30.4113 21.9814 31.9837 23.7507 34.2998C24.0596 34.7202 24.3432 35.1681 24.5969 35.6439C25.3576 36.9751 25.7965 38.4666 25.9161 39.9157C25.9214 39.9824 25.9275 40.0489 25.9315 40.1159C25.9349 40.172 25.9373 40.2279 25.9398 40.2839C25.946 40.4292 25.9509 40.5747 25.9509 40.7212C25.9509 41.5898 25.8158 42.5249 25.5483 43.4243C24.8895 43.3768 24.2383 43.3227 23.5941 43.2628C23.426 42.8762 23.0555 42.6393 22.566 42.6393C22.1686 42.6393 21.8501 42.7956 21.6538 43.0609C15.4135 42.3428 9.96314 41.0316 5.75422 39.2544C6.43133 34.1771 10.8317 30.228 15.7963 30.228ZM56.4152 53.4711V60.6922H11.283V53.4711C15.8953 55.3501 21.6071 56.5821 27.7815 57.0701C27.7929 57.071 27.8044 57.0718 27.8159 57.0727C28.0651 57.0923 28.3152 57.1107 28.5659 57.1279C28.635 57.1326 28.7046 57.137 28.774 57.1416C28.9694 57.1545 29.1651 57.1668 29.3613 57.1781C29.4582 57.1837 29.5553 57.1891 29.6525 57.1943C29.8244 57.2035 29.9964 57.2122 30.1688 57.2204C30.2795 57.2257 30.3903 57.2307 30.5012 57.2355C30.664 57.2425 30.827 57.2487 30.9902 57.2547C31.1063 57.2589 31.2224 57.2633 31.3387 57.267C31.5032 57.2723 31.6679 57.2766 31.833 57.2809C31.9463 57.2838 32.0593 57.2869 32.1729 57.2893C32.3549 57.2932 32.5372 57.2959 32.7195 57.2984C32.816 57.2998 32.9123 57.3018 33.009 57.3028C33.2885 57.3057 33.5685 57.3074 33.8491 57.3074C34.1297 57.3074 34.4097 57.3057 34.6892 57.3028C34.7856 57.3018 34.8814 57.2999 34.9775 57.2984C35.1606 57.2958 35.3436 57.2932 35.5262 57.2892C35.6386 57.2868 35.7505 57.2836 35.8625 57.2807C36.0287 57.2765 36.1949 57.2721 36.3605 57.2668C36.4756 57.2631 36.5904 57.2589 36.7051 57.2547C36.8705 57.2486 37.0357 57.2423 37.2007 57.2352C37.3086 57.2306 37.4162 57.2257 37.5238 57.2206C37.7017 57.2122 37.8791 57.2032 38.0563 57.1936C38.1469 57.1887 38.2373 57.1838 38.3276 57.1785C38.5351 57.1665 38.7421 57.1535 38.9487 57.1399C39.0057 57.1361 39.0627 57.1325 39.1195 57.1287C45.599 56.6865 51.6051 55.4308 56.4152 53.4711ZM33.8491 55.0507C25.8837 55.0507 18.5836 53.7933 13.0111 51.7365C12.2154 51.4322 11.45 51.108 10.7189 50.7631C10.661 50.7485 10.6049 50.7361 10.5505 50.7255C5.40581 48.3709 2.25665 45.2476 2.25665 41.8494C2.25665 41.2852 2.36944 40.8339 2.48236 40.2697C3.46808 40.7704 4.53908 41.2418 5.68215 41.6842C5.79785 41.7295 5.9146 41.7744 6.03162 41.819C6.07129 41.8339 6.11042 41.8491 6.15036 41.8641C11.4923 43.8831 18.3294 45.2646 26.1293 45.78C26.1824 45.7908 26.236 45.7985 26.2895 45.7985C26.9387 45.828 27.5959 45.8573 28.2566 45.8848C30.0831 45.9762 31.9496 46.0241 33.8492 46.0241C34.2275 46.0241 34.6058 46.0217 34.984 46.0181C35.0242 46.0177 35.0644 46.0173 35.1044 46.0169C38.9705 45.9771 42.8099 45.7543 46.3734 45.3471C49.6455 45.0086 52.6919 44.4444 55.5127 43.7674C55.6143 43.7165 55.7156 43.6657 55.807 43.6148C59.4263 42.7189 62.6103 41.5933 65.2161 40.2697C65.3289 40.8339 65.4418 41.2852 65.4418 41.8494C65.4416 49.0707 51.2249 55.0507 33.8491 55.0507Z" fill="#5D5C75"/>
<path d="M18.0521 22.3301C18.7291 22.3301 19.1803 21.8789 19.1803 21.2019C19.1803 20.5249 18.7291 20.0736 18.0521 20.0736C17.3751 20.0736 16.9238 20.5248 16.9238 21.2017C16.9238 21.8787 17.3751 22.3301 18.0521 22.3301Z" fill="#5D5C75"/>
<path d="M21.4369 18.9451C22.1138 18.9451 22.5651 18.4938 22.5651 17.8169C22.5651 17.1399 22.1138 16.6886 21.4369 16.6886C20.7599 16.6886 20.3086 17.1399 20.3086 17.8169C20.3086 18.4938 20.7599 18.9451 21.4369 18.9451Z" fill="#5D5C75"/>
<path d="M20.3099 26.8431C20.9869 26.8431 21.4382 26.3918 21.4382 25.7148C21.4382 25.0378 20.9869 24.5865 20.3099 24.5865C19.6329 24.5865 19.1816 25.0378 19.1816 25.7148C19.1816 26.3918 19.6329 26.8431 20.3099 26.8431Z" fill="#5D5C75"/>
<path d="M21.4395 22.3299C21.4395 23.0069 21.8907 23.4582 22.5677 23.4582C23.2447 23.4582 23.696 23.0069 23.696 22.3299C23.696 21.6529 23.2447 21.2017 22.5677 21.2017C21.8907 21.2017 21.4395 21.6529 21.4395 22.3299Z" fill="#5D5C75"/>
</svg>
