<svg width="61" height="62" viewBox="0 0 61 62" fill="none" xmlns="http://www.w3.org/2000/svg">
<path d="M59.8621 35.734L30.7797 21.6426L30.5419 17.4089C30.4588 16.4124 30.3079 15.4836 29.9788 14.5674L39.1954 6.10842C39.399 5.90477 39.399 5.49759 39.399 5.29394C39.399 5.09029 39.2972 4.78487 39.0936 4.58135L34.8178 0.305415C34.6141 0.101765 34.4105 0 34.1051 0C33.9014 0 33.596 0.101765 33.3925 0.305415L25.4865 8.91938C23.7925 7.83636 21.7719 7.22819 19.7504 7.22819C17.7213 7.22819 15.7691 7.84072 14.0254 8.93139L6.10842 0.305415C5.90477 0.101765 5.70112 0 5.3957 0C5.09029 0 4.78487 0.101765 4.58122 0.407179L0.305415 4.68311C0.101765 4.88676 0 5.09029 0 5.3957C0 5.70112 0.101765 5.90477 0.305415 6.1083L9.54076 14.5269C9.2522 15.4233 9.04018 16.3327 8.95892 17.307L8.47108 25.9913L0.407179 33.3925C0.203529 33.5961 0.101765 33.7997 0.101765 34.1051C0.101765 34.3087 0.203529 34.6141 0.407179 34.8177L4.68311 39.0936C4.88676 39.2972 5.09029 39.399 5.3957 39.399C5.70112 39.399 5.90477 39.2972 6.1083 39.0936L7.78662 37.2776L6.5156 60.0657C6.5156 60.2694 6.61736 60.5748 6.82101 60.7783C7.02466 60.9819 7.22819 61.0837 7.53361 61.0837H16.6962H22.8046H31.9672H39.0936H53.3465H59.4549C60.0657 61.0837 60.4729 60.6765 60.4729 60.0657V36.6503C60.473 36.2431 60.1675 35.9377 59.8621 35.734ZM28.5057 17.5107L28.8111 22.3973V23.8617L24.3317 19.7503L28.3057 16.1029C28.4064 16.6038 28.5057 17.0077 28.5057 17.5107ZM15.3728 10.3842C18.0197 8.85715 21.4812 8.85715 24.1281 10.3842L19.7504 15.1691L15.3728 10.3842ZM15.1643 19.6532L10.5879 23.9245L10.9951 17.5107C10.9951 17.0016 11.0968 16.5944 11.1987 16.0853L14.5324 19.0772L15.1643 19.6532ZM5.3957 37.0575L2.54521 34.207L17.4087 20.3615L17.4089 20.3613C17.5107 20.2595 17.5871 20.1323 17.6379 20.0049C17.6761 19.9095 17.6999 19.814 17.7095 19.7293C17.7126 19.7011 17.7142 19.674 17.7142 19.6486C17.7142 19.5468 17.6887 19.4194 17.6378 19.2922C17.5868 19.165 17.5105 19.0377 17.4088 18.9358L2.54521 5.29394L5.29394 2.44332L18.936 17.4089C19.1456 17.6185 19.4362 17.7194 19.7244 17.7132C19.7332 17.7133 19.7414 17.7143 19.7504 17.7143C20.0559 17.7143 20.2595 17.6125 20.463 17.4089L26.3678 10.9951C26.4448 10.918 26.5071 10.8265 26.555 10.7259L34.1051 2.44332L36.9557 5.29394L22.092 19.0377C21.8884 19.2414 21.7866 19.5468 21.7866 19.7503C21.7866 19.954 21.8884 20.2594 22.092 20.4629L27.0257 25.0492C27.0691 25.1191 27.1204 25.1861 27.1823 25.2479L36.9026 34.1582L34.1051 36.9557L31.5184 34.1373C31.4828 34.0587 31.4349 33.9801 31.3563 33.9014L20.5648 22.1936C20.5496 22.1785 20.5334 22.1651 20.5174 22.1511L20.4629 22.0918C20.2593 21.8881 20.0557 21.7863 19.7503 21.7863C19.4449 21.7863 19.2413 21.8881 19.0377 22.1935L8.2462 33.9013C8.12831 33.9602 8.04559 34.0878 7.99598 34.2241L5.3957 37.0575ZM17.7143 59.0477V50.9031C17.7143 49.7832 18.6306 48.867 19.7504 48.867C20.8703 48.867 21.7866 49.7832 21.7866 50.9031V59.0477H17.7143ZM23.8227 59.0477V50.9031C23.8227 48.6633 21.9902 46.8309 19.7504 46.8309C17.5107 46.8309 15.6782 48.6633 15.6782 50.9031V59.0477H8.55174L9.97705 34.9195L19.7504 24.3317L26.9031 32.1248C26.945 32.2134 27.0036 32.2976 27.0804 32.3743L29.5237 35.0213L29.6969 38.0764L30.8473 59.0477H23.8227ZM50.1702 59.0477H42.27L46.2201 56.2262L50.1702 59.0477ZM47.9711 54.9754L52.3284 51.863V58.0878L47.9711 54.9754ZM46.22 53.7246L42.2699 50.9031H50.17L46.22 53.7246ZM44.469 54.9754L40.1117 58.0878V51.863L44.469 54.9754ZM58.4369 59.0477H54.3646V49.8851C54.3646 49.2743 53.9574 48.8671 53.3466 48.8671H39.2746C39.096 48.8321 38.9187 48.8523 38.7574 48.9138C38.4482 49.0043 38.225 49.2235 38.1288 49.5289C38.0547 49.7083 38.0411 49.8915 38.0756 50.0633V59.0477H32.9376L31.816 37.4777L33.3925 39.1954C33.4942 39.399 33.7997 39.5008 34.1051 39.5008C34.4105 39.5008 34.7159 39.399 34.9196 39.0936L39.1954 34.8177C39.399 34.614 39.5008 34.4105 39.5008 34.1051C39.5008 33.7997 39.399 33.596 39.1954 33.3925L31.0485 25.9151L30.949 24.0263L58.4369 37.2611V59.0477Z" fill="#5D5C75"/>
</svg>
