<svg width="64" height="64" viewBox="0 0 64 64" fill="none" xmlns="http://www.w3.org/2000/svg">
<path d="M56.5819 34.2045C56.0283 34.2045 55.5795 34.6533 55.5795 35.2069V61.9952H26.6528C26.0992 61.9952 25.6504 62.444 25.6504 62.9976C25.6504 63.5512 26.0992 64 26.6528 64H56.5811C57.1347 64 57.5835 63.5512 57.5835 62.9976V35.2069C57.5835 34.6533 57.1347 34.2045 56.5811 34.2045H56.5819Z" fill="#5D5C75"/>
<path d="M63.6019 23.7188L32.6048 0.203997C32.2464 -0.0679989 31.7512 -0.0679989 31.3936 0.203997L19.1058 9.52545V6.2799H20.2418C20.7954 6.2799 21.2442 5.83111 21.2442 5.27752V1.00238C21.2442 0.448793 20.7954 9.53659e-09 20.2418 9.53659e-09H5.27721C4.72362 9.53659e-09 4.27482 0.448793 4.27482 1.00238V5.27832C4.27482 5.83191 4.72362 6.2807 5.27721 6.2807H6.41319V19.1557L0.396486 23.7188C0.0540911 23.9788 -0.0851067 24.4284 0.0524911 24.8364C0.189289 25.2444 0.571683 25.5188 1.00208 25.5188H6.41319V62.9966C6.41319 63.5502 6.86198 63.999 7.41557 63.999H20.2418C20.7954 63.999 21.2442 63.5502 21.2442 62.9966C21.2442 62.443 20.7954 61.9942 20.2418 61.9942H8.41716V24.5164C8.41716 23.9628 7.96837 23.514 7.41477 23.514H3.98043L31.9992 2.25996L60.0179 23.5156H56.5836C56.03 23.5156 55.5812 23.9644 55.5812 24.518V29.8627C55.5812 30.4163 56.03 30.8651 56.5836 30.8651C57.1372 30.8651 57.586 30.4163 57.586 29.8627V25.5204H62.9971C63.4275 25.5204 63.8099 25.246 63.9467 24.838C64.0835 24.43 63.9451 23.9804 63.6027 23.7204L63.6019 23.7188ZM6.27959 4.27593V2.00477H19.2394V4.27593H6.27959ZM17.1018 11.0462L8.41716 17.6341V6.2799H17.1018V11.0462Z" fill="#5D5C75"/>
<path d="M53.3648 50.8337L44.2777 40.1451C44.1057 39.9427 43.8601 39.8171 43.5953 39.7955L40.5818 39.5515C40.5746 39.5515 40.5674 39.5515 40.5602 39.5515L38.5818 37.2244L43.0689 32.7364L43.8721 33.5396C44.2585 33.9252 44.9033 33.9252 45.2897 33.5396L48.3129 30.5165C48.3705 30.4581 48.4216 30.3941 48.4632 30.3237L50.7304 26.5445C50.9672 26.1501 50.9048 25.6453 50.58 25.3206L49.0688 23.8094C48.744 23.4846 48.2393 23.4222 47.8449 23.659L44.0657 25.9261C43.9953 25.9685 43.9305 26.0189 43.8729 26.0765L40.8498 29.0997C40.4642 29.4853 40.4642 30.1309 40.8498 30.5165L41.653 31.3197L37.2802 35.6924L32.5427 30.1205L34.3643 28.5717L42.8225 25.5733C43.4729 25.343 43.6985 24.5046 43.2505 23.979L40.0954 20.2798C38.5346 18.4447 36.353 17.3263 33.9523 17.1319C31.5507 16.9375 29.218 17.6903 27.3828 19.2502L17.9669 27.2557L17.8173 27.0797C17.2973 26.4677 16.5702 26.0949 15.7694 26.0301C14.9702 25.9653 14.191 26.2157 13.579 26.7365L11.747 28.2941C10.4991 29.3557 10.3423 31.2829 11.4038 32.5316L19.1925 41.6931C20.2533 42.9411 22.1813 43.0979 23.43 42.0363L25.262 40.4787C25.9084 39.9291 26.294 39.1227 26.3196 38.2755C26.3444 37.45 26.0212 36.73 25.4948 36.1116L27.7572 34.1876L32.8235 40.1475L30.9107 42.0603L30.1075 41.2571C29.9195 41.0691 29.6651 40.9635 29.3988 40.9635H26.3756C26.11 40.9635 25.8548 41.0691 25.6668 41.2571L15.747 51.1769C14.5878 52.3361 14.5878 54.2697 15.747 55.4281L18.9589 58.64C20.1181 59.7952 22.0525 59.7984 23.2108 58.64L33.1307 48.7202C33.3187 48.5322 33.4243 48.2778 33.4243 48.0114V44.9882C33.4243 44.7226 33.3187 44.4674 33.1307 44.2795L32.3275 43.4763L34.1251 41.6787L36.1738 44.0883L35.9986 46.2522C35.977 46.517 36.0618 46.7794 36.2338 46.9818L45.3209 57.6704C46.3809 58.9168 48.3113 59.0736 49.5584 58.0136L53.0192 55.0713C54.2672 54.0105 54.424 52.0825 53.3624 50.8337H53.3648ZM45.2025 27.5805L48.2049 25.7789L48.6096 26.1837L46.8081 29.1861L44.5809 31.4133L42.9745 29.8069L45.2017 27.5797L45.2025 27.5805ZM21.7957 57.2232C21.4045 57.6136 20.7693 57.6136 20.3781 57.2232L17.1661 54.0113C16.7798 53.6249 16.7806 52.9801 17.1661 52.5945L25.622 44.1387L30.2515 48.7682L21.7957 57.224V57.2232ZM31.4219 47.1042L27.2852 42.9675H28.986L30.2035 44.1851L31.4211 45.4026V47.1034L31.4219 47.1042ZM33.7899 19.1295C35.6579 19.2806 37.3546 20.1502 38.569 21.579L40.7802 24.1718L34.1715 26.5141L29.0468 20.4862C30.4115 19.471 32.0787 18.9911 33.7899 19.1303V19.1295ZM24.314 38.2691C24.2924 38.5363 24.1684 38.7787 23.9644 38.9515L22.1325 40.5091C21.7165 40.8627 21.0733 40.8107 20.7205 40.3947L12.9318 31.2333C12.5774 30.8173 12.6302 30.1741 13.0462 29.8205L14.8782 28.2629C15.2942 27.9085 15.9366 27.9613 16.2902 28.3773L24.0788 37.5388C24.2524 37.7428 24.3356 38.002 24.314 38.2691ZM24.1972 34.5844L19.2645 28.7821L27.51 21.7718L32.4427 27.5741L24.1972 34.5844ZM29.2852 32.8892L31.0155 31.4181L38.853 40.6363L37.1226 42.1075L29.2852 32.8892ZM51.7232 53.5441L48.2625 56.4865C47.8465 56.8401 47.2041 56.7881 46.8505 56.3721L38.0322 46.0002L38.209 43.8139L40.8338 41.5819L43.0193 41.7587L51.8376 52.1305C52.192 52.5465 52.1392 53.1897 51.7232 53.5433V53.5441Z" fill="#5D5C75"/>
</svg>
