<svg width="65" height="62" viewBox="0 0 65 62" fill="none" xmlns="http://www.w3.org/2000/svg">
<path d="M64.0941 46.8932L63.0685 49.0249C61.2962 52.7071 57.5108 55.0862 53.4245 55.0862H31.2129V52.8535H53.4245C56.658 52.8535 59.6542 50.9707 61.0561 48.0564L61.3116 47.5257H31.2129V45.293H63.0875C63.4718 45.293 63.8283 45.4906 64.0333 45.8156C64.2375 46.1407 64.2602 46.5477 64.0941 46.8932Z" fill="#5D5C75"/>
<path d="M24.2497 8.20986C28.4121 4.35639 33.8314 2.23346 39.5084 2.23346C51.8953 2.23346 61.9726 12.3108 61.9726 24.6977C61.9726 31.3753 59.0298 37.6636 53.8996 41.949C53.426 42.3443 53.363 43.0485 53.7583 43.5214C53.9794 43.7857 54.2964 43.9218 54.6155 43.9218C54.8681 43.9218 55.1221 43.8369 55.3307 43.662C60.9711 38.9513 64.2053 32.0386 64.2053 24.6969C64.2053 11.0795 53.1258 0 39.5084 0C33.267 0 27.3096 2.33375 22.7329 6.57082C22.2805 6.98954 22.2534 7.69596 22.6721 8.14837C23.0909 8.60077 23.7973 8.62785 24.2497 8.20913V8.20986Z" fill="#5D5C75"/>
<path d="M59.5618 24.6985C59.5618 35.756 50.565 44.752 39.5075 44.752C37.2667 44.752 35.0669 44.3794 32.9886 43.6657C32.963 43.6569 32.9374 43.6481 32.9118 43.6386C32.3356 43.4388 31.769 43.2126 31.2134 42.9593V41.6394C31.2134 41.3942 31.015 41.1958 30.7698 41.1958H29.4382V39.4037C30.01 39.7961 30.6029 40.1534 31.2134 40.474C31.7808 40.7734 32.3635 41.0399 32.9586 41.2748C35.0237 42.0911 37.2418 42.5193 39.5075 42.5193C49.3344 42.5193 57.329 34.5247 57.329 24.6985C57.329 14.8723 49.3344 6.8769 39.5075 6.8769C33.8634 6.8769 28.4946 9.59424 25.1448 14.1461C24.7788 14.6431 24.0804 14.7493 23.5833 14.384C23.087 14.018 22.9809 13.3196 23.3462 12.8225C27.1147 7.70191 33.157 4.64417 39.5075 4.64417C50.565 4.64417 59.5618 13.6402 59.5618 24.6985Z" fill="#5D5C75"/>
<path d="M51.7905 15.9029L31.4171 36.2764C30.9808 36.7127 30.9808 37.4191 31.4171 37.8554C31.6352 38.0735 31.9207 38.1826 32.2069 38.1826C32.4932 38.1826 32.7787 38.0735 32.9968 37.8554L53.3696 17.4819C53.8059 17.0456 53.8059 16.3392 53.3696 15.9029C52.9333 15.4666 52.2268 15.4666 51.7905 15.9029Z" fill="#5D5C75"/>
<path d="M37.6202 36.4139C37.1839 36.8502 37.1839 37.5566 37.6202 37.9929C37.8383 38.2111 38.1238 38.3201 38.4101 38.3201C38.6963 38.3201 38.9818 38.2111 39.1999 37.9929L54.496 22.6969C54.9323 22.2606 54.9323 21.5542 54.496 21.1179C54.0597 20.6816 53.3533 20.6816 52.917 21.1179L37.6209 36.4139H37.6202Z" fill="#5D5C75"/>
<path d="M27.1368 8.57602C26.9619 8.32347 22.7519 2.39246 13.9498 2.39246C5.14772 2.39246 0.929694 8.32127 0.754004 8.57382L0 9.65944L7.95584 22.2681V60.9551H19.935V22.2689L27.8894 9.66164L27.1375 8.57602H27.1368ZM15.941 56.9633H11.9477V35.6675H15.941V56.9633ZM15.941 31.6749H11.9477V23.689H15.941V31.6749ZM16.8362 19.6957H15.941V15.037H11.9477V19.6957H11.0524L4.87614 9.90687C6.2187 8.59579 9.18787 6.38648 13.9491 6.38648C18.7103 6.38648 21.6685 8.5892 23.0132 9.90614L16.8362 19.6965V19.6957Z" fill="#5D5C75"/>
<path d="M32.9602 43.8538C32.9485 43.7806 32.9324 43.7089 32.9133 43.6386C32.6967 42.8341 32.0385 42.2111 31.215 42.0435V32.7231C31.215 31.4969 30.2216 30.5035 28.9954 30.5035V18.4314C28.9954 17.0091 27.729 16.2924 26.5102 17.0237L24.3543 18.3165C23.4597 18.8538 22.7819 20.05 22.7819 21.0946V30.5035C21.5564 30.5035 20.563 31.4969 20.563 32.7231V42.1511C19.5287 42.5164 18.7871 43.5032 18.7871 44.6627V58.8651C18.7871 60.0905 19.7812 61.0846 21.0067 61.0846H30.7714C31.9968 61.0846 32.9902 60.0905 32.9902 58.8651V44.2184C32.9902 44.0939 32.98 43.9724 32.9602 43.8538ZM24.5571 21.0946C24.5571 20.6737 24.9077 20.0551 25.2679 19.8391L27.2202 18.6671V30.5035H24.5571V21.0946ZM22.3382 32.7231C22.3382 32.4779 22.5366 32.2795 22.7819 32.2795H28.9954C29.2407 32.2795 29.4398 32.4779 29.4398 32.7231V41.9995H22.3382V32.7231ZM31.215 58.8651C31.215 59.1103 31.0166 59.3094 30.7714 59.3094H21.0067C20.7614 59.3094 20.563 59.1103 20.563 58.8651V44.6627C20.563 44.1722 20.9598 43.7747 21.4503 43.7747H30.7714C31.0166 43.7747 31.215 43.9731 31.215 44.2184V58.8651Z" fill="#5D5C75"/>
</svg>
