<svg width="53" height="53" viewBox="0 0 53 53" fill="none" xmlns="http://www.w3.org/2000/svg">
<path d="M26.8787 50.038C27.8906 50.038 28.7113 49.2173 28.7113 48.2055V4.27587C28.7113 3.26405 27.8906 2.44335 26.8787 2.44335H4.27587C3.26405 2.44335 2.44335 3.26405 2.44335 4.27587V48.2055C2.44335 49.2173 3.26405 50.038 4.27587 50.038H26.8787ZM26.8787 52.4814H4.27587C1.91466 52.4814 0 50.5667 0 48.2055V4.27587C0 1.91466 1.91466 0 4.27587 0H26.8787C29.24 0 31.1546 1.91466 31.1546 4.27587V48.2055C31.1546 50.5667 29.24 52.4814 26.8787 52.4814ZM50.0608 12.0343V41.8762C50.0608 44.8237 47.6715 47.2131 44.7239 47.2131C41.7745 47.2131 39.3851 44.8238 39.3851 41.8762C39.3851 41.2015 38.8382 40.6545 38.1634 40.6545C37.4887 40.6545 36.9418 41.2015 36.9418 41.8762C36.9418 46.1732 40.425 49.6564 44.722 49.6564C49.0208 49.6564 52.5041 46.1732 52.5041 41.8762V12.0343C52.5041 11.3596 51.9572 10.8126 51.2824 10.8126C50.6077 10.8126 50.0608 11.3596 50.0608 12.0343Z" fill="#5D5C75"/>
<path d="M39.3848 42.2191V17.7147C39.3848 17.04 38.8378 16.493 38.1631 16.493C37.4884 16.493 36.9414 17.04 36.9414 17.7147V42.2191C36.9414 42.8938 37.4884 43.4408 38.1631 43.4408C38.8378 43.4408 39.3848 42.8938 39.3848 42.2191Z" fill="#5D5C75"/>
<path d="M39.3872 17.5275V15.4695C39.3872 12.5219 36.9979 10.1326 34.0503 10.1326C31.1026 10.1326 28.7128 12.5219 28.7128 15.4695V17.5275C28.7128 18.2022 29.2597 18.7492 29.9345 18.7492C30.6092 18.7492 31.1561 18.2022 31.1561 17.5275V15.4695C31.1561 13.8715 32.4519 12.576 34.0503 12.576C35.6485 12.576 36.9438 13.8713 36.9438 15.4695V17.5275C36.9438 18.2022 37.4908 18.7492 38.1655 18.7492C38.8402 18.7492 39.3872 18.2022 39.3872 17.5275ZM51.9474 10.934L41.5252 0.511876C41.0481 0.0347782 40.2746 0.0347782 39.7975 0.511876C39.3204 0.988975 39.3204 1.76248 39.7975 2.23958L50.2197 12.6617C50.6968 13.1388 51.4703 13.1388 51.9474 12.6617C52.4245 12.1846 52.4245 11.4111 51.9474 10.934ZM21.9029 12.5171C22.2404 12.5171 22.5138 12.2437 22.5138 11.9063V9.15751C22.5138 8.82005 22.2404 8.54667 21.9029 8.54667H9.17919C9.09897 8.54665 9.01953 8.56244 8.94542 8.59313C8.8713 8.62383 8.80395 8.66882 8.74723 8.72554C8.6905 8.78227 8.64551 8.84961 8.61482 8.92373C8.58413 8.99785 8.56834 9.07728 8.56835 9.15751V11.9063C8.56835 12.2437 8.84174 12.5171 9.17919 12.5171H21.9029ZM21.9029 14.9605H9.17919C7.49235 14.9605 6.125 13.5931 6.125 11.9063V9.15751C6.125 7.47066 7.49235 6.10331 9.17919 6.10331H21.9029C23.5898 6.10331 24.9571 7.47066 24.9571 9.15751V11.9063C24.9571 13.5931 23.5898 14.9605 21.9029 14.9605Z" fill="#5D5C75"/>
<path d="M51.1394 17.1292H48.2178C47.5432 17.1292 46.9961 16.5821 46.9961 15.9075V7.12304C46.9961 6.44832 46.4491 5.90137 45.7744 5.90137C45.0997 5.90137 44.5527 6.44832 44.5527 7.12304V15.9075C44.5527 17.9315 46.1937 19.5725 48.2178 19.5725H51.1394C51.8141 19.5725 52.3611 19.0256 52.3611 18.3508C52.3611 17.6761 51.8141 17.1292 51.1394 17.1292Z" fill="#5D5C75"/>
</svg>
