<svg width="45" height="64" viewBox="0 0 45 64" fill="none" xmlns="http://www.w3.org/2000/svg">
<path d="M21.4975 63.9771L17.9151 59.2807L23.431 38.6935L22.8207 38.5302C22.1241 38.3397 21.7105 37.6229 21.8963 36.9302L22.3356 35.2937C20.3694 33.6829 18.8884 31.573 18.0387 29.1614C17.1073 26.5204 16.9993 23.689 17.7262 20.9719C18.6575 17.4905 20.8709 14.5487 23.9581 12.6868C27.0359 10.8302 30.6572 10.241 34.1557 11.0254L34.7131 11.1506L34.7605 11.7196C34.797 12.155 34.7869 12.5834 34.731 12.9931C34.5778 14.1071 34.0966 15.1722 33.3005 16.1596L33.2927 16.1689C33.187 16.2964 33.0727 16.4317 32.9499 16.5662L32.698 16.8406L32.3264 16.8165C30.4877 16.6968 28.8046 17.9072 28.3241 19.6945C28.1204 20.4518 28.15 21.244 28.4089 21.9849L28.4229 22.0237L28.4322 22.0642C28.4843 22.2888 28.5721 22.5166 28.6996 22.7592C28.9741 23.2599 29.3807 23.6587 29.8743 23.9137L29.9116 23.9331L29.9466 23.9564C30.277 24.1757 30.6564 24.3452 31.0731 24.4618C33.1139 25.0044 35.1912 23.8484 35.803 21.8278L35.8668 21.6171L36.0324 21.471C36.7142 20.8692 37.3315 20.2146 37.8671 19.5258C38.8436 18.2687 39.5534 16.895 39.9763 15.4435L40.3604 14.1266L41.2933 15.1326C44.5562 18.6528 45.7627 23.5211 44.5212 28.1561C43.795 30.8717 42.2853 33.2716 40.1559 35.0947C38.2123 36.7592 35.8761 37.8461 33.3697 38.2573L32.9304 39.8938C32.771 40.4777 32.2416 40.8625 31.6663 40.8625H31.6593L30.2024 46.2999L28.0512 47.1504L27.8289 47.9822L29.3978 49.3132L28.7548 51.7186L26.6285 52.468L26.4179 53.2532L27.9408 54.7459L27.4355 56.6382L25.9491 57.3114L26.9426 58.4815L26.1481 61.4388L21.4998 63.9787L21.4975 63.9771ZM19.6153 58.9456L21.9243 61.9729L24.8171 60.3924L25.2276 58.8655L23.4271 56.7455L26.1217 55.5257L26.2033 55.2209L24.6795 53.7275L25.3388 51.2739L27.4635 50.5252L27.6408 49.8628L26.0719 48.5319L26.7506 45.9928L28.9018 45.1423L30.5554 38.971L31.4929 39.247L32.1343 36.8564L32.6529 36.7911C37.6487 36.1645 41.717 32.617 43.0176 27.755C44.005 24.0699 43.2493 20.2193 41.0017 17.2099C40.5283 18.3605 39.8892 19.4559 39.0939 20.4805C38.5404 21.1911 37.9114 21.8675 37.2203 22.4933C36.781 23.7559 35.9025 24.8031 34.7286 25.4577C33.4863 26.1511 32.0434 26.3299 30.6665 25.9622L30.6588 25.9599C30.0975 25.8036 29.5805 25.5727 29.1218 25.275C28.3661 24.8754 27.7473 24.262 27.3306 23.4985L27.3251 23.4876C27.1409 23.1378 27.0103 22.8004 26.9271 22.4575C26.5772 21.4313 26.5407 20.3367 26.8221 19.2895C27.4588 16.9176 29.6123 15.2725 32.0309 15.2523C32.0519 15.2266 32.0729 15.2018 32.0939 15.1769C32.7081 14.4142 33.0766 13.608 33.1901 12.7801C33.2064 12.6634 33.2165 12.5445 33.2227 12.4232C26.9636 11.3309 20.8903 15.1652 19.2289 21.373C17.9291 26.2351 19.6798 31.3405 23.6898 34.3803L24.1066 34.6959L23.4636 37.0912L25.3364 37.5926L19.6161 58.944L19.6153 58.9456ZM2.84686 58.1239L0.296875 52.6873L10.4673 32.5587C10.1431 32.3745 9.90595 32.1428 9.76213 31.8684C9.61441 31.5869 9.49469 31.1267 9.75902 30.5335L10.4012 29.1948L6.68271 23.6781C4.8573 21.6164 6.33909 17.3125 8.63407 13.94C10.6608 10.9616 13.7426 8.13567 16.3143 9.13622L16.3625 9.15488L16.5507 9.25828C16.3307 8.66199 16.3532 7.97862 16.6696 7.37378C17.6119 5.58802 18.7057 4.10856 19.9208 2.97506C21.3233 1.67442 22.9264 0.794364 24.6881 0.359001C28.6289 -0.615901 32.6692 0.416531 35.7735 3.19119C37.2257 4.49184 38.3717 6.11201 39.0885 7.87678C39.8472 9.74806 40.1077 11.7585 39.8418 13.6912C39.5814 15.5843 38.8451 17.3599 37.6525 18.9684C36.362 20.7091 34.5599 22.2158 32.296 23.4449C31.7479 23.7434 31.1167 23.8095 30.5188 23.6322C29.9241 23.4558 29.4343 23.0585 29.1404 22.5143C28.8427 21.967 28.7766 21.3357 28.9554 20.7379C29.1334 20.1423 29.5323 19.6526 30.0796 19.3595C33.1131 17.7136 34.8965 15.5353 35.2347 13.0607C35.3863 11.9443 35.2246 10.7564 34.7683 9.62601C34.315 8.51272 33.5881 7.48806 32.6676 6.66476C30.7256 4.92798 28.2207 4.27804 25.7967 4.88133C24.7938 5.13011 23.9075 5.62222 23.0866 6.38644C22.2555 7.15921 21.4835 8.21807 20.79 9.53505C20.4549 10.171 19.8641 10.5892 19.2103 10.7276L22.4576 12.5212L21.7074 13.252C15.1264 19.665 14.7882 26.6254 20.675 34.5311L20.8538 34.7705L20.8258 35.0683C20.7947 35.4018 20.6991 36.4179 19.8983 36.8191C19.4419 37.0476 18.911 37.0049 18.317 36.6923L15.3371 42.3808L13.0118 42.7602L12.6021 43.554L13.8779 45.2192L12.7203 47.4629L10.4377 47.7513L10.0482 48.5078L11.2424 50.3301L10.3351 52.0925L8.69627 52.4439L9.44027 53.8371L8.01834 56.6009L2.84763 58.1239H2.84686ZM2.02589 52.7129L3.68726 56.2557L6.93849 55.2979L7.68327 53.8511L6.35153 51.3571L9.28789 50.7266L9.44338 50.4242L8.24846 48.6019L9.42783 46.3115L11.7112 46.0231L12.0416 45.3817L10.7658 43.7165L11.9864 41.3515L14.3179 40.9713L17.6733 34.5661L18.9351 35.2572C19.0478 35.3256 19.1302 35.3629 19.1854 35.3832C19.2009 35.3419 19.2188 35.2829 19.2352 35.2012C13.3103 27.0809 13.5303 19.5772 19.8882 12.8788L15.7056 10.569C14.3443 10.0964 11.9218 11.8681 9.91761 14.8138C7.70271 18.0697 6.80088 21.52 7.86519 22.669L7.90562 22.7133L12.1862 29.0642L11.1755 31.1718C11.1996 31.1889 11.2361 31.2107 11.2867 31.2355L12.6845 31.6142L2.02589 52.7129ZM27.5879 3.10412C29.7958 3.10412 31.9446 3.93286 33.7032 5.50561C34.7986 6.48518 35.6647 7.70808 36.2081 9.04138C36.7671 10.4237 36.963 11.886 36.7748 13.2706C36.4903 15.3526 35.2262 18.3356 30.8181 20.7278C30.6354 20.8257 30.504 20.9874 30.4457 21.1826C30.3867 21.3808 30.4084 21.5907 30.5079 21.7734C30.6051 21.9538 30.766 22.0836 30.962 22.1419C31.161 22.201 31.3709 22.1784 31.5536 22.0789C36.5245 19.3797 37.9666 15.9131 38.3009 13.4797C38.5295 11.816 38.3033 10.0808 37.6471 8.46219C37.0189 6.91587 36.0122 5.49395 34.7364 4.35112C32.0216 1.92475 28.4952 1.01982 25.0605 1.86955C23.5577 2.24117 22.184 2.99605 20.9789 4.114C19.8929 5.127 18.9047 6.46807 18.0449 8.09757C17.849 8.47152 17.9959 8.93876 18.3722 9.137C18.7469 9.33291 19.2142 9.18676 19.4124 8.8097C20.1875 7.33724 21.0668 6.13844 22.0254 5.24672C23.0298 4.31147 24.1726 3.6802 25.4196 3.37078C26.1403 3.19197 26.8664 3.10334 27.5863 3.10334L27.5879 3.10412Z" fill="#5D5C75"/>
</svg>
