<svg width="71" height="50" viewBox="0 0 71 50" fill="none" xmlns="http://www.w3.org/2000/svg">
<path d="M65.5544 33.3459H69.4522C70.2353 33.3459 70.8696 32.7116 70.8696 31.9285C70.8696 31.1454 70.2353 30.5111 69.4522 30.5111H65.5544C64.7713 30.5111 64.137 31.1454 64.137 31.9285C64.137 32.7116 64.7713 33.3459 65.5544 33.3459ZM21.8987 33.3459H48.83C49.6132 33.3459 50.2474 32.7116 50.2474 31.9285C50.2474 31.1454 49.6132 30.5111 48.83 30.5111H21.8987C21.1156 30.5111 20.4813 31.1454 20.4813 31.9285C20.4813 32.7116 21.1156 33.3459 21.8987 33.3459ZM1.41739 33.3459H5.31522C6.09833 33.3459 6.73261 32.7116 6.73261 31.9285C6.73261 31.1454 6.09833 30.5111 5.31522 30.5111H1.41739C0.634283 30.5111 0 31.1454 0 31.9285C0 32.7116 0.634283 33.3459 1.41739 33.3459Z" fill="#5D5C75"/>
<path d="M53.8613 50C51.1292 50 48.9004 47.7712 48.9004 45.0391V18.8174C48.9004 16.0854 51.1292 13.8565 53.8613 13.8565C56.5933 13.8565 58.8221 16.0854 58.8221 18.8174V45.0391C58.8221 47.7712 56.5933 50 53.8613 50ZM53.8613 47.1652C55.0271 47.1652 55.9873 46.2049 55.9873 45.0391V18.8174C55.9873 17.6516 55.0271 16.6913 53.8613 16.6913C52.6955 16.6913 51.7352 17.6516 51.7352 18.8174V45.0391C51.7352 46.2049 52.6955 47.1652 53.8613 47.1652Z" fill="#5D5C75"/>
<path d="M60.9488 40.4326C58.2168 40.4326 55.988 38.2038 55.988 35.4717V28.3848C55.988 25.6528 58.2168 23.4239 60.9488 23.4239C63.6809 23.4239 65.9097 25.6528 65.9097 28.3848V35.4717C65.9097 38.2038 63.6809 40.4326 60.9488 40.4326ZM60.9488 37.5978C62.1147 37.5978 63.0749 36.6375 63.0749 35.4717V28.3848C63.0749 27.219 62.1147 26.2587 60.9488 26.2587C59.783 26.2587 58.8228 27.219 58.8228 28.3848V35.4717C58.8228 36.6375 59.783 37.5978 60.9488 37.5978ZM17.0097 47.1652C18.1755 47.1652 19.1358 46.2049 19.1358 45.0391V18.8174C19.1358 17.6516 18.1755 16.6913 17.0097 16.6913C15.8439 16.6913 14.8836 17.6516 14.8836 18.8174V45.0391C14.8836 46.2049 15.8439 47.1652 17.0097 47.1652ZM17.0097 50C14.2777 50 12.0488 47.7712 12.0488 45.0391V18.8174C12.0488 16.0854 14.2777 13.8565 17.0097 13.8565C19.7417 13.8565 21.9706 16.0854 21.9706 18.8174V45.0391C21.9706 47.7712 19.7417 50 17.0097 50Z" fill="#5D5C75"/>
<path d="M9.92181 37.5979C11.0876 37.5979 12.0479 36.6376 12.0479 35.4718V28.3849C12.0479 27.2191 11.0876 26.2588 9.92181 26.2588C8.756 26.2588 7.79572 27.2191 7.79572 28.3849V35.4718C7.79572 36.6376 8.756 37.5979 9.92181 37.5979ZM9.92181 40.4327C7.18979 40.4327 4.96094 38.2039 4.96094 35.4718V28.3849C4.96094 25.6529 7.18979 23.424 9.92181 23.424C12.6538 23.424 14.8827 25.6529 14.8827 28.3849V35.4718C14.8827 38.2039 12.6538 40.4327 9.92181 40.4327Z" fill="#5D5C75"/>
<path d="M46.9778 7.82392C46.9778 10.1768 45.6862 12.4845 44.089 14.4635C42.4731 16.4647 40.4418 18.2559 38.7472 19.5927C37.3005 20.7337 36.303 21.5638 34.7696 21.5638C33.2362 21.5638 32.2387 20.7328 30.7921 19.5918C29.7139 18.7423 28.5047 17.712 27.354 16.5639C27.0209 16.2317 27.02 15.6922 27.3522 15.3591C27.6844 15.026 28.2239 15.0252 28.557 15.3574C29.6484 16.4461 30.8045 17.4321 31.8462 18.2533C33.424 19.4979 33.9395 19.8593 34.7696 19.8593C35.5997 19.8593 36.1144 19.4979 37.693 18.2533C39.3398 16.9555 41.2613 15.2537 42.7637 13.3925C44.2838 11.5083 45.2743 9.58414 45.2743 7.82215C45.2743 4.63922 43.8471 2.66373 42.0612 1.98515C40.2709 1.30392 37.7771 1.79557 35.3826 4.2831C35.2223 4.44964 35.0008 4.54443 34.7687 4.54443C34.5366 4.54443 34.316 4.45053 34.1548 4.2831C31.7603 1.79557 29.2666 1.30392 27.4762 1.98515C25.6912 2.66373 24.2632 4.63922 24.2632 7.82215C24.2632 9.06502 24.7557 10.3983 25.6035 11.759C25.8524 12.1585 25.7302 12.6838 25.3307 12.9327C24.9311 13.1808 24.4058 13.0594 24.1578 12.6599C23.2196 11.153 22.5605 9.50353 22.5605 7.82303C22.5605 4.13338 24.2561 1.38896 26.8712 0.393242C29.287 -0.525406 32.1953 0.160258 34.7687 2.50516C37.3413 0.160258 40.2496 -0.525406 42.6663 0.393242C45.2813 1.38807 46.9769 4.1325 46.9769 7.82303L46.9778 7.82392Z" fill="#5D5C75"/>
</svg>
