<svg width="47" height="62" viewBox="0 0 47 62" fill="none" xmlns="http://www.w3.org/2000/svg">
<path d="M42.3467 54.0819H38.9602L38.0019 26.3105C37.9954 20.8938 35.4799 19.1192 34.5321 18.4506C34.4889 18.4201 30.7848 15.891 30.7848 15.891L31.5284 14.6266C31.8645 14.0554 31.6737 13.3195 31.1024 12.9833L30.3935 12.5664L32.2308 9.44248L33.2988 10.0707C33.4849 10.1801 33.6952 10.2363 33.9074 10.2363C34.0083 10.2363 34.1096 10.2237 34.2088 10.1979C34.5169 10.118 34.7806 9.91893 34.9421 9.64445L36.713 6.63339C37.0491 6.06203 36.8583 5.32647 36.287 4.99022L28.0854 0.165849C27.8107 0.00420467 27.4834 -0.0415679 27.1754 0.0386141C26.8673 0.118476 26.6035 0.317571 26.442 0.592046L24.671 3.60311C24.3349 4.17447 24.5257 4.91003 25.097 5.24628L26.1648 5.8743L24.3274 8.99836L23.6185 8.58128C23.3439 8.4198 23.0168 8.37354 22.7085 8.45405C22.4004 8.53391 22.1367 8.733 21.9752 9.00732L10.3848 28.7131C10.0487 29.2844 10.2395 30.0201 10.8109 30.3564L12.1031 31.1164L9.88292 34.8911C9.72144 35.1656 9.67582 35.4928 9.75568 35.8012C9.83555 36.1093 10.0346 36.3729 10.3091 36.5344L13.1395 38.1989C13.3306 38.3112 13.5401 38.3647 13.7469 38.3647C14.1582 38.3647 14.5589 38.1531 14.7827 37.7728L17.0026 33.9983L18.2947 34.7582C18.4808 34.8677 18.6911 34.9239 18.9033 34.9239C19.0041 34.9239 19.1055 34.9112 19.2047 34.8855C19.5128 34.8056 19.7765 34.6065 19.938 34.3322L21.7327 31.2811L24.6369 32.9894C25.3873 33.4308 25.9211 34.1382 26.1399 34.9813C26.3583 35.8243 26.2357 36.702 25.7942 37.4524L20.6337 46.2265L18.6063 45.034L18.9025 44.5305C19.2386 43.9592 19.0478 43.2234 18.4765 42.8872L3.618 34.148C3.34336 33.9865 3.01607 33.9406 2.70799 34.0209C2.39974 34.1006 2.13599 34.2997 1.97467 34.5742L0.165849 37.6504C-0.170244 38.2217 0.0206886 38.9575 0.592046 39.2936L2.84307 40.6176L1.75589 42.466C1.41979 43.0375 1.61057 43.7732 2.18192 44.1093L10.4684 48.9831C10.6545 49.0926 10.8648 49.1488 11.077 49.1488C11.1778 49.1488 11.2791 49.1361 11.3784 49.1103C11.6865 49.0305 11.9502 48.8314 12.1117 48.5569L13.1989 46.7084L14.4182 47.4254L10.5005 54.0819H4.58514C2.30932 54.0819 0.457769 55.9335 0.457769 58.2093V59.8835C0.457769 60.5466 0.995036 61.0839 1.6581 61.0839H45.2738C45.9368 61.0839 46.4741 60.5466 46.4741 59.8835V58.2093C46.4741 55.9335 44.6226 54.0819 42.3467 54.0819ZM27.9028 2.84387L34.0353 6.45078L33.4814 7.39264L27.3488 3.78588L27.9028 2.84387ZM28.2342 7.09159L30.1618 8.22534L28.3245 11.3492L28.2617 11.3124L26.3969 10.2155L28.2342 7.09159ZM13.3221 35.521L12.5611 35.0734L14.1724 32.3336L14.9334 32.7812L13.3221 35.521ZM21.565 26.8309L18.4774 32.0804L13.0628 28.8957L23.4361 11.2591L28.8507 14.4439L26.5821 18.3008C26.117 18.1638 25.6338 18.0908 25.1465 18.0908C23.3442 18.0908 21.6577 19.0547 20.7446 20.607C19.5353 22.6632 19.9366 25.2287 21.565 26.8309ZM22.814 21.8241C23.2975 21.002 24.1912 20.4914 25.1465 20.4914C25.6245 20.4914 26.0968 20.6206 26.5123 20.8648C27.7963 21.6204 28.2267 23.2794 27.4714 24.5633C26.9879 25.3854 26.0943 25.896 25.139 25.896C24.6609 25.896 24.1886 25.7668 23.7733 25.5224C22.4893 24.7672 22.0589 23.108 22.814 21.8241ZM10.651 46.3053L4.43358 42.6484L4.91211 41.8346L11.1295 45.4914L10.651 46.3053ZM2.84354 37.8327L3.43555 36.826L16.2247 44.3481L15.6327 45.3548L2.84354 37.8327ZM17.3893 47.1032L20.4513 48.9042C20.6374 49.0137 20.8477 49.0698 21.0599 49.0698C21.1607 49.0698 21.262 49.0572 21.3613 49.0316C21.6694 48.9516 21.9331 48.7525 22.0946 48.4783L27.8637 38.6696C28.6303 37.3663 28.8433 35.8422 28.4639 34.3786C28.0844 32.9149 27.1574 31.6867 25.8542 30.9202L22.95 29.2118L23.6259 28.0628C24.1148 28.2153 24.6246 28.2968 25.1393 28.2968C26.9417 28.2968 28.6284 27.3327 29.5411 25.7804C30.7648 23.6998 30.3389 21.0985 28.662 19.5006L29.5655 17.9647C29.5655 17.9647 33.1003 20.378 33.1485 20.4121C33.8825 20.9298 35.6015 22.1428 35.6015 26.3314C35.6015 26.3454 35.6018 26.3591 35.6023 26.3729L36.5587 54.0819H13.2853L17.3893 47.1032ZM44.0734 58.6832H2.85843V58.2093C2.85843 57.2572 3.63304 56.4826 4.58514 56.4826H42.3467C43.2988 56.4826 44.0734 57.2572 44.0734 58.2093V58.6832Z" fill="#5D5C75"/>
</svg>
