<svg width="70" height="41" viewBox="0 0 70 41" fill="none" xmlns="http://www.w3.org/2000/svg">
<path d="M44.8553 26.1676C45.5548 25.5301 45.9974 24.6138 45.9974 23.5937C45.9974 21.6773 44.4454 20.118 42.5309 20.1053C42.5309 20.1053 42.5236 20.1053 42.5199 20.1053C42.5163 20.1053 42.5108 20.1035 42.5072 20.1035C40.7457 20.118 39.2939 21.4405 39.0734 23.1474L31.4154 23.162C31.1931 21.4587 29.7413 20.1362 27.9816 20.1253L27.9579 20.1235C26.0434 20.1381 24.4914 21.6974 24.4914 23.6119C24.4914 24.632 24.9341 25.5483 25.6336 26.1877C24.9268 26.827 24.4805 27.747 24.4805 28.7725C24.4805 29.891 25.0087 30.8874 25.8285 31.525C26.4132 31.9822 27.1491 32.2555 27.9452 32.2609C27.9452 32.2609 27.9525 32.2609 27.9579 32.2609C27.9616 32.2609 27.9652 32.2627 27.9689 32.2627C28.7667 32.2536 29.5008 31.9804 30.0856 31.525C30.7942 30.973 31.2824 30.1533 31.4026 29.2188L39.0862 29.2043C39.2082 30.1479 39.7074 30.973 40.4287 31.525C41.0098 31.9695 41.733 32.2354 42.5199 32.2409L42.5436 32.2427C43.3287 32.2372 44.0537 31.9695 44.6348 31.525C45.4691 30.8874 46.0083 29.8819 46.0083 28.7525C46.0083 27.7269 45.562 26.807 44.8553 26.1676ZM29.3916 27.4009L29.5846 28.472C29.6029 28.574 29.612 28.6796 29.612 28.7816C29.6083 29.6924 28.8687 30.4338 27.9579 30.4393C27.0435 30.4338 26.3021 29.6888 26.3021 28.7725C26.3021 27.8563 27.0489 27.1039 27.9689 27.1039L27.9816 27.1021V25.2805C27.0617 25.2805 26.313 24.5318 26.313 23.6119C26.313 22.692 27.0544 21.9524 27.9689 21.9451C28.8797 21.9524 29.6193 22.692 29.6247 23.6028C29.6247 23.7066 29.6156 23.8104 29.5974 23.9125L29.4025 24.989L41.0863 24.9654L40.8914 23.8942C40.8732 23.7922 40.8641 23.6866 40.8641 23.5846C40.8696 22.6738 41.6091 21.9324 42.5199 21.9269C43.4344 21.9324 44.1758 22.6774 44.1758 23.5937C44.1758 24.5099 43.4271 25.2623 42.5072 25.2623V27.0839C42.5072 27.0839 42.5163 27.0821 42.5199 27.0821V27.0857C43.4399 27.0857 44.1867 27.8344 44.1867 28.7525C44.1867 29.6706 43.4453 30.4138 42.5309 30.4211C41.6201 30.4138 40.8805 29.6742 40.8768 28.7634C40.8768 28.6596 40.886 28.5558 40.9042 28.4537L41.0991 27.3772L29.3916 27.4009Z" fill="#5D5C75"/>
<path d="M66.4602 34.199L60.2484 12.5182H57.6053C57.0351 10.7257 55.3738 9.47788 53.4429 9.47788C53.2188 9.47788 52.9966 9.49427 52.7798 9.52706C51.9109 6.52503 49.1238 4.37006 45.9196 4.37006C45.1946 4.37006 44.4769 4.483 43.7956 4.69613C43.5041 2.05843 41.2617 0 38.5475 0C36.9026 0 35.3542 0.776009 34.3651 2.06025C33.4087 1.2132 32.17 0.737755 30.8712 0.737755C27.9985 0.737755 25.6559 3.04574 25.5958 5.90386C24.4792 5.38288 23.2314 5.10599 21.9398 5.10599C17.557 5.10599 13.9903 8.31022 13.9903 12.2486C13.9903 12.3378 13.9921 12.4289 13.9958 12.5182H10.0647L3.54514 34.199H0.572266V40.1667H69.4294V34.199H66.4602ZM10.1103 18.6971H53.0276V16.8755H10.6586L11.4218 14.338H19.0325V12.5163H15.8265C15.821 12.4271 15.8137 12.3378 15.8137 12.2467C15.8137 9.31211 18.5626 6.92579 21.9417 6.92579C23.5866 6.92579 25.1331 7.48867 26.2971 8.5106C26.7799 8.93139 27.177 9.42323 27.4794 9.96971L29.0733 9.08805C28.7035 8.41952 28.2299 7.81656 27.6634 7.29193C27.5012 6.88936 27.4156 6.46128 27.4156 6.01498C27.4156 4.10775 28.9658 2.55755 30.873 2.55755C31.8768 2.55755 32.8276 2.9911 33.4871 3.75253C33.5727 3.84908 33.6583 3.96202 33.7494 4.095V4.10228H33.7548C33.7548 4.1041 33.7567 4.10593 33.7585 4.10775L33.7694 4.10046L35.3542 3.94927C35.4107 3.81265 35.4781 3.67967 35.5546 3.54669C36.1703 2.48104 37.3179 1.8198 38.5475 1.8198C40.4548 1.8198 42.0068 3.37181 42.0068 5.27905C42.0068 5.36831 42.0013 5.45757 41.994 5.54683C40.7152 6.38841 39.7316 7.62165 39.2051 9.06801L40.9174 9.69283C41.351 8.50513 42.1944 7.50871 43.2965 6.88389C44.0871 6.43031 44.9942 6.18986 45.9196 6.18986C48.5664 6.18986 50.8307 8.16449 51.1895 10.7822L51.297 11.5691H52.277L52.4465 11.498C52.7616 11.3651 53.0968 11.2977 53.4429 11.2977C54.3573 11.2977 55.168 11.7768 55.6197 12.5163H21.1274V14.338H58.8768L59.6036 16.8755H55.8037V18.6971H60.1264L64.511 34.006H5.50703L10.1103 18.6971ZM67.6078 38.345H2.39388V36.0207H67.6078V38.345Z" fill="#5D5C75"/>
</svg>
