<svg width="69" height="62" viewBox="0 0 69 62" fill="none" xmlns="http://www.w3.org/2000/svg">
<path d="M30.1949 49.3391C29.2007 49.3391 28.2237 49.063 27.3606 48.5244C26.1386 47.7649 25.2893 46.5739 24.9613 45.1723L22.2237 33.3967L21.0948 34.4876C20.4907 35.0745 19.638 35.3058 18.8198 35.109C18.0016 34.9123 17.3492 34.315 17.0764 33.5176L14.4044 25.6672C14.2629 25.2495 14.3147 24.7903 14.5494 24.4175L18.9406 17.368C19.1478 17.0366 19.4757 16.8018 19.8555 16.7155L25.5758 15.3864C26.3664 15.2034 27.1535 15.6937 27.3399 16.4842C27.4711 17.0504 27.7093 17.5786 28.0476 18.0515C28.386 18.5245 28.8071 18.9215 29.3008 19.2253C29.7945 19.5326 30.3365 19.7362 30.9095 19.8329C31.4826 19.9296 32.0591 19.9088 32.6288 19.7777C33.1949 19.6465 33.7231 19.4083 34.1961 19.07C34.669 18.7316 35.0626 18.3105 35.3698 17.8168C35.6771 17.3231 35.8808 16.7811 35.9774 16.208C36.0741 15.635 36.0534 15.055 35.9222 14.4888C35.8324 14.1091 35.9015 13.7121 36.1052 13.3807C36.3123 13.0493 36.6402 12.8145 37.02 12.7282L42.7403 11.3991C43.1201 11.3093 43.5171 11.3784 43.8485 11.5821L50.898 15.9733C51.2708 16.2046 51.5228 16.5947 51.5781 17.0297L52.6414 25.2529C52.7484 26.0883 52.4273 26.91 51.7783 27.4485C51.1293 27.9871 50.2662 28.1528 49.4618 27.8973L47.967 27.414L50.7046 39.1896C51.3778 42.0791 49.5723 44.979 46.6793 45.6522L31.4274 49.1976C31.02 49.2908 30.6057 49.3391 30.1984 49.3391H30.1949ZM23.0695 29.0711C23.2076 29.0711 23.3491 29.0918 23.4838 29.1298C23.9913 29.2782 24.3779 29.689 24.4987 30.2069L27.8232 44.506C27.9717 45.1412 28.3583 45.6832 28.9141 46.0285C29.47 46.3737 30.1259 46.4841 30.7611 46.3357L46.0131 42.7903C47.3284 42.4865 48.1465 41.1677 47.8428 39.8524L44.5182 25.5532C44.3974 25.0389 44.5666 24.4969 44.9532 24.1413C45.3433 23.7823 45.8957 23.6614 46.3963 23.8237L49.6241 24.8663L48.7472 18.0999L42.8059 14.3991L38.9636 15.2932C38.9774 15.7593 38.9429 16.2253 38.8669 16.6914C38.7081 17.6476 38.3698 18.5487 37.8554 19.3703C37.3411 20.1919 36.6817 20.8962 35.8946 21.4589C35.1075 22.0216 34.2271 22.4186 33.2847 22.6396C32.3388 22.8605 31.3756 22.8881 30.4228 22.7328C29.4665 22.574 28.5655 22.2357 27.7438 21.7213C26.9222 21.2069 26.218 20.551 25.6552 19.7604C25.3791 19.3772 25.1443 18.9698 24.951 18.5487L21.1086 19.4428L17.4079 25.3841L19.6069 31.8467L22.0442 29.4888C22.3204 29.2195 22.6898 29.0745 23.0661 29.0745L23.0695 29.0711Z" fill="#5D5C75"/>
<path d="M6.14296 33.2001C6.76091 33.2001 7.3616 32.9516 7.80003 32.5131L11.2385 29.0747C12.0049 28.3083 12.2741 27.1449 11.8426 26.1472C11.4007 25.1288 10.403 24.6973 8.79082 24.9217L8.74595 24.9666C11.3041 13.374 21.6642 4.67087 34.0163 4.67087C43.8552 4.67087 52.7171 10.1358 57.1428 18.9286C57.7228 20.0816 59.1244 20.5442 60.2774 19.9643C61.4305 19.3843 61.8931 17.9827 61.3131 16.8296C58.8068 11.8515 54.9852 7.65015 50.2591 4.67432C45.4018 1.61565 39.785 0 34.0163 0C18.9473 0 6.39497 10.9712 3.91972 25.3429C3.04631 24.5695 1.7172 24.504 0.819617 25.2704C-0.202244 26.1438 -0.274741 27.68 0.636649 28.6466C0.674623 28.6846 1.55839 29.6236 2.48705 30.5799C3.0394 31.1495 3.49165 31.6052 3.83342 31.9366C4.52041 32.6063 5.11074 33.1829 6.11189 33.1967C6.12225 33.1967 6.13261 33.1967 6.14296 33.1967V33.2001Z" fill="#5D5C75"/>
<path d="M67.931 29.2164L63.6364 24.9218C63.1911 24.4765 62.5732 24.2244 61.9449 24.2348C61.5686 24.2383 61.251 24.3246 60.961 24.4661C60.9195 24.4868 60.8781 24.5075 60.8367 24.5317L60.816 24.5421C60.7193 24.5938 60.6295 24.6525 60.5432 24.7181C60.2394 24.9356 59.9598 25.2083 59.6629 25.4983C59.3212 25.8297 58.8689 26.2889 58.3166 26.8551C57.3914 27.8113 56.5041 28.7469 56.4662 28.7883C55.5824 29.7273 55.6238 31.2049 56.5628 32.0886C57.4949 32.9655 58.9552 32.9275 59.8424 32.0092C59.076 45.5972 47.7838 56.4131 34.0094 56.4131C22.5825 56.4131 12.6435 49.084 9.28102 38.1749C8.90127 36.9425 7.59287 36.252 6.36388 36.6318C5.13488 37.0115 4.44098 38.3199 4.82073 39.5489C6.7022 45.6559 10.5687 51.1381 15.7091 54.9873C21.0221 58.9712 27.3535 61.077 34.0128 61.077C50.2349 61.077 63.5398 48.3659 64.4961 32.3821L64.6238 32.5098C65.0795 32.9655 65.6767 33.1934 66.274 33.1934C66.8712 33.1934 67.4684 32.9655 67.9241 32.5098C68.8424 31.6019 68.8424 30.1243 67.9276 29.2129L67.931 29.2164Z" fill="#5D5C75"/>
</svg>
