<svg width="67" height="69" viewBox="0 0 67 69" fill="none" xmlns="http://www.w3.org/2000/svg">
<path d="M51.1554 65.2953H13.1284V69H51.1554V65.2953Z" fill="#5D5C75"/>
<path d="M45.723 62.5168V58.8121H33.9527V41.2148H41.1959V38.4362H23.9932V41.2148H31.2365V58.8121H18.5608V62.5168H45.723Z" fill="#5D5C75"/>
<path d="M51.1554 39.8255C46.9091 39.8255 43.4595 36.2968 43.4595 31.953C43.4595 27.6093 46.9091 24.0805 51.1554 24.0805C55.4018 24.0805 58.8514 27.6093 58.8514 31.953C58.8514 36.2968 55.4018 39.8255 51.1554 39.8255ZM51.1554 26.8591C48.412 26.8591 46.1757 29.1467 46.1757 31.953C46.1757 34.7593 48.412 37.047 51.1554 37.047C53.8988 37.047 56.1351 34.7593 56.1351 31.953C56.1351 29.1467 53.8988 26.8591 51.1554 26.8591Z" fill="#5D5C75"/>
<path d="M13.1284 39.8255C8.88203 39.8255 5.43243 36.2968 5.43243 31.953C5.43243 27.6093 8.88203 24.0805 13.1284 24.0805C17.3747 24.0805 20.8243 27.6093 20.8243 31.953C20.8243 36.2968 17.3747 39.8255 13.1284 39.8255ZM13.1284 26.8591C10.385 26.8591 8.14865 29.1467 8.14865 31.953C8.14865 34.7593 10.385 37.047 13.1284 37.047C15.8718 37.047 18.1081 34.7593 18.1081 31.953C18.1081 29.1467 15.8718 26.8591 13.1284 26.8591Z" fill="#5D5C75"/>
<path d="M39.6932 5.55705C40.2998 5.55705 40.8521 5.9553 41.0603 6.53879L44.0301 14.8188H12.0874L15.0209 6.53879C15.2291 5.94604 15.7814 5.55705 16.3971 5.55705H39.6932ZM39.6932 3.7047H16.3971C15.0209 3.7047 13.7895 4.58456 13.3187 5.90899L9.49792 16.6711H46.6195L42.7625 5.89973C42.2917 4.58456 41.0603 3.7047 39.6932 3.7047Z" fill="#5D5C75"/>
<path d="M53.5005 16.2081H3.01507L10.7382 1.40779C11.1909 0.537181 12.0782 0 13.0379 0H44.2382C45.2341 0 46.1576 0.592752 46.5832 1.50966L53.5005 16.2081ZM50.6213 14.3557L44.9534 2.31544C44.8176 2.03758 44.537 1.85235 44.2382 1.85235H13.0379C12.7391 1.85235 12.4766 2.01906 12.3317 2.28765L6.03007 14.3557H50.6213Z" fill="#5D5C75"/>
<path d="M44.7177 30.5638H19.3663V32.4161H44.7177V30.5638Z" fill="#5D5C75"/>
<path d="M63.3059 32.4161H57.2759V30.5638H63.3059C64.3472 30.5638 65.1892 29.7024 65.1892 28.6373V25.1271C65.1892 20.4592 61.477 16.6711 56.9228 16.6711H3.69405C2.65284 16.6711 1.81081 17.5325 1.81081 18.5976V28.6373C1.81081 29.7024 2.65284 30.5638 3.69405 30.5638H6.88108V32.4161H3.69405C1.65689 32.4161 0 30.7212 0 28.6373V18.5976C0 16.5137 1.65689 14.8188 3.69405 14.8188H56.9228C62.482 14.8188 67 19.4404 67 25.1271V28.6373C67 30.7212 65.3431 32.4161 63.3059 32.4161Z" fill="#5D5C75"/>
<path d="M28.973 4.16779H27.1622V16.6711H28.973V4.16779Z" fill="#5D5C75"/>
</svg>
