<svg width="60" height="60" viewBox="0 0 60 60" fill="none" xmlns="http://www.w3.org/2000/svg">
<g clip-path="url(#clip0_998_2751)">
<path d="M47.3793 43.0637C50.069 39.4492 51.7241 34.9053 51.7241 30.0516C51.7241 25.7143 50.4828 21.79 48.3103 18.3821L53.3793 13.6317L54.5172 14.7676C54.7241 14.9742 54.931 15.0775 55.2414 15.0775C55.5517 15.0775 55.7586 14.9742 55.9655 14.7676L59.6897 11.0499C60.1034 10.6368 60.1034 10.0172 59.6897 9.60413L50.3793 0.309811C49.9655 -0.10327 49.3448 -0.10327 48.931 0.309811L45.2069 4.02754C45 4.23408 44.8966 4.44062 44.8966 4.75043C44.8966 5.06024 45 5.26678 45.2069 5.47332L46.3448 6.60929L41.5862 11.6695C40.4483 10.9466 39.1034 10.2238 37.8621 9.7074C37.8621 9.7074 37.7586 9.7074 37.7586 9.60413C35.3793 8.88124 32.6897 8.36489 30 8.36489C25.6552 8.36489 21.7241 9.60413 18.3103 11.7728L13.5517 6.71256L14.6897 5.57659C15.1034 5.16351 15.1034 4.54389 14.6897 4.13081L10.9655 0.413081C10.8621 0.20654 10.5517 0.10327 10.3448 0.10327C10.1379 0.10327 9.82759 0.20654 9.62069 0.413081L0.310345 9.7074C0.103448 9.81067 0 10.1205 0 10.4303C0 10.7401 0.103448 10.9466 0.310345 11.1532L4.03448 14.8709C4.24138 15.0775 4.55172 15.1807 4.75862 15.1807C4.96552 15.1807 5.27586 15.0775 5.48276 14.8709L6.62069 13.7349L11.6897 18.4854C9.51724 21.79 8.27586 25.7143 8.27586 30.0516V31.0843C8.17241 31.2909 8.17241 31.4974 8.27586 31.8072C8.58621 36.0413 10.1379 39.9656 12.5172 43.167L0.62069 55.9725C-0.206897 56.9019 -0.206897 58.3477 0.724138 59.2771C1.24138 59.7935 1.75862 60 2.37931 60C3 60 3.51724 59.7935 4.03448 59.3804L16.9655 47.401C20.5862 50.0861 25.1379 51.7384 30 51.7384C34.8621 51.7384 39.4138 50.0861 43.0345 47.401L55.9655 59.3804C56.3793 59.7935 57 60 57.6207 60C58.2414 60 58.8621 59.7935 59.2759 59.2771C60.2069 58.3477 60.2069 56.9019 59.3793 55.9725L47.3793 43.0637ZM40.3448 46.6781V40.6885L48.7241 35.8348C47.3793 40.3787 44.2759 44.1997 40.3448 46.6781ZM14.4828 42.1343L19.6552 39.2427V46.7814C17.6897 45.4389 15.931 43.8898 14.4828 42.1343ZM11.6897 37.074L32.7931 25.9208H39L13.3448 40.3787C12.7241 39.346 12.1034 38.3133 11.6897 37.074ZM21.7241 12.2892V17.8657L11.5862 23.1325C13.4483 18.3821 17.069 14.4578 21.7241 12.2892ZM10.7586 25.9208C10.8621 25.9208 10.9655 25.9208 11.069 25.8176L37.5517 11.9793C38.8966 12.599 40.2414 13.3219 41.3793 14.148L10.3448 29.6386C10.3448 28.3993 10.5517 27.1601 10.7586 25.9208ZM28.9655 33.9759L32.2759 32.117H40.7586L28.9655 38.6231V33.9759ZM35.8966 30.0516L43.2414 25.9208H49.2414C49.5517 27.2633 49.6552 28.6059 49.6552 30.0516H35.8966ZM26.5862 23.8554L32.8966 20.7573H47.2759C47.7931 21.79 48.2069 22.8227 48.6207 23.8554H26.5862ZM46.0345 18.6919H37.0345L43.2414 15.5938C44.2759 16.5232 45.2069 17.5559 46.0345 18.6919ZM10.4483 31.9105L22.5517 25.9208H28.4483L11.069 35.1119C10.7586 34.0792 10.5517 33.0465 10.4483 31.9105ZM21.7241 38.1067L26.8966 35.1119V49.3632C25.0345 49.0534 23.2759 48.537 21.7241 47.8141V38.1067ZM28.9655 40.9983L44.6897 32.2203C44.7931 32.2203 44.7931 32.117 44.7931 32.117H49.4483C49.4483 32.5301 49.3448 32.8399 49.2414 33.253C49.1379 33.253 49.0345 33.253 49.0345 33.3563L28.9655 44.8193V40.9983ZM49.6552 2.58176L57.5172 10.4303L55.2414 12.7022L48.6207 5.98967L47.4828 4.8537L49.6552 2.58176ZM47.8966 8.15835L51.931 12.1859L47.069 16.6265C46.0345 15.284 44.7931 14.0448 43.3448 12.9088L47.8966 8.15835ZM34.8621 11.0499L23.7931 16.833V11.463C25.7586 10.8434 27.8276 10.4303 30 10.4303C31.6552 10.4303 33.3103 10.6368 34.8621 11.0499ZM4.75862 12.599L2.48276 10.4303L10.3448 2.58176L12.6207 4.8537L5.89655 11.463L4.75862 12.599ZM8.06897 12.1859L12.1034 8.15835L16.5517 13.012C15.2069 14.0448 13.9655 15.284 12.8276 16.7298L8.06897 12.1859ZM2.58621 57.8313C2.48276 57.9346 2.27586 57.9346 2.17241 57.8313C2.06897 57.7281 2.06897 57.5215 2.17241 57.4182L13.9655 44.716C14.3793 45.2324 14.8966 45.6454 15.3103 46.0585L2.58621 57.8313ZM28.9655 49.5697V47.0912L38.2759 41.8244V47.8141C35.7931 48.9501 32.8966 49.673 30 49.673C29.6897 49.673 29.2759 49.673 28.9655 49.5697ZM57.8276 57.8313C57.7241 57.9346 57.5172 57.9346 57.4138 57.8313L44.5862 46.0585C45.1034 45.6454 45.5172 45.1291 45.931 44.716L57.7241 57.4182C57.931 57.5215 57.931 57.7281 57.8276 57.8313Z" fill="#5D5C75"/>
</g>
<defs>
<clipPath id="clip0_998_2751">
<rect width="60" height="60" fill="white"/>
</clipPath>
</defs>
</svg>
