<svg width="66" height="65" viewBox="0 0 66 65" fill="none" xmlns="http://www.w3.org/2000/svg">
<path d="M30.5106 32.5001V32.5586C30.509 32.5041 30.5098 32.4489 30.513 32.3953C30.5114 32.4302 30.5106 32.4651 30.5106 32.5001ZM34.5706 32.3953C34.5739 32.4489 34.5747 32.5041 34.5731 32.5586V32.5001C34.5731 32.4651 34.5723 32.4302 34.5706 32.3953Z" fill="#5D5C75"/>
<path d="M34.5706 32.3953C34.5739 32.4489 34.5747 32.5041 34.5731 32.5586V32.5001C34.5731 32.4651 34.5723 32.4302 34.5706 32.3953ZM30.5106 32.5001V32.5586C30.509 32.5041 30.5098 32.4489 30.513 32.3953C30.5114 32.4302 30.5106 32.4651 30.5106 32.5001Z" fill="#5D5C75"/>
<path d="M30.5106 32.5001V32.5586C30.509 32.5041 30.5098 32.4489 30.513 32.3953C30.5114 32.4302 30.5106 32.4651 30.5106 32.5001ZM34.5706 32.3953C34.5739 32.4489 34.5747 32.5041 34.5731 32.5586V32.5001C34.5731 32.4651 34.5723 32.4302 34.5706 32.3953Z" fill="#5D5C75"/>
<path d="M34.5706 32.3953C34.5739 32.4489 34.5747 32.5041 34.5731 32.5586V32.5001C34.5731 32.4651 34.5723 32.4302 34.5706 32.3953ZM30.5106 32.5001V32.5586C30.509 32.5041 30.5098 32.4489 30.513 32.3953C30.5114 32.4302 30.5106 32.4651 30.5106 32.5001Z" fill="#5D5C75"/>
<path d="M30.5106 32.5001V32.5586C30.509 32.5041 30.5098 32.4489 30.513 32.3953C30.5114 32.4302 30.5106 32.4651 30.5106 32.5001ZM34.5706 32.3953C34.5739 32.4489 34.5747 32.5041 34.5731 32.5586V32.5001C34.5731 32.4651 34.5723 32.4302 34.5706 32.3953Z" fill="#5D5C75"/>
<path d="M34.5706 32.3953C34.5739 32.4489 34.5747 32.5041 34.5731 32.5586V32.5001C34.5731 32.4651 34.5723 32.4302 34.5706 32.3953ZM30.5106 32.5586C30.509 32.5041 30.5098 32.4489 30.513 32.3953C30.5114 32.4302 30.5106 32.4651 30.5106 32.5001V32.5586Z" fill="#5D5C75"/>
<path d="M61.6567 18.9011C61.6567 18.8849 61.6559 18.8694 61.6551 18.854C61.6551 18.8507 61.6551 18.8483 61.6551 18.8451C61.6534 18.8142 61.651 18.7841 61.6478 18.7541C61.6478 18.7516 61.6469 18.7484 61.6469 18.7459C61.6469 18.7427 61.6461 18.7394 61.6461 18.7362C61.6421 18.7037 61.638 18.6712 61.6331 18.6379C61.6274 18.6029 61.6209 18.5688 61.6136 18.5339C61.599 18.4656 61.5811 18.3974 61.5592 18.3307C61.5283 18.2357 61.4901 18.1414 61.4438 18.0496C61.4324 18.0277 61.4219 18.0057 61.4105 17.9846C61.4097 17.9846 61.4089 17.983 61.4089 17.9822C61.3983 17.9635 61.3878 17.9448 61.3772 17.9269C61.3561 17.8904 61.3333 17.8554 61.3098 17.8205C61.2992 17.8051 61.2886 17.7896 61.2781 17.775C61.2643 17.7563 61.2504 17.7376 61.2366 17.7189C61.1789 17.6426 61.1156 17.5719 61.0481 17.5061C61.0156 17.4752 60.9831 17.4451 60.949 17.4159C60.9311 17.4004 60.9124 17.3858 60.8946 17.3712C60.8767 17.3557 60.858 17.3411 60.8385 17.3281C60.8198 17.3135 60.8003 17.2997 60.7808 17.2867C60.7613 17.2729 60.7418 17.2599 60.7223 17.2477C60.6793 17.2192 60.6354 17.1932 60.5899 17.1697C60.5736 17.1607 60.5574 17.1518 60.5403 17.1437C60.5265 17.1364 60.5119 17.1299 60.4973 17.1226L47.0276 10.3877C47.0041 10.3756 46.9797 10.3634 46.9561 10.352L33.4524 3.60012C32.8804 3.31412 32.2076 3.31412 31.6356 3.60012L4.58994 17.1226C4.57531 17.1299 4.56069 17.1364 4.54688 17.1437C4.52981 17.1518 4.51356 17.1607 4.49731 17.1697C4.45181 17.1932 4.40794 17.2192 4.36487 17.2477C4.34537 17.2599 4.32588 17.2729 4.30638 17.2867C4.28688 17.2997 4.26737 17.3135 4.24869 17.3281C4.22919 17.3411 4.2105 17.3557 4.19262 17.3712C4.17475 17.3858 4.15606 17.4004 4.13819 17.4159C4.10406 17.4451 4.07156 17.4752 4.03906 17.5061C3.97163 17.5719 3.90825 17.6426 3.85056 17.7189C3.83675 17.7376 3.82294 17.7563 3.80912 17.775C3.79856 17.7896 3.788 17.8051 3.77744 17.8205C3.75387 17.8554 3.73113 17.8904 3.71 17.9269C3.69944 17.9448 3.68888 17.9635 3.67831 17.9822C3.67831 17.983 3.67831 17.9838 3.67669 17.9846C3.66531 18.0057 3.65475 18.0277 3.64338 18.0496C3.59706 18.1414 3.55887 18.2357 3.528 18.3307C3.50606 18.3974 3.48819 18.4656 3.47356 18.5339C3.46706 18.5664 3.46056 18.5981 3.45569 18.6306C3.45487 18.633 3.45487 18.6362 3.45406 18.6387C3.44919 18.6712 3.44512 18.7037 3.44106 18.7362C3.44106 18.7394 3.44025 18.7427 3.44025 18.7459C3.44025 18.7484 3.43944 18.7516 3.43944 18.7541C3.43619 18.7841 3.43375 18.8142 3.43212 18.8451C3.43212 18.8483 3.43213 18.8507 3.43131 18.854C3.4305 18.8694 3.42969 18.8849 3.42969 18.9011C3.42969 18.9198 3.42969 18.9393 3.42969 18.958V46.0419C3.42969 46.8113 3.86437 47.5141 4.55256 47.8586L31.6356 61.3997C31.6949 61.4298 31.7551 61.4566 31.8176 61.4794C31.8485 61.4916 31.8794 61.5029 31.9103 61.5127C31.9289 61.5192 31.9476 61.5249 31.9655 61.5306C31.9842 61.5362 32.0037 61.5419 32.0232 61.546C32.037 61.5501 32.05 61.5533 32.0638 61.5566C32.076 61.5598 32.0882 61.5631 32.1004 61.5647C32.1231 61.5704 32.1459 61.5753 32.1694 61.5793C32.2288 61.5907 32.2889 61.5996 32.3498 61.6045C32.3758 61.6077 32.4018 61.6094 32.427 61.611C32.4368 61.6118 32.4465 61.6118 32.4554 61.6118C32.4847 61.6134 32.5148 61.6143 32.544 61.6143C32.5733 61.6143 32.6033 61.6134 32.6326 61.6118C32.6415 61.6118 32.6513 61.6118 32.661 61.611C32.6862 61.6094 32.7122 61.6077 32.7382 61.6045C32.7991 61.5996 32.8593 61.5907 32.9186 61.5793C32.9413 61.5753 32.9649 61.5704 32.9876 61.5647C32.9998 61.5631 33.012 61.5598 33.0242 61.5566C33.038 61.5533 33.051 61.5501 33.0648 61.546C33.0843 61.5419 33.1038 61.5362 33.1225 61.5306C33.1404 61.5249 33.1591 61.5192 33.1778 61.5127C33.2094 61.5029 33.2403 61.4924 33.2704 61.4794C33.3329 61.4566 33.3931 61.4298 33.4524 61.3997L60.5354 47.8586C61.2236 47.5141 61.6583 46.8113 61.6583 46.0419V18.958C61.6583 18.9393 61.6583 18.9198 61.6575 18.9011H61.6567ZM32.5432 7.68781L41.5433 12.1874L19.0021 23.4584L10.0028 18.9588L32.5432 7.68781ZM30.5119 33.7552V56.2964L7.49137 44.7866V22.2446L18.0685 27.5331C18.0888 27.5437 18.1099 27.5542 18.1302 27.564L30.5119 33.7552V32.5584C30.5201 32.8452 30.5891 33.1345 30.7264 33.4083C30.9263 33.8089 31.2416 34.1136 31.6104 34.3045L30.5119 33.7552ZM32.8885 34.5019C32.9559 34.4897 33.0226 34.4743 33.0884 34.4572C33.0226 34.4751 32.9559 34.4906 32.8885 34.5019ZM33.4239 30.6694C33.1574 30.541 32.8584 30.4687 32.5432 30.4687C32.2279 30.4687 31.9289 30.541 31.6624 30.6694L32.5432 30.229L23.5439 25.7294L46.0851 14.4584L55.0844 18.958L32.5432 30.229L33.4239 30.6694ZM57.595 44.7866L34.5744 56.2964V33.7552L57.595 22.2446V44.7866Z" fill="#5D5C75"/>
<path d="M3.52709 18.3309C3.50516 18.3976 3.48728 18.4658 3.47266 18.5341C3.48647 18.4658 3.50434 18.3984 3.52709 18.3309Z" fill="#5D5C75"/>
<path d="M31.6102 34.3048L30.5117 33.7555V32.5587C30.5198 32.8455 30.5889 33.1348 30.7262 33.4086C30.9261 33.8092 31.2413 34.1138 31.6102 34.3048Z" fill="#5D5C75"/>
<path d="M33.4236 30.6695C33.1571 30.5411 32.8581 30.4688 32.5429 30.4688C32.2276 30.4688 31.9286 30.5411 31.6621 30.6695L32.5429 30.2291L33.4236 30.6695Z" fill="#5D5C75"/>
<path d="M34.5508 32.1907C34.5613 32.2581 34.5687 32.3264 34.5719 32.3954C34.5678 32.3264 34.5613 32.2581 34.5508 32.1907Z" fill="#5D5C75"/>
<path d="M34.5727 32.5002V32.5587C34.5744 32.5043 34.5736 32.449 34.5703 32.3954C34.5719 32.4303 34.5727 32.4653 34.5727 32.5002Z" fill="#5D5C75"/>
<path d="M34.5723 32.3953C34.5755 32.4489 34.5763 32.5041 34.5747 32.5586V32.5001C34.5747 32.4651 34.5739 32.4302 34.5723 32.3953Z" fill="#5D5C75"/>
<path d="M30.5125 32.5001V32.5586C30.5109 32.5041 30.5117 32.4489 30.515 32.3953C30.5133 32.4302 30.5125 32.4651 30.5125 32.5001ZM34.5726 32.3953C34.5758 32.4489 34.5767 32.5041 34.575 32.5586V32.5001C34.575 32.4651 34.5742 32.4302 34.5726 32.3953Z" fill="#5D5C75"/>
<path d="M34.5726 32.3953C34.5758 32.4489 34.5767 32.5041 34.575 32.5586V32.5001C34.575 32.4651 34.5742 32.4302 34.5726 32.3953ZM30.5125 32.5001V32.5586C30.5109 32.5041 30.5117 32.4489 30.515 32.3953C30.5133 32.4302 30.5125 32.4651 30.5125 32.5001Z" fill="#5D5C75"/>
<path d="M30.5125 32.5001V32.5586C30.5109 32.5041 30.5117 32.4489 30.515 32.3953C30.5133 32.4302 30.5125 32.4651 30.5125 32.5001ZM34.5726 32.3953C34.5758 32.4489 34.5767 32.5041 34.575 32.5586V32.5001C34.575 32.4651 34.5742 32.4302 34.5726 32.3953Z" fill="#5D5C75"/>
<path d="M34.5726 32.3953C34.5758 32.4489 34.5767 32.5041 34.575 32.5586V32.5001C34.575 32.4651 34.5742 32.4302 34.5726 32.3953ZM30.5125 32.5001V32.5586C30.5109 32.5041 30.5117 32.4489 30.515 32.3953C30.5133 32.4302 30.5125 32.4651 30.5125 32.5001Z" fill="#5D5C75"/>
<path d="M31.6102 34.3048L30.5117 33.7555V32.5587C30.5198 32.8455 30.5889 33.1348 30.7262 33.4086C30.9261 33.8092 31.2413 34.1138 31.6102 34.3048Z" fill="#5D5C75"/>
<path d="M33.0885 34.4575C33.0227 34.4754 32.9561 34.4908 32.8887 34.5022C32.9561 34.49 33.0227 34.4746 33.0885 34.4575Z" fill="#5D5C75"/>
<path d="M34.5723 32.3954C34.5755 32.449 34.5763 32.5043 34.5747 32.5587V32.5002C34.5747 32.4653 34.5739 32.4303 34.5723 32.3954Z" fill="#5D5C75"/>
<path d="M30.515 32.3954C30.5117 32.449 30.5109 32.5043 30.5125 32.5587V32.5002C30.5125 32.4653 30.5133 32.4303 30.515 32.3954Z" fill="#5D5C75"/>
<path d="M33.0885 34.4575C33.0227 34.4754 32.9561 34.4908 32.8887 34.5022C32.9561 34.49 33.0227 34.4746 33.0885 34.4575Z" fill="#5D5C75"/>
<path d="M33.4256 30.6695C33.1591 30.5411 32.8601 30.4688 32.5448 30.4688C32.2296 30.4688 31.9306 30.5411 31.6641 30.6695L32.5448 30.2291L33.4256 30.6695Z" fill="#5D5C75"/>
<path d="M34.5527 32.1907C34.5633 32.2581 34.5706 32.3264 34.5739 32.3954C34.5698 32.3264 34.5633 32.2581 34.5527 32.1907Z" fill="#5D5C75"/>
<path d="M34.5747 32.5002V32.5587C34.5763 32.5043 34.5755 32.449 34.5723 32.3954C34.5739 32.4303 34.5747 32.4653 34.5747 32.5002Z" fill="#5D5C75"/>
<path d="M61.613 18.5341C61.5984 18.4658 61.5805 18.3976 61.5586 18.3309C61.5813 18.3984 61.5992 18.4658 61.613 18.5341Z" fill="#5D5C75"/>
</svg>
