<svg width="79" height="63" viewBox="0 0 79 63" fill="none" xmlns="http://www.w3.org/2000/svg">
<g clip-path="url(#clip0_998_2728)">
<path d="M37.6658 59.2761C37.36 59.2761 37.0542 59.1742 36.8028 58.9703L22.9538 47.6492H9.90663C9.66879 47.6492 9.43095 47.588 9.22709 47.4657C9.00284 47.3366 6.97782 46.0863 5.6867 42.6614C4.17812 38.6657 10.0222 22.4791 11.0958 20.0599C11.9452 18.1437 13.182 16.8729 14.7789 16.2817C16.4234 15.6701 18.4144 15.8468 20.3851 16.7778C22.9809 18.0077 24.5915 19.4959 25.1623 21.1948C25.3254 21.6773 25.3865 22.119 25.3865 22.4995L33.4662 25.4691C35.5864 24.7488 41.8857 22.7577 44.4272 23.5256C47.2812 24.3886 47.5327 27.9698 47.2269 29.9472C47.1453 30.4705 46.7716 30.8986 46.2619 31.0481L32.7867 34.9215C32.5285 34.9962 32.2498 34.9894 31.9916 34.9079L23.477 32.1353L21.153 38.6725H26.2835C26.6097 38.6725 26.9223 38.788 27.1669 38.9987L42.9526 52.4739C43.238 52.7186 43.4147 53.0787 43.4283 53.4525C43.4418 53.833 43.2991 54.2 43.0341 54.465L38.6375 58.8616C38.3725 59.1266 38.0259 59.2625 37.6794 59.2625L37.6658 59.2761ZM10.3483 44.9311H23.443C23.7556 44.9311 24.0614 45.0398 24.306 45.2368L37.5842 56.0823L40.0713 53.5952L25.7806 41.3974H19.2231C18.7814 41.3974 18.3669 41.18 18.1155 40.8198C17.864 40.4597 17.7961 39.9976 17.9456 39.5831L21.3569 29.9812C21.6015 29.2881 22.3558 28.9143 23.0557 29.1454L32.4333 32.1965L44.5903 28.6969C44.5903 27.7319 44.434 26.3661 43.6389 26.1214C42.3614 25.7341 37.591 26.8961 33.9011 28.1872C33.6021 28.2892 33.276 28.2892 32.9838 28.1804L23.3819 24.6536C22.9945 24.5109 22.6616 24.2527 22.5324 23.8654C22.4033 23.478 22.4237 23.0975 22.648 22.7509C22.8518 22.2345 22.4305 20.7463 19.2231 19.2309C18.4688 18.8776 17.0146 18.3475 15.7303 18.8232C14.8469 19.1494 14.1266 19.9376 13.5897 21.154C11.3676 26.1758 7.37875 39.42 8.24176 41.6964C8.95528 43.5856 9.90663 44.5437 10.3619 44.9243L10.3483 44.9311Z" fill="#5D5C75"/>
<path d="M20.7788 19.5503C16.0424 19.5503 12.1895 15.6973 12.1895 10.9609C12.1895 6.22456 16.0424 2.37158 20.7788 2.37158C25.5152 2.37158 29.3682 6.22456 29.3682 10.9609C29.3682 15.6973 25.5152 19.5503 20.7788 19.5503ZM20.7788 5.08974C17.5442 5.08974 14.9076 7.72634 14.9076 10.9609C14.9076 14.1955 17.5442 16.8322 20.7788 16.8322C24.0134 16.8322 26.65 14.1955 26.65 10.9609C26.65 7.72634 24.0134 5.08974 20.7788 5.08974Z" fill="#5D5C75"/>
<path d="M22.0092 31.7956L16.8243 29.8997C14.4663 29.0367 13.2499 26.4205 14.1062 24.0557C14.5207 22.9141 15.3633 22.0035 16.4642 21.4938C17.531 20.9978 18.7202 20.9298 19.8211 21.2967L24.075 22.051L23.5993 24.7284L19.2367 23.9537C19.1619 23.9402 19.0804 23.9198 19.0056 23.8926C18.5503 23.7227 18.0475 23.7499 17.6058 23.9537C17.1573 24.1644 16.8175 24.5314 16.6544 24.9866C16.3079 25.938 16.7971 26.9981 17.7485 27.3446L22.9334 29.2406L22.0024 31.7956H22.0092Z" fill="#5D5C75"/>
<path d="M16.959 53.5816H5.16224C2.73629 53.5816 0.765625 51.611 0.765625 49.185C0.765625 46.759 2.73629 44.7884 5.16224 44.7884H16.959C19.385 44.7884 21.3556 46.759 21.3556 49.185C21.3556 51.611 19.385 53.5816 16.959 53.5816ZM5.16224 47.5065C4.23807 47.5065 3.48378 48.2608 3.48378 49.185C3.48378 50.1092 4.23807 50.8635 5.16224 50.8635H16.959C17.8832 50.8635 18.6375 50.1092 18.6375 49.185C18.6375 48.2608 17.8832 47.5065 16.959 47.5065H5.16224Z" fill="#5D5C75"/>
<path d="M4.28545 62.9932C3.769 62.9932 3.24576 62.8845 2.7497 62.6602C0.867375 61.8108 0.0315431 59.5887 0.880966 57.7064L2.87881 53.2758C3.72823 51.3935 5.95032 50.5577 7.83264 51.4071C8.74323 51.8148 9.43635 52.5623 9.78971 53.5001C10.1431 54.4378 10.1159 55.4571 9.70137 56.3609L7.70353 60.7915C7.07836 62.1778 5.71248 62.9932 4.28545 62.9932ZM6.29009 53.7923C5.89596 53.7923 5.52221 54.0165 5.35233 54.3971L3.35449 58.8276C3.12344 59.3441 3.35449 59.9557 3.86414 60.1867C4.37379 60.4178 4.98538 60.1867 5.22322 59.6703L7.22106 55.2397C7.33658 54.9951 7.34338 54.7164 7.24145 54.4582C7.13951 54.2 6.95604 53.9961 6.70461 53.8874C6.5687 53.8262 6.426 53.7991 6.2833 53.7991L6.29009 53.7923Z" fill="#5D5C75"/>
<path d="M17.578 63C17.1295 63 16.681 62.9184 16.2461 62.7554C15.3084 62.402 14.5677 61.7021 14.1531 60.7983L12.1553 56.3745C11.3059 54.4922 12.1485 52.2701 14.024 51.4207C14.9346 51.0129 15.9471 50.979 16.8849 51.3323C17.8227 51.6857 18.5634 52.3856 18.9779 53.2894L20.9757 57.72C21.3834 58.6306 21.4174 59.6431 21.0641 60.5808C20.7107 61.5186 20.0176 62.2593 19.107 62.6738C18.6177 62.8981 18.0945 63.0068 17.5712 63.0068L17.578 63ZM15.5666 53.799C15.4239 53.799 15.2812 53.8262 15.1521 53.8874C14.6356 54.1184 14.4046 54.73 14.6424 55.2465L16.6403 59.6702C16.749 59.9149 16.9528 60.1052 17.2111 60.2071C17.4693 60.3022 17.7479 60.2954 17.9925 60.1867C18.2372 60.078 18.4274 59.8741 18.5294 59.6159C18.6245 59.3577 18.6177 59.0791 18.509 58.8344L16.5111 54.4038C16.4024 54.1592 16.1986 53.9689 15.9403 53.867C15.818 53.8194 15.6957 53.799 15.5734 53.799H15.5666Z" fill="#5D5C75"/>
<path d="M74.7338 49.0491H45.3574C43.4547 49.0491 41.9121 47.4997 41.9121 45.6038V45.332C41.9121 43.4293 43.4615 41.8867 45.3574 41.8867H74.7338C76.6365 41.8867 78.1791 43.4361 78.1791 45.332V45.6038C78.1791 47.5065 76.6297 49.0491 74.7338 49.0491ZM45.3574 43.9185C44.5827 43.9185 43.9507 44.5505 43.9507 45.3252V45.597C43.9507 46.3717 44.5827 47.0036 45.3574 47.0036H74.7338C75.5085 47.0036 76.1405 46.3717 76.1405 45.597V45.3252C76.1405 44.5505 75.5085 43.9185 74.7338 43.9185H45.3574Z" fill="#5D5C75"/>
<path d="M59.9004 44.0477C57.7327 44.0477 55.9727 42.2877 55.9727 40.1199C55.9727 37.9522 57.7327 36.1922 59.9004 36.1922C62.0681 36.1922 63.8281 37.9522 63.8281 40.1199C63.8281 42.2877 62.0681 44.0477 59.9004 44.0477ZM59.9004 38.2376C58.8607 38.2376 58.0113 39.087 58.0113 40.1267C58.0113 41.1664 58.8607 42.0158 59.9004 42.0158C60.9401 42.0158 61.7895 41.1664 61.7895 40.1267C61.7895 39.087 60.9401 38.2376 59.9004 38.2376Z" fill="#5D5C75"/>
<path d="M74.2786 42.94H72.24V40.5141C72.24 33.7595 66.7426 28.262 59.988 28.262C53.2333 28.262 47.7359 33.7595 47.7359 40.5141V42.8585H45.6973V40.5141C45.6973 32.6314 52.1053 26.2234 59.988 26.2234C67.8706 26.2234 74.2786 32.6314 74.2786 40.5141V42.94Z" fill="#5D5C75"/>
<path d="M59.9001 54.3698C55.9248 54.3698 52.3028 52.0186 50.6855 48.3899L52.5475 47.5609C53.8386 50.4625 56.7266 52.338 59.9001 52.338C63.0735 52.338 66.0091 50.4353 67.2867 47.4929L69.1554 48.3016C67.5517 51.9915 63.923 54.3766 59.9001 54.3766V54.3698Z" fill="#5D5C75"/>
<path d="M49.4217 62.2933H49.2654C47.4443 62.2933 45.9629 60.8119 45.9629 58.9907V50.4761C45.9629 48.6549 47.4443 47.1735 49.2654 47.1735H49.4217C51.2429 47.1735 52.7243 48.6549 52.7243 50.4761V58.9907C52.7243 60.8119 51.2429 62.2933 49.4217 62.2933ZM49.2654 49.2053C48.5655 49.2053 48.0015 49.7762 48.0015 50.4693V58.9839C48.0015 59.6838 48.5655 60.2478 49.2654 60.2478H49.4217C50.1217 60.2478 50.6857 59.677 50.6857 58.9839V50.4693C50.6857 49.7694 50.1217 49.2053 49.4217 49.2053H49.2654Z" fill="#5D5C75"/>
<path d="M70.6575 62.2933H70.2498C68.4287 62.2933 66.9473 60.8119 66.9473 58.9907V50.4761C66.9473 48.6549 68.4287 47.1735 70.2498 47.1735H70.6575C72.4787 47.1735 73.9601 48.6549 73.9601 50.4761V58.9907C73.9601 60.8119 72.4787 62.2933 70.6575 62.2933ZM70.2498 49.2053C69.5499 49.2053 68.9859 49.7762 68.9859 50.4693V58.9839C68.9859 59.6838 69.5499 60.2478 70.2498 60.2478H70.6575C71.3575 60.2478 71.9215 59.677 71.9215 58.9839V50.4693C71.9215 49.7694 71.3575 49.2053 70.6575 49.2053H70.2498Z" fill="#5D5C75"/>
<path d="M45.9015 36.3009C45.4055 36.3009 44.9026 36.1718 44.4405 35.9068L44.1959 35.7641C43.5232 35.3768 43.0339 34.7448 42.8368 33.9837C42.633 33.2294 42.7349 32.4412 43.129 31.7616L50.3253 19.2921C51.134 17.8922 52.928 17.4098 54.3278 18.2184L54.5724 18.3611C55.2452 18.7485 55.7345 19.3804 55.9315 20.1415C56.1354 20.8958 56.0335 21.6841 55.6393 22.3636L48.443 34.8331C47.8994 35.7709 46.914 36.2941 45.9015 36.2941V36.3009ZM45.4598 34.1468C45.8879 34.3914 46.4316 34.2487 46.6762 33.8206L53.8725 21.3511C53.988 21.1472 54.022 20.9094 53.9609 20.6784C53.8997 20.4473 53.7502 20.257 53.5463 20.1347L53.3017 19.992C53.0978 19.8765 52.86 19.8425 52.629 19.9037C52.3979 19.9648 52.2076 20.1143 52.0853 20.3182L44.889 32.7877C44.7735 32.9916 44.7395 33.2294 44.8007 33.4605C44.8618 33.6915 45.0113 33.8818 45.2152 34.0041L45.4598 34.1468Z" fill="#5D5C75"/>
<path d="M58.9492 7.02642C58.9492 6.21202 58.289 5.55182 57.4746 5.55182C56.6602 5.55182 56 6.21202 56 7.02642V12.9248C56 13.7392 56.6602 14.3994 57.4746 14.3994C58.289 14.3994 58.9492 13.7392 58.9492 12.9248V7.02642Z" fill="#5D5C75"/>
<path d="M66.0348 13.9356C66.6441 13.3954 66.7002 12.4634 66.1599 11.854C65.6196 11.2446 64.6876 11.1886 64.0783 11.7289L59.6647 15.6419C59.0553 16.1822 58.9993 17.1141 59.5396 17.7235C60.0799 18.3329 61.0118 18.3889 61.6212 17.8487L66.0348 13.9356Z" fill="#5D5C75"/>
<path d="M72.0899 22.2549C72.9043 22.2549 73.5645 21.5947 73.5645 20.7803C73.5645 19.9659 72.9043 19.3057 72.0899 19.3057H66.1915C65.3771 19.3057 64.7169 19.9659 64.7169 20.7803C64.7169 21.5947 65.3771 22.2549 66.1915 22.2549H72.0899Z" fill="#5D5C75"/>
<path d="M70.1328 11.756C70.1328 12.5704 70.793 13.2306 71.6074 13.2306C72.4218 13.2306 73.082 12.5704 73.082 11.756V9.5407C73.082 8.7263 72.4218 8.0661 71.6074 8.0661C70.793 8.0661 70.1328 8.7263 70.1328 9.5407V11.756Z" fill="#5D5C75"/>
<path d="M70.1328 3.68989C70.1328 4.50429 70.793 5.16449 71.6074 5.16449C72.4218 5.16449 73.082 4.50429 73.082 3.68989V1.4746C73.082 0.660198 72.4218 -1.90735e-06 71.6074 -1.90735e-06C70.793 -1.90735e-06 70.1328 0.660198 70.1328 1.4746V3.68989Z" fill="#5D5C75"/>
<path d="M66.4785 5.13729C65.6641 5.13729 65.0039 5.79749 65.0039 6.61189C65.0039 7.42629 65.6641 8.08649 66.4785 8.08649H68.6938C69.5082 8.08649 70.1684 7.42629 70.1684 6.61189C70.1684 5.79749 69.5082 5.13729 68.6938 5.13729H66.4785Z" fill="#5D5C75"/>
<path d="M74.543 5.14412C73.7286 5.14412 73.0684 5.80432 73.0684 6.61872C73.0684 7.43312 73.7286 8.09332 74.543 8.09332H76.7583C77.5727 8.09332 78.2329 7.43312 78.2329 6.61872C78.2329 5.80432 77.5727 5.14412 76.7583 5.14412H74.543Z" fill="#5D5C75"/>
<path d="M42.1154 61.7565H35.0414C34.6269 61.7565 34.26 61.505 34.0969 61.1245C33.9338 60.7439 34.0289 60.3022 34.3211 60.0168L36.0811 58.2568L37.5217 59.6975L37.5014 59.7178H42.1154V61.7565Z" fill="#5D5C75"/>
</g>
<defs>
<clipPath id="clip0_998_2728">
<rect width="77.678" height="63" fill="white" transform="translate(0.548828)"/>
</clipPath>
</defs>
</svg>
