<svg width="330" height="470" viewBox="0 0 330 470" fill="none" xmlns="http://www.w3.org/2000/svg">
<path d="M179.63 348.603L79.3091 313.658L-105.248 741.267L7.45731 879.549C63.0985 778.602 113.96 674.229 133.879 599.253C178.339 462.924 179.63 348.603 179.63 348.603Z" fill="#D4D1FF"/>
<path d="M64.0995 358.19C69.2549 344.083 66.8128 328.695 61.1164 319.768C55.4334 310.848 56.1242 301.688 61.2634 285.896C66.4091 270.091 99.5862 172.553 104.746 159.776C109.907 146.998 133.61 166.168 123.729 194.524C113.848 222.88 88.5267 294.535 88.5267 294.535L111.832 315.869L92.0511 371.727L64.073 358.211L64.0995 358.19Z" fill="#D4D1FF"/>
<path d="M167.099 380.678C170.875 369.838 201.54 379.44 213.602 344.784L80.5509 298.434L72.4649 321.666L167.099 380.678Z" fill="#8C88C5"/>
<path d="M285.062 231.598L243.671 244.301C235.41 246.833 226.569 242.147 224.024 233.88C221.491 225.619 226.177 216.778 234.445 214.233L275.836 201.53C284.097 198.998 292.937 203.683 295.483 211.951C298.015 220.212 293.329 229.052 285.062 231.598Z" fill="#D4D1FF"/>
<path d="M84.9832 305.786C80.2358 319.427 87.8619 325.253 99.5885 329.324C111.309 333.409 178.116 356.671 189.48 360.634C200.831 364.59 204.814 352.256 206.377 347.783L84.9897 305.773L84.9832 305.786Z" fill="#D3D3D3"/>
<path d="M264.583 152.307L160.875 116.182C156.026 114.494 150.727 117.055 149.038 121.903L84.9881 305.778C83.2993 310.627 85.8606 315.926 90.709 317.615L194.417 353.74C199.266 355.429 204.565 352.868 206.254 348.019L270.304 164.144C271.993 159.296 269.431 153.996 264.583 152.307Z" fill="#363088"/>
<path d="M262.36 166.245L153.951 128.482L94.8916 298.032L203.3 335.794L262.36 166.245Z" fill="white"/>
<path d="M219.286 146.21L200.151 139.539C199.016 139.14 198.41 137.885 198.803 136.763C199.202 135.628 200.457 135.023 201.579 135.415L220.714 142.087C221.849 142.486 222.454 143.741 222.062 144.862C221.663 145.998 220.407 146.603 219.286 146.21Z" fill="#808080"/>
<path d="M150.643 328.395C149.684 331.135 146.696 332.58 143.955 331.621C141.215 330.662 139.771 327.674 140.729 324.934C141.688 322.193 144.676 320.749 147.417 321.708C150.157 322.666 151.601 325.655 150.643 328.395Z" fill="#808080"/>
<path d="M183.461 251.598C185.421 251.217 187.297 250.597 189.077 249.697C194.48 246.929 197.58 242.402 198.892 236.595C199.774 232.673 199.147 228.884 197.587 225.209C195.184 219.567 190.813 216.211 185.075 214.517C181.558 213.482 178.018 213.698 174.538 214.821C170.105 216.265 166.524 218.834 164.173 222.91C163.187 224.608 162.315 226.378 161.82 228.297C160.684 232.744 161.277 237.014 163.171 241.132C165.375 245.915 169.141 249.012 174.005 250.831C177.042 251.966 180.187 252.191 183.461 251.598ZM157.945 263.804C155.405 260.369 152.879 256.974 150.353 253.58C147.602 249.86 144.798 246.182 142.099 242.422C140.362 240.006 139.355 237.245 138.98 234.276C138.479 230.332 139.13 226.58 141 223.085C142.676 219.961 145.062 217.495 148.146 215.749C153.049 212.988 158.197 212.57 163.547 214.209C164.07 214.362 164.575 214.589 165.24 214.828C164.899 214.364 164.647 213.993 164.374 213.629C162.679 211.333 160.824 209.126 159.34 206.699C155.601 200.594 155.314 194.247 158.643 187.872C161.014 183.341 164.79 180.368 169.67 178.892C173.618 177.695 177.556 177.822 181.465 179.179C185.542 180.601 188.686 183.198 191.206 186.673C194.81 191.617 198.493 196.5 202.129 201.411C204.723 204.905 207.304 208.392 209.899 211.887C212.711 215.685 215.609 219.409 218.316 223.289C221.548 227.938 222.574 233.131 221.071 238.613C219.002 246.161 213.936 250.668 206.331 252.256C202.918 252.964 199.543 252.562 196.265 251.344C195.996 251.247 195.741 251.157 195.345 251.015C195.515 251.28 195.625 251.466 195.747 251.625C197.395 253.848 199.109 256.037 200.678 258.322C203.685 262.646 204.833 267.45 203.761 272.625C202.267 279.805 197.928 284.63 190.966 286.843C184.929 288.757 179.226 287.645 174.049 283.999C172.375 282.825 170.985 281.34 169.773 279.692C165.973 274.57 162.173 269.448 158.373 264.326C158.244 264.147 158.122 263.989 157.972 263.783L157.945 263.804Z" fill="#363088"/>
<mask id="mask0_1102_15936"  maskUnits="userSpaceOnUse" x="138" y="178" width="84" height="110">
<path d="M183.461 251.598C185.421 251.217 187.297 250.596 189.077 249.696C194.48 246.929 197.58 242.401 198.892 236.595C199.774 232.672 199.147 228.884 197.587 225.209C195.184 219.566 190.813 216.21 185.075 214.517C181.558 213.482 178.018 213.697 174.538 214.821C170.105 216.265 166.524 218.834 164.173 222.91C163.187 224.608 162.315 226.378 161.82 228.296C160.684 232.743 161.277 237.013 163.171 241.132C165.375 245.915 169.141 249.012 174.005 250.831C177.042 251.966 180.187 252.19 183.461 251.598ZM157.945 263.803C155.405 260.369 152.879 256.974 150.353 253.579C147.602 249.86 144.798 246.182 142.099 242.422C140.362 240.005 139.355 237.245 138.98 234.276C138.479 230.332 139.13 226.58 141 223.085C142.676 219.96 145.062 217.495 148.146 215.748C153.049 212.988 158.197 212.57 163.547 214.208C164.07 214.362 164.575 214.589 165.24 214.827C164.899 214.364 164.647 213.993 164.374 213.629C162.679 211.332 160.824 209.125 159.34 206.699C155.601 200.593 155.314 194.247 158.643 187.871C161.014 183.34 164.79 180.368 169.67 178.891C173.618 177.694 177.556 177.821 181.465 179.178C185.542 180.6 188.686 183.198 191.206 186.673C194.81 191.617 198.493 196.5 202.129 201.41C204.723 204.904 207.304 208.392 209.899 211.886C212.711 215.685 215.609 219.409 218.316 223.289C221.548 227.937 222.574 233.13 221.071 238.612C219.002 246.16 213.936 250.668 206.331 252.255C202.918 252.964 199.543 252.562 196.265 251.343C195.996 251.246 195.741 251.156 195.345 251.015C195.515 251.28 195.625 251.465 195.747 251.624C197.395 253.848 199.109 256.037 200.678 258.322C203.685 262.646 204.833 267.45 203.761 272.625C202.267 279.804 197.928 284.629 190.966 286.843C184.929 288.757 179.226 287.645 174.049 283.998C172.375 282.825 170.985 281.34 169.773 279.692C165.973 274.57 162.173 269.448 158.373 264.326C158.244 264.147 158.122 263.988 157.972 263.783L157.945 263.803Z" fill="white"/>
</mask>
<g mask="url(#mask0_1102_15936)">
<path d="M173.572 252.033C176.838 253.246 180.223 253.487 183.697 252.858L183.242 250.331C180.188 250.88 177.27 250.666 174.469 249.628L173.572 252.033ZM162.014 241.669C164.377 246.811 168.439 250.118 173.559 252.027L174.455 249.622C169.853 247.913 166.385 245.026 164.332 240.582L162.007 241.649L162.014 241.669ZM160.571 227.992C159.366 232.755 160.01 237.332 162.008 241.683L164.333 240.615C162.542 236.729 162.006 232.752 163.053 228.627L160.571 227.992ZM163.067 222.277C162.061 224.015 161.118 225.899 160.585 227.999L163.067 228.634C163.517 226.876 164.33 225.227 165.284 223.563L163.067 222.277ZM174.139 213.617C169.454 215.138 165.601 217.891 163.067 222.277L165.284 223.563C167.445 219.811 170.742 217.419 174.934 216.059L174.139 213.617ZM185.445 213.302C181.639 212.177 177.839 212.416 174.139 213.617L174.934 216.059C178.222 214.991 181.495 214.813 184.723 215.758L185.445 213.302ZM198.769 224.718C196.193 218.677 191.492 215.078 185.445 213.302L184.723 215.758C190.153 217.369 194.186 220.496 196.423 225.726L198.782 224.725L198.769 224.718ZM200.144 236.885C201.102 232.634 200.412 228.566 198.769 224.718L196.409 225.72C197.894 229.209 198.47 232.724 197.643 236.325L200.144 236.885ZM189.666 250.845C195.448 247.878 198.757 243.021 200.158 236.892L197.657 236.331C196.415 241.823 193.517 246 188.505 248.575L189.679 250.851L189.666 250.845ZM183.711 252.864C185.778 252.469 187.767 251.82 189.666 250.845L188.492 248.568C186.839 249.413 185.076 250.005 183.215 250.351L183.711 252.864ZM159.372 263.597C159.242 263.418 159.14 263.286 158.983 263.061L156.925 264.573C157.055 264.752 157.204 264.957 157.32 265.129L159.372 263.597ZM170.784 278.97C166.985 273.848 163.185 268.726 159.385 263.603L157.334 265.135C161.133 270.257 164.933 275.38 168.733 280.502L170.798 278.976L170.784 278.97ZM174.769 282.986C173.231 281.911 171.942 280.525 170.784 278.97L168.719 280.495C169.993 282.222 171.465 283.813 173.287 285.092L174.763 283L174.769 282.986ZM190.574 285.659C184.95 287.44 179.663 286.429 174.769 282.986L173.294 285.079C178.767 288.934 184.893 290.134 191.336 288.102L190.561 285.652L190.574 285.659ZM202.506 272.401C201.114 279.131 197.097 283.598 190.581 285.645L191.356 288.095C198.764 285.748 203.433 280.55 205.027 272.922L202.52 272.408L202.506 272.401ZM199.624 259.092C202.441 263.158 203.497 267.602 202.5 272.415L205.007 272.929C206.161 267.378 204.921 262.215 201.724 257.633L199.624 259.092ZM194.714 252.421C196.389 254.69 198.063 256.827 199.631 259.078L201.73 257.619C200.135 255.321 198.393 253.086 196.779 250.895L194.714 252.421ZM194.271 251.758C194.394 251.95 194.558 252.229 194.714 252.421L196.779 250.895C196.677 250.763 196.636 250.676 196.417 250.339L194.277 251.745L194.271 251.758ZM196.709 250.181C196.427 250.078 196.125 249.982 195.769 249.859L194.919 252.271C195.343 252.425 195.577 252.489 195.813 252.586L196.709 250.181ZM206.059 251.029C202.919 251.687 199.793 251.322 196.696 250.174L195.799 252.58C199.259 253.869 202.895 254.314 206.574 253.536L206.059 251.029ZM219.823 238.309C218.842 241.885 217.176 244.682 214.898 246.751C212.627 248.841 209.678 250.272 206.059 251.029L206.574 253.536C210.56 252.706 213.947 251.089 216.628 248.633C219.308 246.177 221.203 242.942 222.292 238.97L219.816 238.289L219.823 238.309ZM217.262 224.059C220.303 228.416 221.237 233.216 219.836 238.315L222.312 238.997C223.923 233.119 222.818 227.539 219.375 222.606L217.276 224.065L217.262 224.059ZM208.865 212.682C211.698 216.507 214.576 220.205 217.255 224.039L219.355 222.58C216.641 218.679 213.709 214.923 210.917 211.15L208.852 212.676L208.865 212.682ZM201.109 202.213C203.704 205.707 206.285 209.195 208.879 212.689L210.944 211.163C208.349 207.669 205.768 204.182 203.174 200.688L201.123 202.22L201.109 202.213ZM190.173 187.469C193.777 192.413 197.466 197.316 201.103 202.227L203.154 200.695C199.504 195.778 195.835 190.901 192.232 185.957L190.16 187.463L190.173 187.469ZM181.046 180.421C184.841 181.74 187.769 184.166 190.18 187.456L192.251 185.95C189.608 182.316 186.262 179.521 181.896 178.01L181.06 180.427L181.046 180.421ZM170.04 180.15C173.715 179.037 177.379 179.147 181.046 180.421L181.883 178.003C177.732 176.562 173.505 176.413 169.298 177.7L170.04 180.15ZM159.78 188.505C161.982 184.29 165.467 181.542 170.04 180.15L169.298 177.7C164.119 179.281 160.045 182.458 157.511 187.326L159.78 188.505ZM160.44 206.069C156.933 200.341 156.666 194.469 159.78 188.505L157.511 187.326C153.967 194.112 154.287 200.939 158.252 207.402L160.44 206.069ZM165.406 212.9C163.642 210.504 161.889 208.429 160.426 206.063L158.239 207.396C159.763 209.875 161.707 212.208 163.334 214.405L165.392 212.893L165.406 212.9ZM166.271 214.098C165.944 213.641 165.678 213.264 165.406 212.9L163.348 214.412C163.606 214.769 163.865 215.127 164.206 215.59L166.278 214.085L166.271 214.098ZM163.175 215.457C163.651 215.604 164.062 215.786 164.794 216.057L165.677 213.645C165.099 213.432 164.487 213.186 163.923 213.014L163.175 215.457ZM148.776 216.883C153.346 214.294 158.127 213.915 163.161 215.45L163.91 213.007C158.258 211.273 152.742 211.695 147.515 214.648L148.776 216.883ZM142.13 223.698C143.688 220.782 145.903 218.5 148.776 216.883L147.515 214.648C144.212 216.504 141.641 219.146 139.861 222.486L142.117 223.692L142.13 223.698ZM140.247 234.125C139.769 230.441 140.39 226.957 142.13 223.698L139.875 222.492C137.88 226.243 137.173 230.25 137.718 234.447L140.267 234.118L140.247 234.125ZM143.151 241.686C141.556 239.455 140.613 236.907 140.261 234.131L137.712 234.46C138.115 237.61 139.192 240.57 141.066 243.184L143.151 241.686ZM151.397 252.823C148.633 249.097 145.842 245.426 143.151 241.686L141.066 243.184C143.777 246.951 146.588 250.649 149.333 254.349L151.384 252.817L151.397 252.823ZM158.976 263.041C156.43 259.62 153.91 256.211 151.384 252.817L149.333 254.349C151.859 257.743 154.365 261.145 156.925 264.573L158.99 263.047L158.976 263.041ZM183.46 251.598L183.684 252.851L183.446 251.591L183.46 251.598ZM195.337 251.062L195.755 249.853L192.189 248.611L194.264 251.772L195.331 251.075L195.337 251.062ZM165.245 214.847L164.8 216.043L168.744 217.5L166.285 214.104L165.245 214.847Z" fill="#363088"/>
</g>
<path d="M252.814 273.167L211.423 285.87C203.162 288.402 194.321 283.716 191.776 275.449C189.243 267.188 193.929 258.347 202.196 255.801L243.588 243.099C251.849 240.566 260.689 245.252 263.235 253.52C265.767 261.781 261.081 270.621 252.814 273.167Z" fill="#D4D1FF"/>
<path d="M248.689 307.06L207.298 319.763C199.037 322.295 190.196 317.609 187.651 309.342C185.118 301.081 189.804 292.24 198.071 289.694L239.463 276.992C247.724 274.459 256.564 279.145 259.11 287.413C261.642 295.674 256.956 304.514 248.689 307.06Z" fill="#D4D1FF"/>
<path d="M233.628 342.74L206.269 351.134C198.009 353.666 189.168 348.98 186.622 340.713C184.09 332.452 188.776 323.611 197.043 321.066L224.402 312.672C232.663 310.139 241.504 314.825 244.049 323.093C246.582 331.354 241.896 340.194 233.628 342.74Z" fill="#D4D1FF"/>
<path d="M203.748 258.909C198.896 260.399 195.176 264.56 194.656 269.621C193.87 277.192 200.202 283.636 207.914 283.063C208.796 282.991 209.662 282.812 210.501 282.553L213.816 281.532C217.637 280.357 219.848 276.363 218.813 272.494L216.299 263.13C215.214 259.053 210.958 256.698 206.937 257.943L203.742 258.922L203.748 258.909Z" fill="#363088"/>
<path d="M199.936 293.018C195.083 294.508 191.363 298.67 190.844 303.73C190.058 311.301 196.389 317.746 204.102 317.173C204.983 317.1 205.85 316.922 206.688 316.663L210.003 315.642C213.824 314.467 216.036 310.473 215.001 306.603L212.487 297.239C211.402 293.163 207.145 290.808 203.125 292.052L199.929 293.032L199.936 293.018Z" fill="#363088"/>
<path d="M199.625 324.172C194.773 325.662 191.053 329.823 190.533 334.884C189.747 342.455 196.078 348.899 203.791 348.326C204.673 348.254 205.539 348.075 206.378 347.817L209.693 346.796C213.514 345.621 215.725 341.627 214.69 337.757L212.176 328.393C211.091 324.317 206.835 321.962 202.814 323.206L199.619 324.185L199.625 324.172Z" fill="#363088"/>
<path d="M64.9217 327.35C67.9021 336.126 68.4738 343.257 66.2541 349.604L66.7242 349.765L-4.28328 553.613L10.5061 558.766C23.8356 520.523 70.6096 386.216 75.8076 371.299C81.8741 353.897 75.1192 342.351 64.9082 327.343L64.9217 327.35Z" fill="#363088"/>
<path d="M104.751 159.762C102.953 164.205 97.7598 178.942 91.5274 196.928C96.3544 197.965 103.13 194.383 105.543 186.503C107.72 179.421 112.795 164.379 115.16 157.388C110.906 154.719 106.614 155.151 104.745 159.776L104.751 159.762Z" fill="#363088"/>
<path d="M259.689 47.2365L191.107 52.246C185.473 52.6613 181.248 57.5584 181.648 63.1937L184.186 97.6246C184.571 103.261 189.468 107.486 195.103 107.085L235.633 104.128L250.212 117.515L249.152 103.132L263.684 102.061C269.318 101.646 273.543 96.7485 273.143 91.1133L270.605 56.6824C270.22 51.046 265.323 46.8212 259.687 47.2216L259.689 47.2365Z" fill="#363088"/>
<path d="M225.862 79.717L210.018 80.8848L213.005 91.9342C213.579 94.0348 215.421 95.4426 217.449 95.2932L226.943 94.5935L236.438 93.8937C238.45 93.7454 240.081 92.0817 240.341 89.9195L241.691 78.5504L225.847 79.7181L225.862 79.717Z" fill="white"/>
<path d="M212.608 72.057L222.046 61.1321C222.418 60.7023 223.071 60.6546 223.501 61.0259L223.953 61.4167C224.383 61.788 224.431 62.4415 224.059 62.8713L214.621 73.7962C214.25 74.226 213.596 74.2737 213.166 73.9024L212.714 73.5116C212.284 73.1403 212.236 72.4868 212.608 72.057Z" fill="white"/>
<path d="M236.132 72.2023L225.207 62.7638C224.777 62.3925 224.729 61.7391 225.101 61.3093L225.491 60.8569C225.863 60.4272 226.516 60.3795 226.946 60.7507L237.871 70.1892C238.301 70.5605 238.348 71.214 237.977 71.6437L237.586 72.0961C237.215 72.5259 236.562 72.5736 236.132 72.2023Z" fill="white"/>
<path d="M208.605 75.3538L242.276 72.8722C243.155 72.8074 243.909 73.4712 243.972 74.3357L244.039 75.2449C244.104 76.1243 243.44 76.8776 242.576 76.9413L208.905 79.4229C208.026 79.4877 207.273 78.8239 207.209 77.9594L207.142 77.0502C207.077 76.1708 207.741 75.4175 208.605 75.3538Z" fill="white"/>
</svg>