<svg width="63" height="62" viewBox="0 0 63 62" fill="none" xmlns="http://www.w3.org/2000/svg">
<path fill-rule="evenodd" clip-rule="evenodd" d="M51.8297 61.128H51.8274C49.3436 61.128 47.0101 60.1598 45.2574 58.4041C43.5017 56.6507 42.5373 54.2397 42.5704 51.7228L31.2244 40.3768L19.8859 51.7197C19.91 54.2412 18.9449 56.6529 17.1952 58.4026C15.3823 60.214 13.0022 61.1197 10.6229 61.1197C8.24356 61.1197 5.86498 60.214 4.05435 58.4026C2.29712 56.6454 1.32974 54.3104 1.32974 51.8273C1.32974 49.3442 2.29787 47.01 4.05585 45.255C5.80405 43.497 8.21046 42.5342 10.7327 42.5673L17.9126 35.3874L17.9123 35.3871L22.0754 31.224L13.1662 22.317C9.53064 22.9512 5.87401 21.8138 3.27879 19.2103C0.252538 16.1878 -0.775018 11.7639 0.600072 7.6657L1.17929 5.93781L7.24007 12.0001C8.48804 13.2405 10.5695 13.1879 11.8769 11.8805C12.5381 11.2215 12.9014 10.3595 12.9014 9.45301C12.9014 8.609 12.5802 7.82367 11.9972 7.24068L5.93569 1.1769L7.66509 0.599178C11.764 -0.770647 16.1864 0.255406 19.2059 3.2779C21.8102 5.88741 22.9483 9.54328 22.3142 13.1668L31.2234 22.076L32.6592 20.6403L32.6596 20.6408L40.1377 13.1646C39.5005 9.53426 40.6364 5.87838 43.2399 3.27714C46.2699 0.249388 50.6931 -0.775912 54.783 0.602939L56.5064 1.18367L50.4486 7.24144C49.2067 8.48714 49.2601 10.5678 50.569 11.879C51.2287 12.5387 52.0915 12.902 52.9972 12.902H52.9994C53.8412 12.902 54.625 12.5801 55.2065 11.9971L61.2718 5.9348L61.8495 7.66419C63.2201 11.7654 62.1948 16.1885 59.1738 19.2073C56.5665 21.8138 52.9099 22.9534 49.2849 22.3185L40.3709 31.2325L51.7161 42.5778C51.7635 42.5778 51.8102 42.577 51.8575 42.577C54.3226 42.577 56.6771 43.5346 58.402 45.2588C62.0248 48.8846 62.0248 54.7813 58.402 58.4041C56.647 60.1598 54.3128 61.1272 51.8282 61.1272L51.8297 61.128ZM25.2697 31.2213L25.2536 31.2052L31.2095 25.2493L31.2259 25.2658L42.6073 13.8867L42.4651 13.2766C41.752 10.2098 42.6389 7.06767 44.8369 4.87189C46.7972 2.91306 49.4902 2.00436 52.1818 2.31729L48.8531 5.64594C46.7333 7.77252 46.7867 11.2832 48.9742 13.4737C50.0604 14.56 51.4897 15.158 52.9987 15.158H53.0032C54.4482 15.1572 55.7993 14.5998 56.805 13.5911L60.1314 10.2662C60.4413 12.9652 59.5349 15.6582 57.5798 17.611C55.3773 19.8136 52.2337 20.7035 49.1721 19.9926L48.562 19.8512L40.5132 27.9L40.4879 27.8663L25.741 42.6131L25.7697 42.6418L17.5841 50.8306L17.6164 51.3391C17.7481 53.401 17.0139 55.3929 15.6019 56.8049C12.8563 59.5475 8.39401 59.5475 5.65285 56.8049C4.32214 55.4742 3.58871 53.7049 3.58871 51.8251C3.58871 49.9452 4.32139 48.1782 5.65511 46.8467C7.06555 45.428 9.05146 44.6969 11.1051 44.8383L11.6173 44.8736L25.2697 31.2213ZM32.7765 38.7371L44.8783 50.8389L44.8437 51.3504C44.7038 53.404 45.4364 55.3929 46.8537 56.8079C48.1821 58.1378 49.9484 58.8705 51.829 58.8705H51.8305C53.7118 58.8705 55.4788 58.1386 56.808 56.8086C59.5514 54.0652 59.5514 49.5999 56.808 46.8543C55.3908 45.4378 53.4004 44.7081 51.349 44.8518L50.836 44.8879L38.7308 32.7827L32.7765 38.7371ZM19.8491 13.889L29.6298 23.6697L23.6737 29.6257L13.8936 19.8482L13.2843 19.9889C10.2114 20.6982 7.06856 19.8106 4.87654 17.6118C2.91772 15.6567 2.00901 12.9645 2.31969 10.2677L5.64759 13.5971C7.77792 15.7146 11.2894 15.6605 13.4731 13.476C14.5608 12.392 15.1604 10.9635 15.1604 9.45301C15.1604 8.00571 14.6045 6.65319 13.5942 5.64444L10.2693 2.31804C12.9661 2.00887 15.6576 2.91607 17.6104 4.87038C19.8107 7.07444 20.7006 10.218 19.9905 13.2789L19.8491 13.889ZM50.3764 57.2404L46.4159 53.2799L47.8609 47.869L53.2748 46.421L57.239 50.3823L55.7872 55.7991L50.3764 57.2412V57.2404ZM48.9321 52.6051L51.0526 54.7257L53.9458 53.9546L54.7221 51.057L52.6007 48.9372L49.7046 49.712L48.9321 52.6051ZM12.0702 57.2359L6.65558 55.7909L5.21354 50.377L9.16881 46.4157L14.5827 47.8645L16.0315 53.2754L12.0702 57.2367V57.2359ZM8.50007 53.9471L11.3947 54.7197L13.5145 52.5999L12.7397 49.7068L9.84432 48.9319L7.72828 51.0518L8.49932 53.9471H8.50007Z" fill="#5D5C75"/>
</svg>
