<svg width="73" height="67" viewBox="0 0 73 67" fill="none" xmlns="http://www.w3.org/2000/svg">
<path d="M7.17261 12.3757C8.98885 12.3757 10.4612 10.9067 10.4621 9.09337C10.4621 7.28008 8.99068 5.81009 7.17444 5.80918C5.35819 5.80918 3.88581 7.27825 3.8849 9.09154C3.88672 10.9048 5.35728 12.3739 7.17261 12.3757ZM7.17261 6.57248C8.56726 6.57248 9.69761 7.70008 9.69852 9.09154C9.69852 10.4839 8.56908 11.6124 7.17535 11.6134C5.7807 11.6134 4.65035 10.4858 4.64944 9.09428C4.65127 7.70373 5.77979 6.57521 7.17261 6.57248Z" fill="#5D5C75"/>
<path d="M7.17261 4.96827C7.38386 4.96827 7.55488 4.79753 7.55488 4.58753V2.31133C7.56585 2.10042 7.40398 1.92055 7.19364 1.9096C6.98239 1.89864 6.80223 2.06025 6.79125 2.27025C6.79125 2.28394 6.79125 2.29764 6.79125 2.31042V4.58662C6.79125 4.79662 6.96227 4.96736 7.17261 4.96827Z" fill="#5D5C75"/>
<path d="M6.79125 13.5992V15.8745C6.78028 16.0854 6.94215 16.2653 7.15249 16.2762C7.36374 16.2872 7.5439 16.1256 7.55488 15.9156C7.55488 15.9019 7.55488 15.8882 7.55488 15.8754V13.6001C7.56585 13.3892 7.40398 13.2093 7.19364 13.1984C6.9833 13.1874 6.80223 13.349 6.79125 13.559C6.79125 13.5727 6.79125 13.5864 6.79125 13.5992Z" fill="#5D5C75"/>
<path d="M0.381356 9.47319H2.66035C2.87069 9.47319 3.0417 9.30246 3.0417 9.09246C3.0417 8.88246 2.87069 8.71172 2.66035 8.71172H0.381356C0.171016 8.71172 0 8.88246 0 9.09246C0 9.30246 0.171016 9.47319 0.381356 9.47319Z" fill="#5D5C75"/>
<path d="M11.3044 9.09246C11.3044 9.30337 11.4764 9.47319 11.6867 9.47319H13.9666C14.1769 9.47319 14.348 9.30246 14.348 9.09246C14.348 8.88246 14.1769 8.71172 13.9666 8.71172H11.6867C11.4754 8.71172 11.3044 8.88246 11.3044 9.09246Z" fill="#5D5C75"/>
<path d="M10.0945 12.0087C9.94819 12.1584 9.94819 12.3977 10.0945 12.5465L11.7105 14.1598C11.8669 14.3013 12.1083 14.2886 12.2491 14.1324C12.3808 13.9872 12.3808 13.7663 12.2491 13.622L10.6332 12.0087C10.4841 11.8617 10.2436 11.8617 10.0945 12.0087Z" fill="#5D5C75"/>
<path d="M3.71205 6.17622C3.8474 6.33783 4.08883 6.35974 4.25071 6.22461C4.41258 6.08948 4.43452 5.84844 4.29917 5.68683C4.28454 5.66948 4.26808 5.65305 4.25071 5.63844L2.63474 4.0251C2.49391 3.86897 2.25247 3.8571 2.09609 3.99771C1.9397 4.13832 1.92782 4.37936 2.06865 4.53549C2.07688 4.54462 2.08603 4.55375 2.09609 4.56288L3.71205 6.17622Z" fill="#5D5C75"/>
<path d="M10.3643 6.28761C10.4649 6.28852 10.5627 6.25017 10.635 6.17987L12.251 4.56653C12.4073 4.42593 12.4192 4.18488 12.2784 4.02875C12.1376 3.87263 11.8961 3.86076 11.7397 4.00136C11.7306 4.00958 11.7214 4.01871 11.7123 4.02875L10.0963 5.64209C9.95093 5.79457 9.95642 6.03652 10.1091 6.1817C10.1786 6.24835 10.271 6.28578 10.367 6.28761H10.3643Z" fill="#5D5C75"/>
<path d="M3.71205 12.0087L2.09609 13.622C1.94793 13.7709 1.94793 14.011 2.09609 14.1598C2.24515 14.3077 2.48567 14.3077 2.63474 14.1598L4.2507 12.5465C4.41258 12.4113 4.43452 12.1703 4.29917 12.0087C4.16382 11.8471 3.92239 11.8252 3.76052 11.9603C3.74314 11.9749 3.72668 11.9914 3.71205 12.0087Z" fill="#5D5C75"/>
<path d="M61.6956 31.5166C61.5657 31.0446 61.3819 30.4055 61.1606 29.6385C60.0769 25.8814 59.2867 22.8866 58.7197 20.5018C57.0388 13.4394 57.3132 11.7311 57.7247 11.4244C59.4925 10.9879 62.2909 14.8565 63.3737 16.8021C63.5063 17.0395 63.7569 17.171 64.0377 17.1683C64.3102 17.1537 64.5507 16.9866 64.6586 16.7355C66.5005 12.4451 62.8543 8.76194 61.0353 7.26638C62.4848 6.71765 63.7148 7.09838 63.7734 7.11665C64.0752 7.21799 64.4071 7.10843 64.5882 6.84821C64.7702 6.58708 64.7583 6.23922 64.5599 5.99178C62.0806 2.89842 56.9099 3.17507 54.7736 3.44441C55.0534 2.10407 55.9002 1.22938 55.9085 1.22117C56.1362 0.994733 56.1837 0.643214 56.0255 0.362912C55.8664 0.0835224 55.5399 -0.0579983 55.2281 0.0223489C52.8979 0.60304 51.0377 2.04381 50.2649 2.71672L46.4075 0.791126C46.1496 0.660562 45.8368 0.699822 45.6173 0.890647C45.3988 1.08056 45.3155 1.38277 45.4079 1.65668L46.573 5.14996C40.4283 6.441 40.3543 13.517 40.3543 13.5928C40.3543 13.9599 40.6341 14.2675 41.0008 14.3041C41.3584 14.3315 41.7014 14.0932 41.7736 13.7325C42.0836 12.1849 43.8743 11.2007 45.5881 10.6309C44.07 12.7802 44.0919 15.7101 44.4586 18.0192C44.7778 20.0233 45.3576 21.5618 45.418 21.7188C45.5478 22.0558 45.91 22.2438 46.2612 22.1553C46.6123 22.0676 46.8428 21.7316 46.798 21.3728C46.6498 20.1859 46.9233 19.0564 47.4354 18.0192C48.7331 15.386 51.5617 13.3518 52.8869 12.5045C53.388 14 53.8014 16.1201 54.138 18.42C54.9107 23.6965 55.2811 29.9179 55.3771 31.7148H56.8129C56.727 30.0457 56.3904 24.1713 55.6533 18.8893C55.2207 15.785 54.6501 12.8861 53.9112 11.1651C53.8316 10.9797 53.6779 10.8364 53.4868 10.7697C53.2957 10.7049 53.0863 10.7213 52.9097 10.8181C52.6418 10.9642 47.6348 13.738 45.9054 17.9115C45.4527 15.1642 45.5103 11.4609 48.5575 9.93975C48.8676 9.78454 49.0221 9.43028 48.9243 9.09702C48.8255 8.76468 48.4981 8.55103 48.1579 8.58846C47.9585 8.61129 44.6388 9.00115 42.3754 10.609C42.4247 10.4766 42.4787 10.3424 42.5354 10.2073C43.4966 7.96942 45.2003 6.7003 47.5991 6.43461C47.814 6.41087 48.007 6.29035 48.124 6.10865C48.2402 5.92605 48.2685 5.70235 48.2 5.49692L47.3138 2.84272L50.0656 4.21684C50.3418 4.3538 50.6737 4.30175 50.8932 4.08262C50.9079 4.06802 52.0254 2.96415 53.6825 2.1269C53.4374 2.73498 53.2527 3.46632 53.2527 4.29262C53.2527 4.50719 53.3487 4.70897 53.5152 4.84592C53.6807 4.98105 53.8993 5.03492 54.1096 4.99383C54.1645 4.98197 58.7682 4.09358 61.8044 5.60283C61.0435 5.70966 60.1738 5.97991 59.3041 6.55878C59.1047 6.69117 58.9849 6.91486 58.9849 7.15408C58.9849 7.3933 59.1047 7.61608 59.3041 7.74938C59.3562 7.78408 63.9179 10.8711 63.7112 14.62C62.3668 12.6104 59.8053 9.42754 57.3781 10.0375C57.1083 10.1041 56.7279 10.2867 56.4471 10.7706C55.7146 12.0407 56.0164 15.0884 56.994 19.4737C57.6534 22.431 58.62 25.9964 59.7842 30.0339C59.9598 30.6438 60.1107 31.1697 60.2305 31.5952C59.7476 31.628 59.2712 31.6673 58.8011 31.7148" fill="#5D5C75"/>
<path d="M8.79406 37.3263H5.55482C4.92379 37.3263 4.41166 36.815 4.41166 36.185C4.41166 35.555 4.92379 35.0437 5.55482 35.0437H8.79406C9.42508 35.0437 9.93721 35.555 9.93721 36.185C9.93721 36.815 9.42508 37.3263 8.79406 37.3263Z" fill="#5D5C75"/>
<path d="M70.5244 39.6089H67.2851C66.6541 39.6089 66.142 39.0976 66.142 38.4676C66.142 37.8376 66.6541 37.3263 67.2851 37.3263H70.5244C71.1554 37.3263 71.6675 37.8376 71.6675 38.4676C71.6675 39.0976 71.1554 39.6089 70.5244 39.6089Z" fill="#5D5C75"/>
<path d="M28.417 32.7611H18.0874C16.017 32.7611 14.1651 31.691 13.1335 29.8987C12.101 28.1055 12.1083 25.9681 13.1518 24.1813L14.3159 22.19C14.6342 21.6458 15.3338 21.4623 15.8798 21.78C16.4248 22.0978 16.6087 22.7962 16.2904 23.3413L15.1262 25.3317C14.5007 26.4036 14.497 27.6855 15.1162 28.762C15.7353 29.8376 16.8455 30.4794 18.0874 30.4794H28.417C29.048 30.4794 29.5601 30.9907 29.5601 31.6207C29.5601 32.2507 29.048 32.7611 28.417 32.7611Z" fill="#5D5C75"/>
<path d="M45.6494 53.3044H26.0465C25.4155 53.3044 24.9034 52.7931 24.9034 52.1632C24.9034 51.5332 25.4155 51.0219 26.0465 51.0219H45.6494C46.2804 51.0219 46.7925 51.5332 46.7925 52.1632C46.7925 52.7931 46.2804 53.3044 45.6494 53.3044Z" fill="#5D5C75"/>
<path d="M64.6943 52.2645C64.1931 52.2645 63.7313 51.934 63.5914 51.4291C63.4249 50.831 63.7642 50.2138 64.355 50.033L70.6497 47.9376L69.8522 37.5993C69.7315 36.0051 68.5408 34.7223 66.9568 34.4804L55.6798 32.7474C55.4229 32.7082 55.1869 32.5822 55.0113 32.3904L46.5108 23.1341C45.8954 22.4648 45.2058 21.8613 44.4623 21.3408C43.9621 20.9902 43.4298 20.6734 42.8811 20.3986C42.4878 20.2005 42.0754 20.0206 41.652 19.8626C41.1965 19.6919 40.7292 19.5476 40.2628 19.4326C39.2751 19.1888 38.2591 19.0646 37.2421 19.0646H16.2118C14.9845 19.0646 13.8431 19.7257 13.2332 20.7903L6.69888 32.216V47.2775C6.69888 48.2681 7.12962 49.2113 7.87953 49.8632C8.356 50.2768 8.40538 50.9981 7.99111 51.4738C7.57683 51.9495 6.85435 51.9988 6.37789 51.5852C5.12865 50.4987 4.41258 48.9292 4.41258 47.2775V31.9129C4.41258 31.7148 4.4647 31.5194 4.56256 31.3468L11.2477 19.6581C12.2638 17.8841 14.1651 16.7821 16.2108 16.7821H37.2412C38.4438 16.7821 39.6446 16.9281 40.8106 17.2167C41.3621 17.3527 41.9154 17.5234 42.4531 17.7252C42.9533 17.9124 43.4426 18.1251 43.9072 18.3589C44.5537 18.6821 45.1829 19.0573 45.7746 19.4719C46.6526 20.0863 47.4665 20.7994 48.1945 21.591L56.4243 30.5525L67.3025 32.2242C69.9437 32.6287 71.9291 34.768 72.1303 37.4267L72.9963 48.6507C73.0366 49.173 72.7156 49.655 72.2181 49.8212L65.0564 52.2052C65.0382 52.2115 65.0199 52.217 65.0007 52.2225C64.8982 52.2508 64.7958 52.2645 64.6943 52.2645Z" fill="#5D5C75"/>
<path d="M56.9958 62.4348C51.9532 62.4348 47.8506 58.3389 47.8506 53.3044C47.8506 48.27 51.9532 44.1741 56.9958 44.1741C62.0385 44.1741 66.1411 48.27 66.1411 53.3044C66.1411 58.3389 62.0385 62.4348 56.9958 62.4348ZM56.9958 46.4567C53.2134 46.4567 50.1369 49.5281 50.1369 53.3044C50.1369 57.0808 53.2134 60.1522 56.9958 60.1522C60.7783 60.1522 63.8548 57.0808 63.8548 53.3044C63.8548 49.5281 60.7783 46.4567 56.9958 46.4567Z" fill="#5D5C75"/>
<path d="M18.1286 62.4348C13.0859 62.4348 8.98336 58.3389 8.98336 53.3044C8.98336 48.27 13.0859 44.1741 18.1286 44.1741C23.1713 44.1741 27.2738 48.27 27.2738 53.3044C27.2738 58.3389 23.1713 62.4348 18.1286 62.4348ZM18.1286 46.4567C14.347 46.4567 11.2697 49.5281 11.2697 53.3044C11.2697 57.0808 14.347 60.1522 18.1286 60.1522C21.9102 60.1522 24.9875 57.0808 24.9875 53.3044C24.9875 49.5281 21.9102 46.4567 18.1286 46.4567Z" fill="#5D5C75"/>
<path d="M56.9958 57.8696C54.4745 57.8696 52.4232 55.8217 52.4232 53.3044C52.4232 50.7872 54.4745 48.7393 56.9958 48.7393C59.5172 48.7393 61.5685 50.7872 61.5685 53.3044C61.5685 55.8217 59.5172 57.8696 56.9958 57.8696ZM56.9958 51.0219C55.7347 51.0219 54.7095 52.0454 54.7095 53.3044C54.7095 54.5635 55.7347 55.587 56.9958 55.587C58.257 55.587 59.2822 54.5635 59.2822 53.3044C59.2822 52.0454 58.257 51.0219 56.9958 51.0219Z" fill="#5D5C75"/>
<path d="M18.1286 57.8696C15.6073 57.8696 13.556 55.8217 13.556 53.3044C13.556 50.7872 15.6073 48.7393 18.1286 48.7393C20.6499 48.7393 22.7012 50.7872 22.7012 53.3044C22.7012 55.8217 20.6499 57.8696 18.1286 57.8696ZM18.1286 51.0219C16.8675 51.0219 15.8423 52.0454 15.8423 53.3044C15.8423 54.5635 16.8675 55.587 18.1286 55.587C19.3897 55.587 20.4149 54.5635 20.4149 53.3044C20.4149 52.0454 19.3897 51.0219 18.1286 51.0219Z" fill="#5D5C75"/>
<path d="M55.8527 32.7611H34.1328C33.5347 32.7611 33.0372 32.3009 32.9923 31.7047L32.3156 22.6629C32.269 22.0348 32.7409 21.4869 33.37 21.4395C33.9992 21.392 34.548 21.864 34.5955 22.4922L35.1936 30.4776H55.8527C56.4837 30.4776 56.9958 30.9889 56.9958 31.6189C56.9958 32.2489 56.4837 32.7611 55.8527 32.7611Z" fill="#5D5C75"/>
<path d="M46.7075 48.7393H28.417C27.786 48.7393 27.2738 48.228 27.2738 47.598C27.2738 46.968 27.786 46.4567 28.417 46.4567H46.7075C47.3385 46.4567 47.8506 46.968 47.8506 47.598C47.8506 48.228 47.3385 48.7393 46.7075 48.7393Z" fill="#5D5C75"/>
<path d="M70.5244 46.4567H67.2851C66.6541 46.4567 66.142 45.9454 66.142 45.3154C66.142 44.6854 66.6541 44.1741 67.2851 44.1741H70.5244C71.1554 44.1741 71.6675 44.6854 71.6675 45.3154C71.6675 45.9454 71.1554 46.4567 70.5244 46.4567Z" fill="#5D5C75"/>
<path d="M56.9958 62.4348H10.1631C9.53208 62.4348 9.01994 61.9235 9.01994 61.2935C9.01994 60.6635 9.53208 60.1522 10.1631 60.1522H56.9958C57.6269 60.1522 58.139 60.6635 58.139 61.2935C58.139 61.9235 57.6269 62.4348 56.9958 62.4348Z" fill="#5D5C75"/>
<path d="M5.78253 62.4348H5.5539C4.92288 62.4348 4.41075 61.9235 4.41075 61.2935C4.41075 60.6635 4.92288 60.1522 5.5539 60.1522H5.78253C6.41355 60.1522 6.92569 60.6635 6.92569 61.2935C6.92569 61.9235 6.41355 62.4348 5.78253 62.4348Z" fill="#5D5C75"/>
<path d="M71.8568 67H30.7033C30.0723 67 29.5601 66.4887 29.5601 65.8587C29.5601 65.2287 30.0723 64.7174 30.7033 64.7174H71.8568C72.4879 64.7174 73 65.2287 73 65.8587C73 66.4887 72.4879 67 71.8568 67Z" fill="#5D5C75"/>
<path d="M37.886 9.94615C37.9225 9.96897 37.9591 9.99362 37.9957 10.0192V9.51337C37.9957 9.66676 37.9573 9.81558 37.886 9.94615ZM16.0179 9.51337V9.95436C16.0462 9.93519 16.0755 9.91693 16.1048 9.89958C16.0481 9.78089 16.0179 9.6485 16.0179 9.51337Z" fill="#5D5C75"/>
<path d="M37.9957 10.0192C37.9591 9.99362 37.9225 9.96897 37.886 9.94615C37.9573 9.81558 37.9957 9.66676 37.9957 9.51337V2.35333C37.9957 1.84934 37.5869 1.4403 37.0812 1.4403H16.9324C16.4276 1.4403 16.0179 1.84934 16.0179 2.35333L16.0179 9.51337C16.0179 9.6485 16.0481 9.78089 16.1048 9.89958C16.0755 9.91693 16.0462 9.93519 16.0179 9.95436C14.7604 10.7706 13.9264 12.1858 13.9264 13.7919C13.9264 15.3102 14.6717 16.6597 15.8167 17.4924C16.573 18.043 17.504 18.3689 18.5109 18.3689H35.4049C36.4108 18.3689 37.3427 18.043 38.099 17.4933C39.244 16.6597 39.9894 15.3102 39.9894 13.7919C39.9894 12.2735 39.1992 10.8437 37.9957 10.0192ZM17.8469 3.26637H36.1667V8.34833C36.1667 8.34833 36.1621 8.34833 36.1603 8.34833C36.1036 8.34103 36.0478 8.33464 35.9911 8.32916H35.9892C35.9298 8.32277 35.8713 8.3182 35.8118 8.31455C35.7624 8.3109 35.7131 8.30816 35.6637 8.30725C35.6381 8.30542 35.6115 8.30451 35.5859 8.30451C35.542 8.30359 35.4972 8.30268 35.4533 8.30268H18.5593C18.5154 8.30268 18.4715 8.30268 18.4276 8.30451C18.4011 8.30451 18.3755 8.30542 18.3499 8.30725C18.3005 8.30816 18.2511 8.3109 18.2018 8.31455C18.1423 8.3182 18.0838 8.32277 18.0243 8.32916H18.0225C17.9658 8.33464 17.91 8.34103 17.8533 8.34833C17.8515 8.34833 17.8488 8.34833 17.8469 8.34833V3.26637ZM34.344 16.3593H19.5726C17.7847 16.3593 16.3316 15.1057 16.3316 13.5654C16.3316 12.4205 17.1327 11.4353 18.2786 11.0044H35.6381C36.784 11.4353 37.5851 12.4205 37.5851 13.5654C37.5851 15.1057 36.1319 16.3593 34.344 16.3593Z" fill="#5D5C75"/>
</svg>
