<svg width="67" height="65" viewBox="0 0 67 65" fill="none" xmlns="http://www.w3.org/2000/svg">
<path d="M46.9116 33.517L46.2921 33.598C45.885 33.6512 45.5893 34.0095 45.6195 34.4159L45.7198 35.7685L44.3252 35.9517C44.2183 35.9655 44.1195 36.0005 44.0324 36.0516L53.5587 45.4773L49.3756 49.6163L40.5713 40.9049L40.2491 40.9472C39.8412 41.0005 39.5462 41.3594 39.5765 41.7651L39.676 43.1185L38.2814 43.3009C38.0904 43.3264 37.9237 43.4184 37.8042 43.5511L49.3756 55L59 45.4773L46.9116 33.517ZM29.6069 16.3955C32.4611 8.90985 39.1022 4.77813 39.1723 4.73509L42.5412 2.67543L38.8257 1.32714C38.3434 1.15276 26.9364 -2.86878 19.9914 4.00257L9.29914 14.5817L10.0772 16.1496L9.3574 16.8625L7.77251 16.092L0 23.782L11.6141 35.2731L19.3867 27.5832L18.6086 26.0153L19.3284 25.3032L19.3911 25.3338L28.2455 34.0948L30.9669 31.4026L23.2128 23.7302L27.3959 19.5919L35.15 27.2643L37.8714 24.5721L29.6069 16.3955ZM25.7107 15.8753L20.0924 21.4334L18.554 20.6856L13.9417 25.2492L14.7198 26.8171L11.6141 29.8894L5.44127 23.782L8.54689 20.7096L10.1318 21.4794L14.7441 16.9157L13.966 15.3478L22.7128 6.69406C25.8494 3.59035 30.5517 3.567 33.8085 4.04489C31.1483 6.40222 27.5795 10.3705 25.7107 15.8753Z" fill="#5D5C75"/>
<path d="M24.6535 56.219L16.7748 48.3354C16.288 47.8483 15.6412 47.5805 14.9531 47.5805C14.2651 47.5805 13.6183 47.8483 13.1315 48.3354L12.5179 48.9494C12.0312 49.4364 11.7635 50.0836 11.7635 50.7721C11.7635 51.4606 12.0312 52.1086 12.5179 52.5949L20.3966 60.4793C20.8989 60.9818 21.5582 61.2327 22.2183 61.2327C22.8783 61.2327 23.5376 60.9818 24.0391 60.4793L24.6535 59.8645C25.1557 59.3627 25.4065 58.7022 25.4065 58.0418C25.4065 57.3813 25.1557 56.7216 24.6535 56.219ZM23.5553 58.7657L22.941 59.3797C22.542 59.7789 21.8938 59.7789 21.4948 59.3797L13.6161 51.4961C13.4228 51.3027 13.3166 51.0459 13.3166 50.7721C13.3166 50.4983 13.4228 50.2423 13.6161 50.0489L14.2297 49.4342C14.4229 49.2409 14.6803 49.1346 14.9531 49.1346C15.226 49.1346 15.4834 49.2409 15.6766 49.4342L23.5553 57.3186C23.9543 57.7171 23.9543 58.3665 23.5553 58.7657ZM24.6535 56.219L16.7748 48.3354C16.288 47.8483 15.6412 47.5805 14.9531 47.5805C14.2651 47.5805 13.6183 47.8483 13.1315 48.3354L12.5179 48.9494C12.0312 49.4364 11.7635 50.0836 11.7635 50.7721C11.7635 51.4606 12.0312 52.1086 12.5179 52.5949L20.3966 60.4793C20.8989 60.9818 21.5582 61.2327 22.2183 61.2327C22.8783 61.2327 23.5376 60.9818 24.0391 60.4793L24.6535 59.8645C25.1557 59.3627 25.4065 58.7022 25.4065 58.0418C25.4065 57.3813 25.1557 56.7216 24.6535 56.219ZM23.5553 58.7657L22.941 59.3797C22.542 59.7789 21.8938 59.7789 21.4948 59.3797L13.6161 51.4961C13.4228 51.3027 13.3166 51.0459 13.3166 50.7721C13.3166 50.4983 13.4228 50.2423 13.6161 50.0489L14.2297 49.4342C14.4229 49.2409 14.6803 49.1346 14.9531 49.1346C15.226 49.1346 15.4834 49.2409 15.6766 49.4342L23.5553 57.3186C23.9543 57.7171 23.9543 58.3665 23.5553 58.7657ZM66.9985 11.7754L66.8584 9.52164C66.8399 9.23015 66.6607 8.97408 66.393 8.85748L61.406 6.68788C57.7775 5.25107 53.6498 6.10637 50.89 8.86781L19.9099 39.868L19.1798 38.8998C19.0441 38.7205 18.8376 38.6083 18.6134 38.5928C18.3892 38.5773 18.1694 38.6593 18.0101 38.8187L9.57972 47.2543C7.47342 49.3626 7.47342 52.7919 9.57972 54.9003L18.0934 63.4186C19.1466 64.4731 20.5301 65 21.9137 65C23.2972 65 24.6815 64.4731 25.7361 63.4186L32.0602 57.0905C32.3345 56.8168 32.3648 56.3821 32.131 56.0729L31.1575 54.7815L32.1915 54.6449C32.5993 54.5911 32.8943 54.228 32.8641 53.8177L32.7557 52.33L34.151 52.1447C34.5581 52.0909 34.8531 51.7278 34.8236 51.3167L34.7233 49.9486L36.1061 49.7648C36.511 49.7117 36.8053 49.3545 36.7795 48.9464L36.6843 47.4159L38.236 47.2107C38.6439 47.1569 38.9389 46.7938 38.9094 46.3835L38.8172 45.1304L38.7995 44.895L40.1948 44.7105C40.6027 44.6559 40.8977 44.2936 40.8674 43.8833L40.7671 42.5144L42.1507 42.3306C42.5548 42.2767 42.8491 41.9196 42.824 41.5122L42.7289 39.9817L44.2798 39.7765C44.6877 39.7227 44.9827 39.3596 44.9524 38.9493L44.8433 37.4608L44.9473 37.4468L46.2386 37.2763C46.6457 37.2217 46.9415 36.8586 46.9112 36.4483L46.8109 35.0802L48.1945 34.8971C48.5986 34.8433 48.8929 34.4861 48.8671 34.078L48.7727 32.5482L50.3236 32.3423C50.7315 32.2877 51.0265 31.9254 50.9962 31.5151L50.8871 30.0266L52.2824 29.8421C52.6895 29.7882 52.9845 29.4244 52.955 29.0141L52.8547 27.6459L54.2376 27.4622C54.6424 27.4091 54.936 27.0519 54.9109 26.6438L54.8158 25.1133L56.3674 24.9081C56.7753 24.8542 57.0703 24.4912 57.0401 24.0809L56.9309 22.5924L58.3255 22.4079C58.7333 22.3533 59.0284 21.9902 58.9989 21.5799L58.8978 20.211L60.2814 20.028C60.6855 19.9748 60.9798 19.6169 60.9547 19.2096L60.8596 17.6791L62.4113 17.4739C62.8184 17.4193 63.1141 17.057 63.0839 16.6466L62.9747 15.1582L64.3693 14.9737C64.7772 14.9191 65.0722 14.556 65.0419 14.1457L64.9416 12.7775L66.3252 12.5945C66.7293 12.5406 67.0236 12.1835 66.9985 11.7754ZM24.6358 62.3197C23.135 63.8215 20.6931 63.8215 19.1916 62.3197L10.6779 53.8007C9.17705 52.299 9.17705 49.8556 10.6779 48.3531L18.4777 40.5492L28.8971 54.3667C28.8971 54.3667 28.9 54.3697 28.9007 54.3712L30.4827 56.4692L24.6358 62.3197ZM64.0102 11.3341C63.6031 11.3879 63.3073 11.751 63.3376 12.1613L63.4379 13.5302L62.0432 13.7147C61.6354 13.7693 61.3404 14.1317 61.3706 14.542L61.4798 16.0305L59.9428 16.2341C59.8595 16.2437 59.7806 16.2673 59.7076 16.302C59.6036 16.3515 59.5121 16.4223 59.4413 16.5079C59.4413 16.5079 59.4406 16.5086 59.4399 16.5094C59.3669 16.5972 59.313 16.702 59.2843 16.8164C59.2651 16.8939 59.2577 16.975 59.2636 17.0592L59.358 18.5831L57.9664 18.7675C57.5585 18.8214 57.2635 19.1845 57.2937 19.5948L57.3941 20.9637L55.9994 21.1489C55.5916 21.2028 55.2966 21.5652 55.3268 21.9762L55.4352 23.4639L53.8983 23.6676C53.8179 23.6779 53.7412 23.7001 53.6704 23.7325C53.562 23.7827 53.4669 23.8558 53.3931 23.9465C53.3208 24.0358 53.267 24.1406 53.2397 24.255C53.2397 24.255 53.2397 24.2555 53.2397 24.2565C53.2213 24.3318 53.2139 24.4115 53.2198 24.4926L53.3142 26.0173L51.9225 26.201C51.5147 26.2556 51.2197 26.6187 51.2499 27.029L51.3502 28.3972L49.9556 28.5824C49.5478 28.6363 49.2528 28.9994 49.283 29.4097L49.3922 30.8974L47.8552 31.1011C47.7719 31.1114 47.693 31.135 47.62 31.169C47.5167 31.2184 47.426 31.2885 47.3552 31.3734C47.3552 31.3741 47.3545 31.3749 47.3537 31.3749C47.2807 31.4634 47.2261 31.5682 47.1974 31.6826C47.1974 31.6826 47.1971 31.6828 47.1966 31.6833C47.1775 31.7615 47.1694 31.8435 47.176 31.9283L47.2704 33.4515L45.8787 33.636C45.4716 33.6898 45.1759 34.0522 45.2061 34.4632L45.3064 35.8314L43.9118 36.0166C43.8049 36.0306 43.7061 36.0661 43.619 36.1177C43.372 36.2638 43.2171 36.5406 43.2392 36.8439L43.3484 38.3323L41.8107 38.536C41.7303 38.5456 41.6543 38.5678 41.5828 38.6002C41.5828 38.601 41.5828 38.601 41.5813 38.601C41.4744 38.6504 41.3815 38.7227 41.3084 38.8113C41.3084 38.812 41.3077 38.812 41.3077 38.812C41.2354 38.9006 41.1816 39.0054 41.1528 39.119V39.1205C41.1337 39.1972 41.1263 39.2784 41.1322 39.3611L41.2273 40.8849L39.8357 41.0694C39.4278 41.1233 39.1328 41.4864 39.1631 41.8967L39.2626 43.2656L37.868 43.4501C37.677 43.4759 37.5103 43.5689 37.3908 43.7032C37.2551 43.8552 37.1792 44.0596 37.1954 44.2781L37.3046 45.7658L35.7669 45.9695C35.6857 45.9791 35.6083 46.002 35.5375 46.0352C35.5368 46.0359 35.5368 46.0352 35.536 46.0359C35.4298 46.0846 35.3376 46.1569 35.2646 46.2455C35.2646 46.2462 35.2639 46.2462 35.2639 46.2462C35.1909 46.3348 35.137 46.4403 35.109 46.5547C35.109 46.5547 35.1088 46.5552 35.1083 46.5562C35.0898 46.6322 35.0825 46.7126 35.0884 46.7945L35.1828 48.3191L33.7918 48.5036C33.384 48.5575 33.089 48.9206 33.1192 49.3309L33.2195 50.6991L31.8242 50.8843C31.4164 50.9382 31.1214 51.3012 31.1516 51.7116L31.2607 53.2L30.0815 53.3557L20.8546 41.1204L51.9874 9.96811C54.3091 7.64501 57.782 6.9255 60.8094 8.12469L65.3362 10.0943L65.4018 11.1496L64.0102 11.3341ZM16.7748 48.3354C16.288 47.8483 15.6412 47.5805 14.9531 47.5805C14.2651 47.5805 13.6183 47.8483 13.1315 48.3354L12.5179 48.9494C12.0312 49.4364 11.7635 50.0836 11.7635 50.7721C11.7635 51.4606 12.0312 52.1086 12.5179 52.5949L20.3966 60.4793C20.8989 60.9818 21.5582 61.2327 22.2183 61.2327C22.8783 61.2327 23.5376 60.9818 24.0391 60.4793L24.6535 59.8645C25.1557 59.3627 25.4065 58.7022 25.4065 58.0418C25.4065 57.3813 25.1557 56.7216 24.6535 56.219L16.7748 48.3354ZM23.5553 58.7657L22.941 59.3797C22.542 59.7789 21.8938 59.7789 21.4948 59.3797L13.6161 51.4961C13.4228 51.3027 13.3166 51.0459 13.3166 50.7721C13.3166 50.4983 13.4228 50.2423 13.6161 50.0489L14.2297 49.4342C14.4229 49.2409 14.6803 49.1346 14.9531 49.1346C15.226 49.1346 15.4834 49.2409 15.6766 49.4342L23.5553 57.3186C23.9543 57.7171 23.9543 58.3665 23.5553 58.7657Z" fill="#5D5C75"/>
</svg>
