<svg width="63" height="62" viewBox="0 0 63 62" fill="none" xmlns="http://www.w3.org/2000/svg">
<path fill-rule="evenodd" clip-rule="evenodd" d="M35.105 17.4594C34.1024 17.5125 33.2619 18.2326 33.0556 19.2148C32.8049 20.4113 33.5719 21.5848 34.7685 21.8355C38.3838 22.5972 40.659 26.0911 39.8974 29.7064C39.6467 30.903 40.4137 32.0765 41.6103 32.3271C42.805 32.5778 43.9776 31.8134 44.2309 30.6187C45.4859 24.6616 41.6386 18.7578 35.6816 17.5019C35.4929 17.4629 35.299 17.4479 35.1068 17.4585L35.105 17.4594Z" fill="#5D5C75"/>
<path fill-rule="evenodd" clip-rule="evenodd" d="M36.8135 8.80199C35.8596 8.90561 35.0811 9.6106 34.8845 10.5494C34.6338 11.7442 35.3982 12.9168 36.5929 13.1701C44.9944 14.9406 50.3332 23.1303 48.5636 31.5318C48.3112 32.7283 49.0756 33.9027 50.2721 34.156C50.2739 34.156 50.2747 34.156 50.2765 34.156C51.4731 34.4067 52.6466 33.6397 52.8972 32.4431C55.161 21.7 48.2501 11.0985 37.5061 8.83564C37.2784 8.78782 37.0455 8.7763 36.8144 8.8011L36.8135 8.80199Z" fill="#5D5C75"/>
<path fill-rule="evenodd" clip-rule="evenodd" d="M38.4652 0.161404C37.5858 0.32791 36.8932 1.00722 36.7098 1.88226C36.4592 3.07703 37.2235 4.24965 38.4183 4.50295C51.6068 7.28129 60.0082 20.1687 57.2299 33.3563C56.9775 34.5528 57.7418 35.7272 58.9384 35.9805C58.9401 35.9805 58.941 35.9805 58.9428 35.9805C60.1393 36.2311 61.3128 35.4642 61.5635 34.2676C64.8351 18.7392 54.8598 3.44192 39.3305 0.170261C39.0454 0.110036 38.7513 0.107379 38.4652 0.161404Z" fill="#5D5C75"/>
<path fill-rule="evenodd" clip-rule="evenodd" d="M11.0263 0.00109833C8.84583 -0.0378711 6.81588 0.960277 5.59897 2.97606C-1.68477 15.0477 -1.90707 30.2068 5.19688 42.5504C5.19865 42.5548 5.19953 42.5592 5.2013 42.5637C12.3681 54.8727 25.6381 62.2512 39.7592 61.9935C42.4499 61.9448 44.5223 60.3116 45.4549 57.9327L48.638 49.8111C49.7779 46.9017 48.909 43.5636 46.4929 41.5815L40.7804 36.898C37.8409 34.4864 33.3417 35.2941 31.4224 38.5764L29.2817 42.2307C25.639 40.3291 22.385 37.6146 20.2258 33.893V33.8885C17.9682 29.9792 17.2792 25.5925 17.575 21.3041L21.6269 21.5636C25.4114 21.8071 28.5174 18.3681 27.893 14.627L26.6823 7.36632C26.1686 4.28508 23.7162 1.8672 20.6279 1.39868L11.9687 0.0834655C11.6534 0.0356394 11.3372 0.00641234 11.0263 0.00109833ZM11.3027 4.45955L19.9601 5.77831C21.1717 5.96253 22.1114 6.88717 22.3124 8.09611L23.5231 15.3568C23.6941 16.3851 22.9457 17.2096 21.9059 17.1432L15.5096 16.7323C14.3706 16.6596 13.3636 17.4647 13.1829 18.5922C12.2433 24.465 13.2538 30.6753 16.3917 36.1063V36.1107C19.3897 41.2786 23.966 45.1392 29.2056 47.3286C30.2285 47.7555 31.4091 47.3596 31.9689 46.403L35.2423 40.8074C35.8295 39.8039 37.0721 39.5816 37.971 40.3185L43.6792 45.0063C44.6251 45.7822 44.9554 47.0549 44.5099 48.1939L41.3313 56.3154C41.1781 56.7078 39.9638 57.5598 39.6795 57.5651C27.1508 57.7936 15.3856 51.2521 9.02739 40.3318C2.73295 29.3832 2.93576 15.9679 9.3914 5.26905C9.53842 5.0255 10.8864 4.39756 11.3027 4.46044V4.45955Z" fill="#5D5C75"/>
</svg>
