<svg width="75" height="48" viewBox="0 0 75 48" fill="none" xmlns="http://www.w3.org/2000/svg">
<path d="M36.7706 32.0877C36.6351 31.0189 36.2129 29.7507 35.5677 28.4506C35.4642 28.2433 35.3526 28.0279 35.2331 27.8205C34.7632 28.323 34.2772 28.8175 33.7834 29.328C34.3489 30.4766 34.6994 31.6092 34.795 32.343C34.803 32.3908 34.7871 32.3829 34.795 32.4307C34.556 32.3031 34.3091 32.2233 33.7913 31.657C33.4567 31.2981 33.1063 30.8594 32.7558 30.3809C32.5008 30.6281 32.2539 30.8833 32.007 31.1306C31.7839 31.3539 31.5609 31.5773 31.3378 31.8006C31.6565 32.2313 31.9831 32.6301 32.3176 32.997C33.17 33.9382 34.0144 34.7916 35.273 34.7358C35.9182 34.7039 36.5077 34.1296 36.6829 33.6271C36.8582 33.1166 36.8423 32.6301 36.7706 32.0877ZM74.8316 36.4267C74.3935 34.5842 73.2782 32.9252 72.0515 31.6251C70.076 29.5194 67.1047 28.1396 64.7308 27.3021C64.1095 26.3928 62.7951 24.7976 60.9152 23.5294C59.8955 22.8435 58.7325 22.2851 57.45 22.1735C56.1834 22.0538 54.7974 22.4606 53.6503 23.5374L52.9095 24.2313C52.8139 24.1117 52.7262 23.8883 52.6227 23.7767C51.5393 22.6201 49.9222 21.0489 47.8113 20.3151C45.7003 19.5813 43.0397 19.8684 40.5623 22.1974L40.0605 22.668C40.0605 22.668 40.0047 22.6122 39.9808 22.5803C39.5666 23.0668 39.1444 23.5613 38.6983 24.0558C39.0807 24.4945 39.5586 25.2044 40.0206 26.0578C40.6977 27.3021 41.3987 28.8415 42.1236 30.341C42.8485 31.8245 43.5973 33.2762 44.4417 34.4008C44.8639 34.9671 45.31 35.4616 45.8437 35.8285C46.3695 36.1874 47.0306 36.4347 47.7237 36.3629C48.4406 36.2911 49.0619 35.7567 49.3248 35.1665C49.5956 34.5842 49.6594 33.9621 49.6434 33.2762C49.6036 31.9123 49.1973 30.2851 48.5202 28.658C47.8511 27.0389 46.8952 25.4197 45.7003 24.1515C45.1029 23.5294 44.4417 22.995 43.7168 22.5962C44.9595 22.006 46.0986 21.8385 47.1581 22.1974C48.7114 22.7398 50.1612 24.0638 51.1649 25.1406C51.5314 25.5314 52.1527 26.5603 52.79 27.7647C53.4272 28.9771 54.1203 30.3888 54.8213 31.6969C55.5143 32.997 56.1994 34.1934 56.9561 35.0389C57.3385 35.4616 57.7288 35.8285 58.2944 36.0199C58.8679 36.2114 59.6486 36.0518 60.1186 35.6132C60.9709 34.8156 61.202 33.6351 61.1064 32.4865C61.0028 31.338 60.5965 30.1416 60.0071 28.9691C59.0751 27.1266 57.6412 25.5155 56.0401 24.343C56.4383 24.1835 56.8526 24.1196 57.2827 24.1595C58.0714 24.2313 58.9635 24.6142 59.8079 25.1884C61.4967 26.321 62.9943 28.2034 63.2731 28.658L63.4643 28.9452L63.7988 29.0648C66.0213 29.8225 68.9687 31.2502 70.6017 32.989C71.6532 34.1057 72.5772 35.5494 72.8959 36.8893C73.2145 38.2134 73.0472 39.3619 71.8444 40.4945C67.0887 44.9611 57.4819 45.7667 44.2346 45.3839C37.4477 45.1844 31.5051 44.8415 26.7176 43.9402C24.2083 43.4616 22.0257 42.8315 20.2174 42.002C19.7156 42.3928 19.2217 42.7757 18.7278 43.1346C18.6322 43.2064 18.5287 43.2782 18.4331 43.3499C20.6476 44.5224 23.3162 45.328 26.3512 45.9023C31.3378 46.8435 37.36 47.1785 44.1788 47.3779C57.5297 47.7607 67.6065 47.2104 73.2066 41.9462C74.8953 40.3589 75.2697 38.2612 74.8316 36.4267ZM44.2505 25.5234C45.2224 26.5523 46.0827 27.988 46.6881 29.4237C47.2855 30.8754 47.6201 32.335 47.652 33.324C47.6599 33.8265 47.5803 34.1934 47.5166 34.329C47.5006 34.3689 47.5166 34.3689 47.5166 34.3769C47.3811 34.3848 47.2298 34.3529 46.9749 34.1775C46.712 33.994 46.3774 33.667 46.0349 33.2044C45.3498 32.2951 44.6329 30.9232 43.916 29.4556C43.199 27.996 42.498 26.4407 41.7731 25.1087C41.5421 24.67 41.3032 24.3111 41.0642 23.9282H41.2394C42.2511 23.9282 43.2867 24.5025 44.2505 25.5234ZM56.2551 27.0229C57.0199 27.8604 57.7209 28.8654 58.2307 29.8624C58.7325 30.8674 59.0512 31.8804 59.1149 32.662C59.1786 33.3559 59.0113 33.7388 58.7883 34.01C58.7007 33.9462 58.621 33.9143 58.4458 33.7069C57.928 33.1246 57.2429 32.016 56.5738 30.7557C55.9046 29.4955 55.2116 28.0837 54.5584 26.8315C54.1442 26.0419 53.7379 25.5155 53.3396 24.9093L53.9132 25.1725C54.662 25.5155 55.4904 26.1854 56.2551 27.0229ZM35.273 34.7358C35.9182 34.7039 36.5077 34.1296 36.6829 33.6271C36.8582 33.1166 36.8423 32.6301 36.7706 32.0877C36.6351 31.0189 36.2129 29.7507 35.5677 28.4506C35.4642 28.2433 35.3526 28.0279 35.2331 27.8205C34.7632 28.323 34.2772 28.8175 33.7834 29.328C34.3489 30.4766 34.6994 31.6092 34.795 32.343C34.803 32.3908 34.7871 32.3829 34.795 32.4307C34.556 32.3031 34.3091 32.2233 33.7913 31.657C33.4567 31.2981 33.1063 30.8594 32.7558 30.3809C32.5008 30.6281 32.2539 30.8833 32.007 31.1306C31.7839 31.3539 31.5609 31.5773 31.3378 31.8006C31.6565 32.2313 31.9831 32.6301 32.3176 32.997C33.17 33.9382 34.0144 34.7916 35.273 34.7358Z" fill="#5D5C75"/>
<path d="M39.6144 0C36.7307 0 33.6878 1.22831 31.4573 2.39282C30.3739 2.21735 28.3108 2.08973 26.0963 2.59222C24.8934 2.86341 23.6906 3.334 22.7347 4.18744C21.7787 5.04088 21.1255 6.333 21.1255 7.90429V8.91725C20.9662 8.9013 20.7432 8.82154 20.5918 8.82154C19.0066 8.82154 16.7602 8.92522 14.7847 9.96211C12.8012 10.999 11.2 13.1366 11.2 16.5424V17.2363C10.8655 17.2363 10.507 17.1884 10.1963 17.2682C8.77841 17.6191 7.04981 18.1854 5.63985 19.5254C4.23785 20.8654 3.25008 22.9631 3.25008 25.9781V27.0389C3.25008 27.0389 3.18636 27.0628 3.16246 27.1107C1.99147 28.9771 0 33.7228 0 38.668C0 41.8185 0.700999 44.1476 1.97554 45.7188C3.25008 47.2901 5.08224 48 6.95422 48C10.7779 48 14.6333 46.1496 18.7358 43.1505C22.8302 40.1595 27.2035 35.988 32.0149 31.1386C41.4306 21.663 47.9228 13.9262 47.9228 6.22931C47.9228 3.90828 46.6483 2.2014 45.0153 1.2682C43.3743 0.327019 41.3987 0.00797607 39.6224 0.00797607L39.6144 0ZM39.6144 1.99402C41.1438 1.99402 42.8246 2.30508 44.0195 2.99103C45.2064 3.66899 45.9313 4.57827 45.9313 6.22134C45.9313 12.7458 39.949 20.3151 30.597 29.7268C25.8095 34.5523 21.492 38.66 17.5568 41.5234C13.6217 44.3868 10.1087 45.99 6.94626 45.99C5.54426 45.99 4.40514 45.5354 3.51296 44.4427C2.62078 43.35 1.98351 41.5075 1.98351 38.652C1.98351 34.5204 3.72804 30.2532 4.66005 28.6102C4.90699 28.6421 5.19376 28.682 5.60002 28.7617C6.57983 28.9452 7.9181 29.2323 9.31213 29.4796C10.7062 29.7268 12.148 29.9342 13.4225 29.9501C14.6971 29.9661 15.892 29.9342 16.7124 28.9771C17.1346 28.4905 17.1187 27.661 16.8638 27.1904C16.6089 26.7198 16.2425 26.3928 15.8043 26.0738C14.9281 25.4357 13.7173 24.8853 12.3312 24.4626C10.2202 23.8245 7.67912 23.4816 5.52833 24.1914C5.80714 22.7637 6.28509 21.655 7.00999 20.9691C8.02165 20.004 9.38382 19.5174 10.6663 19.2064C11.1045 19.1027 12.2754 19.2223 13.6376 19.5813C14.9998 19.9402 16.6089 20.4826 18.1941 20.9771C19.7793 21.4636 21.3406 21.9103 22.7426 22.0698C23.4436 22.1496 24.1048 22.1575 24.7341 22.0219C25.3634 21.8863 25.9927 21.5673 26.4149 21.0169C26.853 20.4506 26.8849 19.6291 26.6459 19.0309C26.4069 18.4327 25.9927 17.9621 25.4829 17.5075C24.4633 16.5982 23.0055 15.7846 21.3566 15.1705C19.7156 14.5484 17.8834 14.1336 16.1389 14.1496C15.2786 14.1575 14.4422 14.2772 13.6535 14.5404C14.0757 13.2323 14.7289 12.2752 15.7247 11.7488C17.1824 10.9831 19.1341 10.8315 20.6078 10.8315C21.1415 10.8315 22.3125 11.0788 23.6268 11.4377C24.9412 11.8046 26.4468 12.2672 27.8727 12.65C29.2986 13.0329 30.6368 13.3519 31.768 13.3759C32.3336 13.3918 32.8673 13.3519 33.401 13.0728C33.9347 12.7936 34.3489 12.1077 34.3489 11.4696C34.3489 10.2971 33.6479 9.31605 32.7478 8.60618C31.8397 7.88834 30.6926 7.36989 29.434 6.99502C27.4584 6.41276 25.2997 6.35693 23.356 6.7318C23.5153 6.32502 23.7463 5.98205 24.0729 5.69492C24.6624 5.16849 25.5546 4.78564 26.5503 4.55434C28.5338 4.0997 30.9316 4.29113 31.4493 4.39482L31.7919 4.45862L32.1026 4.2991C34.1816 3.19043 37.2326 2.00997 39.6144 2.00997V1.99402ZM25.451 8.38285C26.5822 8.3988 27.793 8.57428 28.8684 8.88534C29.9438 9.20439 30.8917 9.667 31.5131 10.1535C32.0627 10.5842 32.23 10.9671 32.2698 11.3101C32.1663 11.334 32.0866 11.3659 31.8158 11.3579C31.0351 11.334 29.7606 11.0708 28.3825 10.7039C27.0044 10.329 25.5148 9.87438 24.1526 9.49153C23.2923 9.25224 22.6311 9.18843 21.9142 9.06082L22.5036 8.82154C23.2684 8.51047 24.3199 8.3669 25.451 8.38285ZM16.1469 16.1276C17.5568 16.1196 19.1898 16.4786 20.6556 17.0209C22.1213 17.5713 23.4197 18.329 24.1526 18.9831C24.527 19.3101 24.7341 19.6211 24.7899 19.7647C24.8138 19.8126 24.8138 19.7966 24.8217 19.8046C24.7421 19.9083 24.6146 20.004 24.3119 20.0678C24.0012 20.1396 23.5312 20.1476 22.9657 20.0837C21.8345 19.9641 20.3369 19.5494 18.7836 19.0708C17.2302 18.5922 15.6131 18.0499 14.1474 17.659C13.6695 17.5314 13.2393 17.4596 12.8012 17.3719L12.9207 17.2443C13.6217 16.5105 14.7449 16.1436 16.1469 16.1356V16.1276ZM7.94996 25.8425C9.18467 25.8026 10.5389 26.01 11.7497 26.3769C12.9685 26.7438 14.0359 27.2622 14.6333 27.6929C14.6732 27.7248 14.6652 27.7248 14.6971 27.7567C14.4342 27.8445 14.2112 27.9721 13.4464 27.9641C12.371 27.9482 10.9929 27.7567 9.6467 27.5174C8.30843 27.2782 6.98609 26.991 5.95849 26.7996C5.60799 26.7278 5.33715 26.6959 5.05038 26.656C5.7912 26.1535 6.80287 25.8824 7.94199 25.8425H7.94996Z" fill="#5D5C75"/>
</svg>
