<svg width="44" height="70" viewBox="0 0 44 70" fill="none" xmlns="http://www.w3.org/2000/svg">
<path d="M24.6222 29.9389C25.882 30.1734 27.0695 30.3204 28.1847 30.3204C31.2762 30.3204 34.0116 29.4839 36.2708 27.5712C39.8385 24.703 42.3354 19.6832 44 12.154C44 11.9151 44 11.5564 43.7623 11.1976C43.6431 10.9588 43.4054 10.8389 43.0484 10.7199C40.2869 10.11 37.7352 10.3891 35.4307 11.2869C35.0163 8.26381 33.5476 5.03162 30.6807 0.560459C30.3238 -0.0371543 29.6108 -0.157027 29.0161 0.201716C26.0074 2.07856 22.8175 4.50226 20.6306 7.94794C18.9451 6.35985 16.8826 5.26699 14.5085 4.74375C13.9139 4.62388 13.2 5.1025 13.0816 5.70011C11.7731 11.5564 11.8924 16.6951 13.3193 20.7586C14.8376 25.1195 17.8412 28.0866 22.2377 29.4813C21.2626 32.3958 20.7072 35.6508 20.4512 39.0256C19.9506 38.5041 19.4021 37.9931 18.8763 37.6116C18.8476 37.553 18.8145 37.4961 18.7753 37.4427C15.9694 26.9508 6.21433 26.278 0.833162 27.5712C0.595489 27.5712 0.238544 27.8101 0.119272 28.0489C0 28.2878 0 28.6465 0 28.8854L0.119272 29.2442C0.356945 30.7981 1.30851 35.5782 5.58924 38.3274C7.49236 39.5226 9.75156 40.1202 12.4861 40.1202C14.1289 40.1202 15.8727 39.9146 17.6252 39.5095C18.4279 40.0808 19.5606 41.3802 20.2936 42.3059C20.204 46.4096 20.4895 50.5815 20.9474 54.4428C20.9361 54.5355 20.93 54.623 20.93 54.7018C20.93 54.9127 20.9718 55.1017 21.0484 55.2653C21.1529 56.0913 21.2643 56.9006 21.381 57.6907C21.0084 57.3749 20.6114 57.0572 20.1892 56.7256C19.9767 53.6221 18.8145 51.2727 17.0054 49.682C14.8646 47.8892 12.0108 47.2916 8.44306 47.6503H8.20538C7.61076 47.7702 7.13542 48.2479 7.13542 48.9654V49.3241C7.13542 50.5194 7.13542 53.8653 9.63229 56.2558C11.4161 57.8097 14.0323 58.6462 17.3615 58.6462C17.7846 58.6462 18.2085 58.5858 18.6317 58.5508C20.4138 60.0243 21.4115 60.8643 22.1915 62.497C22.6643 64.9916 23.1483 67.1169 23.5453 68.6849C23.783 69.4024 24.3776 70 25.0915 70C25.0915 70 26.2807 69.8801 26.1615 68.6849C25.4902 66.0372 24.2122 60.5913 23.4017 54.2407C23.7133 53.3062 24.6849 51.2307 25.4241 50.1606H25.6852C29.609 50.1606 32.4637 49.2043 34.4852 47.0536C37.2207 44.4242 37.1014 40.8386 37.1014 39.6433V39.5235C37.1014 38.9258 36.3875 38.3282 35.7929 38.3282C31.9875 38.2084 28.7767 39.2846 26.6368 41.3163C24.8469 43.1153 23.8988 45.4445 23.7934 48.401C23.5122 48.7502 23.2154 49.1876 22.9237 49.6733C22.3813 42.9158 22.5763 35.684 24.6205 29.9398L24.6222 29.9389ZM6.89861 36.2965C4.0448 34.5037 3.09323 31.3966 2.61789 29.6038C5.45342 29.1654 12.3886 28.9292 15.629 35.4382C13.328 34.0583 11.2629 32.9637 8.5632 32.2331C7.96858 31.9942 7.25469 32.472 7.13629 33.0696C6.89861 33.6672 7.37396 34.3847 7.96858 34.5037C10.4341 35.1503 12.3216 36.2834 14.586 37.6387C11.4832 37.9765 8.89577 37.602 6.89861 36.2965ZM41.2655 12.7516C39.7193 19.0856 37.5793 23.2689 34.7247 25.6594C32.24 27.6814 29.2825 28.4007 25.27 27.7007C26.689 22.561 30.1087 16.6251 34.9623 14.1857C35.0816 14.1061 35.1861 14.0107 35.2749 13.904C37.1057 12.9791 39.1159 12.5259 41.2655 12.7516ZM29.374 2.83192C31.8708 6.89534 33.0601 9.76353 33.1793 12.3929C29.8981 14.2767 27.4273 17.3225 25.6487 20.4978C25.5303 18.3882 25.1864 16.3644 24.617 14.5436C24.0503 12.7516 23.2615 11.1688 22.276 9.81691C23.944 6.74484 26.6586 4.61076 29.374 2.83104V2.83192ZM15.4609 19.923C14.391 16.5761 14.2717 12.2739 15.2233 7.37395C16.9862 7.98469 18.4689 8.97167 19.6729 10.3331C19.7173 10.4696 19.7826 10.6018 19.8609 10.7208C22.9516 14.7588 23.6315 20.9484 22.9855 26.1056C22.9394 26.4346 22.8906 26.7645 22.834 27.0943C19.1479 26.019 16.7695 23.5086 15.4609 19.9238V19.923ZM9.51476 50.0408C12.0116 49.9209 14.0332 50.3995 15.4609 51.5947C16.1339 52.1355 16.6537 52.8678 17.0437 53.7699C16.4534 53.3176 15.8466 52.909 15.2233 52.5511C14.6287 52.3122 13.9148 52.4312 13.5587 53.0288C13.321 53.6264 13.4394 54.3439 14.034 54.7018C14.7427 55.1402 15.4017 55.6048 16.0338 56.1166C13.9757 55.9766 12.3372 55.3869 11.2995 54.343C9.87258 53.0288 9.51563 51.236 9.51563 50.0408H9.51476ZM34.7247 40.8377C34.6054 42.0329 34.3677 44.0646 32.8215 45.4987C31.6776 46.6484 30.0731 47.3362 27.9505 47.6258C28.4816 47.1297 28.9874 46.6502 29.4924 46.2153C29.9677 45.8566 29.9677 45.0201 29.6116 44.5424C29.2547 44.0646 28.4224 44.0646 27.9471 44.4225C27.53 44.7891 27.1365 45.1557 26.7456 45.5328C27.0921 44.6054 27.6188 43.7969 28.304 43.1083C29.7309 41.6742 31.9901 40.9567 34.7255 40.8377H34.7247Z" fill="#5D5C75"/>
</svg>
