<svg width="63" height="62" viewBox="0 0 63 62" fill="none" xmlns="http://www.w3.org/2000/svg">
<path d="M40.7158 43.3109C37.9791 43.3109 35.7471 41.0801 35.7471 38.3348C35.7471 35.5894 37.9746 33.3586 40.7158 33.3586C43.4569 33.3586 45.6844 35.5894 45.6844 38.3348C45.6844 41.0801 43.4569 43.3109 40.7158 43.3109ZM40.7158 35.6395C39.2293 35.6395 38.0201 36.8506 38.0201 38.3393C38.0201 39.8281 39.2293 41.0391 40.7158 41.0391C42.2023 41.0391 43.4115 39.8281 43.4115 38.3393C43.4115 36.8506 42.2023 35.6395 40.7158 35.6395Z" fill="#5D5C75"/>
<path d="M49.9848 53.5L45.9208 44.8407C45.7253 44.4264 45.4844 43.9119 45.4117 43.3109C45.3344 42.669 45.4617 42.0726 45.5662 41.5945L46.68 36.5228C46.8164 35.9081 47.421 35.5166 48.0347 35.6532C48.6484 35.7898 49.0348 36.3953 48.9029 37.0099L47.7892 42.0817C47.7164 42.4231 47.6392 42.7737 47.671 43.0332C47.6983 43.2745 47.8392 43.5659 47.9847 43.8755L50.8713 50.0217C55.3035 46.1883 57.3583 39.4821 55.7854 33.527C54.2489 27.7132 49.4984 22.7507 43.516 20.6109C42.9614 23.1559 42.7751 25.7646 42.966 28.3733C43.0842 29.9987 43.5933 30.6406 45.3389 31.3645C45.9208 31.6058 46.1936 32.2705 45.9572 32.8532C45.7163 33.436 45.0526 33.7092 44.4707 33.4724C42.3614 32.5983 40.9112 31.4282 40.7021 28.5463C40.4612 25.282 40.7658 22.0268 41.6022 18.8672L41.9022 17.7426L43.0205 18.0659C50.2758 20.1784 56.1536 26.0195 57.9856 32.9534C59.9176 40.2606 57.0264 48.583 51.1031 52.7351L49.9985 53.5091L49.9848 53.5Z" fill="#5D5C75"/>
<path d="M35.6698 58.0163C31.1603 58.0163 26.6189 56.0268 24.3142 54.8385C23.3505 54.3423 18.5227 51.7745 18.35 50.0171C18.1636 48.1642 20.8775 47.6816 24.9824 46.9486C26.1371 46.7437 27.2326 46.5479 27.8736 46.3658C29.4647 45.9151 31.0103 44.8498 32.5059 43.8163L33.0559 43.4384C33.1787 43.3519 33.2878 43.2745 33.3878 43.2062C33.9424 42.8101 34.4697 42.4413 35.3471 42.5187C35.5562 42.537 35.7835 42.5825 36.0653 42.6553C36.6881 42.8238 37.1745 43.1061 37.6064 43.3519C38.1428 43.6615 38.5337 43.8846 39.0883 43.8846C41.284 43.8846 43.6388 43.4976 43.6615 43.493L44.498 43.3519L44.8707 44.1122C49.4075 53.3862 48.6074 54.1875 48.0756 54.7156C46.8527 55.9403 42.8614 58.0118 35.6653 58.0118L35.6698 58.0163ZM21.0911 50.1036C23.0868 51.8018 29.7147 55.74 35.6698 55.74C41.6249 55.74 45.1071 54.1693 46.2072 53.3361C46.0163 52.1934 44.6116 48.838 43.1887 45.865C42.2477 45.9879 40.6521 46.1655 39.0883 46.1655C37.9291 46.1655 37.1245 45.7057 36.479 45.3324C36.1199 45.1275 35.8107 44.9499 35.4744 44.8589C35.2971 44.8133 35.2016 44.7951 35.1561 44.7906C35.1561 44.7906 35.1289 44.7906 35.1198 44.7906C35.0743 44.8088 34.8697 44.9545 34.7061 45.0728C34.597 45.1502 34.4788 45.2322 34.3424 45.3278L33.8015 45.7011C32.2286 46.7847 30.4466 48.0139 28.4964 48.5648C27.7418 48.7788 26.5962 48.9837 25.3825 49.1976C24.1824 49.4116 22.1867 49.7667 21.0957 50.1128L21.0911 50.1036Z" fill="#5D5C75"/>
<path d="M20.6047 46.2383C19.6592 46.2383 18.7682 46.1928 17.9545 46.12C17.0089 46.038 15.9043 45.9014 14.8269 45.5281C14.4769 45.4052 14.1405 45.2641 13.8313 45.1002C11.5857 43.9347 10.2492 41.6446 9.33091 39.7825C5.87148 32.7485 4.44862 24.5809 5.32598 16.7865C5.79875 12.5889 7.31708 7.11193 11.863 4.84011C16.7044 2.42259 21.323 7.1347 23.805 9.66148L23.9778 9.83448C25.2143 11.0956 26.378 12.2839 27.7918 13.0669C28.8419 13.6497 30.0738 14.0139 31.2603 14.369L37.02 16.0854C37.4973 16.2266 38.2155 16.4405 38.7338 17.0506C39.3293 17.7517 39.3702 18.6532 39.3929 19.1859L39.9521 31.6877L39.0929 31.9381C36.7108 32.6302 34.8697 34.9293 34.7152 37.406C34.697 37.6837 34.697 37.9705 34.697 38.2574C34.697 39.2271 34.6879 40.3243 34.1197 41.3396C33.6287 42.2137 32.8514 42.7783 32.1558 43.2199C28.3964 45.5919 24.1233 46.2338 20.5956 46.2338L20.6047 46.2383ZM15.5724 43.3792C16.4134 43.6706 17.3499 43.7844 18.1545 43.8527C21.6594 44.1577 26.7235 43.9665 30.9557 41.2986C31.4103 41.0118 31.9058 40.6612 32.1468 40.2333C32.4286 39.7325 32.4286 39.0177 32.4331 38.2574C32.4331 37.925 32.4331 37.5972 32.4559 37.274C32.6513 34.1735 34.7652 31.278 37.6109 30.0669L37.1291 19.2951C37.12 19.0993 37.1018 18.6395 37.0063 18.5303C36.9245 18.4346 36.5563 18.3254 36.379 18.2707L30.6193 16.5544C29.3147 16.1674 27.9645 15.7622 26.6962 15.0611C24.9915 14.1186 23.655 12.7528 22.3594 11.4325L22.1912 11.2595C19.3137 8.32752 15.9861 5.3318 12.8858 6.87974C9.25363 8.69629 7.99896 13.4084 7.58983 17.0461C6.75793 24.4124 8.10352 32.1293 11.372 38.7809C12.1812 40.429 13.2313 42.2274 14.8814 43.0833C15.0951 43.1926 15.3269 43.2927 15.577 43.3792H15.5724Z" fill="#5D5C75"/>
<path d="M36.9972 62C26.7008 62 16.3907 57.0694 9.94461 49.0246C5.91694 43.9938 3.04394 37.5836 1.16194 29.425C0.225483 25.373 -0.670058 20.0736 0.711894 15.0064C0.875546 14.4009 1.50288 14.0458 2.10748 14.2097C2.71209 14.3736 3.07121 15.0019 2.90301 15.6074C1.65744 20.1829 2.50298 25.1227 3.37579 28.9151C5.18051 36.7322 7.90805 42.8465 11.7175 47.6042C17.8681 55.2847 27.7963 59.9194 37.6246 59.7191C42.1068 59.6235 46.289 58.5627 49.7166 56.6505C55.2581 53.5592 59.363 47.7453 60.4359 41.4853C61.3541 36.1039 60.1449 30.3219 57.1128 25.628C54.1625 21.0616 49.4257 17.4786 44.1116 15.8032C42.4523 15.2796 40.6658 14.9063 38.9383 14.5466C35.3743 13.8045 31.6922 13.0396 28.5828 10.8771C27.369 10.0303 26.3144 9.01954 25.2961 8.0407C24.5778 7.35323 23.9005 6.70219 23.1732 6.10577C21.173 4.46678 18.7909 3.27396 16.2816 2.65933C14.2132 2.14943 12.4403 2.15853 11.0083 2.67755C8.41719 3.61997 6.13515 6.38804 4.03494 11.1366C3.78037 11.7102 3.10758 11.9697 2.5348 11.7148C1.96201 11.4598 1.7029 10.786 1.95747 10.2124C4.32133 4.86742 7.02614 1.6987 10.231 0.533195C12.0948 -0.145166 14.3132 -0.177035 16.8225 0.44214C19.6592 1.13871 22.3504 2.48633 24.6097 4.3393C25.4097 4.9949 26.1507 5.70513 26.8644 6.39715C27.8645 7.35778 28.8055 8.26378 29.8738 9.00588C32.6013 10.8998 35.9017 11.5873 39.3929 12.3157C41.1749 12.6845 43.016 13.0715 44.7889 13.6269C50.6849 15.489 55.7354 19.3088 59.013 24.3851C62.3497 29.5525 63.6816 35.9218 62.6679 41.8631C61.4678 48.8926 57.0355 55.1618 50.8167 58.6355C47.0664 60.7298 42.5159 61.8907 37.6655 61.9909C37.4382 61.9955 37.2109 62 36.9881 62H36.9972Z" fill="#5D5C75"/>
</svg>
