<svg width="80" height="61" viewBox="0 0 80 61" fill="none" xmlns="http://www.w3.org/2000/svg">
<path d="M80 16.1837V11.2041C80 9.14452 78.318 7.46939 76.25 7.46939H49.684C48.571 3.17897 44.651 0 40 0C35.349 0 31.429 3.17897 30.316 7.46939H3.75C1.682 7.46939 0 9.14452 0 11.2041V16.1837C0 17.814 1.054 19.2023 2.519 19.7102C2.508 19.7779 2.5 19.8467 2.5 19.9184V58.5102H1.25C0.56 58.5102 0 59.0679 0 59.7551C0 60.4423 0.56 61 1.25 61H78.75C79.44 61 80 60.4423 80 59.7551C80 59.0679 79.44 58.5102 78.75 58.5102H77.5V19.9184C77.5 19.8477 77.493 19.7779 77.481 19.7102C78.946 19.2013 80 17.813 80 16.1837ZM40 2.4898C44.135 2.4898 47.5 5.84106 47.5 9.95918C47.5 14.0773 44.135 17.4286 40 17.4286C35.865 17.4286 32.5 14.0773 32.5 9.95918C32.5 5.84106 35.865 2.4898 40 2.4898ZM2.5 11.2041C2.5 10.5179 3.061 9.95918 3.75 9.95918H30C30 12.932 31.316 15.6021 33.396 17.4286H3.75C3.061 17.4286 2.5 16.8699 2.5 16.1837V11.2041ZM23.75 26.1429V28.6327C23.75 30.005 22.628 31.1224 21.25 31.1224C19.872 31.1224 18.75 30.005 18.75 28.6327V26.1429H23.75ZM31.25 26.1429V28.6327C31.25 30.005 30.128 31.1224 28.75 31.1224C27.372 31.1224 26.25 30.005 26.25 28.6327V26.1429H31.25ZM38.75 26.1429V28.6327C38.75 30.005 37.628 31.1224 36.25 31.1224C34.872 31.1224 33.75 30.005 33.75 28.6327V26.1429H38.75ZM46.25 26.1429V28.6327C46.25 30.005 45.128 31.1224 43.75 31.1224C42.372 31.1224 41.25 30.005 41.25 28.6327V26.1429H46.25ZM53.75 26.1429V28.6327C53.75 30.005 52.628 31.1224 51.25 31.1224C49.872 31.1224 48.75 30.005 48.75 28.6327V26.1429H53.75ZM61.25 26.1429V28.6327C61.25 30.005 60.128 31.1224 58.75 31.1224C57.372 31.1224 56.25 30.005 56.25 28.6327V26.1429H61.25ZM68.75 26.1429V28.6327C68.75 30.005 67.628 31.1224 66.25 31.1224C64.872 31.1224 63.75 30.005 63.75 28.6327V26.1429H68.75ZM16.25 28.6327C16.25 30.005 15.128 31.1224 13.75 31.1224C12.372 31.1224 11.25 30.005 11.25 28.6327V26.1429H16.25V28.6327ZM11.25 32.942C11.986 33.3672 12.84 33.6122 13.75 33.6122C15.242 33.6122 16.583 32.9569 17.5 31.9212C18.417 32.9569 19.758 33.6122 21.25 33.6122C22.742 33.6122 24.083 32.9569 25 31.9212C25.917 32.9569 27.258 33.6122 28.75 33.6122C30.242 33.6122 31.583 32.9569 32.5 31.9212C33.417 32.9569 34.758 33.6122 36.25 33.6122C37.742 33.6122 39.083 32.9569 40 31.9212C40.917 32.9569 42.258 33.6122 43.75 33.6122C45.242 33.6122 46.583 32.9569 47.5 31.9212C48.417 32.9569 49.758 33.6122 51.25 33.6122C52.742 33.6122 54.083 32.9569 55 31.9212C55.917 32.9569 57.258 33.6122 58.75 33.6122C60.242 33.6122 61.583 32.9569 62.5 31.9212C63.417 32.9569 64.758 33.6122 66.25 33.6122C67.16 33.6122 68.014 33.3672 68.75 32.942V58.5102H66.25V38.5918C66.25 37.9047 65.69 37.3469 65 37.3469H55C54.31 37.3469 53.75 37.9047 53.75 38.5918V58.5102H51.25V47.3061C51.25 46.6189 50.69 46.0612 50 46.0612C49.31 46.0612 48.75 46.6189 48.75 47.3061V53.5306H46.25C45.56 53.5306 45 54.0883 45 54.7755V58.5102H43.75V52.2857H46.25C46.94 52.2857 47.5 51.728 47.5 51.0408C47.5 50.3536 46.94 49.7959 46.25 49.7959H38.75C38.06 49.7959 37.5 50.3536 37.5 51.0408C37.5 51.728 38.06 52.2857 38.75 52.2857H41.25V58.5102H40V54.7755C40 54.0883 39.44 53.5306 38.75 53.5306H36.25V47.3061C36.25 46.6189 35.69 46.0612 35 46.0612C34.31 46.0612 33.75 46.6189 33.75 47.3061V58.5102H31.25V47.3061C31.25 46.6189 30.69 46.0612 30 46.0612C29.31 46.0612 28.75 46.6189 28.75 47.3061V53.5306H26.25C25.56 53.5306 25 54.0883 25 54.7755V58.5102H23.75V52.2857H26.25C26.94 52.2857 27.5 51.728 27.5 51.0408C27.5 50.3536 26.94 49.7959 26.25 49.7959H18.75C18.06 49.7959 17.5 50.3536 17.5 51.0408C17.5 51.728 18.06 52.2857 18.75 52.2857H21.25V58.5102H20V54.7755C20 54.0883 19.44 53.5306 18.75 53.5306H16.25V47.3061C16.25 46.6189 15.69 46.0612 15 46.0612C14.31 46.0612 13.75 46.6189 13.75 47.3061V58.5102H11.25V32.942ZM63.75 49.7959C63.06 49.7959 62.5 50.3536 62.5 51.0408C62.5 51.728 63.06 52.2857 63.75 52.2857V58.5102H56.25V39.8367H63.75V49.7959ZM47.5 56.0204H48.75V58.5102H47.5V56.0204ZM36.25 56.0204H37.5V58.5102H36.25V56.0204ZM27.5 56.0204H28.75V58.5102H27.5V56.0204ZM16.25 56.0204H17.5V58.5102H16.25V56.0204ZM71.25 58.5102V24.898C71.25 24.2108 70.69 23.6531 70 23.6531H10C9.31 23.6531 8.75 24.2108 8.75 24.898V58.5102H5V19.9184H75V58.5102H71.25ZM77.5 16.1837C77.5 16.8699 76.939 17.4286 76.25 17.4286H46.604C48.684 15.6021 50 12.932 50 9.95918H76.25C76.939 9.95918 77.5 10.5179 77.5 11.2041V16.1837Z" fill="#5D5C75"/>
<path d="M42.5 14.9388C43.19 14.9388 43.75 14.3811 43.75 13.6939V6.22449C43.75 5.53731 43.19 4.97959 42.5 4.97959C41.81 4.97959 41.25 5.53731 41.25 6.22449V13.6939C41.25 14.3811 41.81 14.9388 42.5 14.9388Z" fill="#5D5C75"/>
<path d="M37.5 8.71429C38.19 8.71429 38.75 8.15657 38.75 7.46939V6.22449C38.75 5.53731 38.19 4.97959 37.5 4.97959C36.81 4.97959 36.25 5.53731 36.25 6.22449V7.46939C36.25 8.15657 36.81 8.71429 37.5 8.71429Z" fill="#5D5C75"/>
<path d="M37.5 14.9388C38.19 14.9388 38.75 14.3811 38.75 13.6939V11.2041C38.75 10.5169 38.19 9.95918 37.5 9.95918C36.81 9.95918 36.25 10.5169 36.25 11.2041V13.6939C36.25 14.3811 36.81 14.9388 37.5 14.9388Z" fill="#5D5C75"/>
<path d="M25 14.9388H27.5C28.19 14.9388 28.75 14.3811 28.75 13.6939C28.75 13.0067 28.19 12.449 27.5 12.449H25C24.31 12.449 23.75 13.0067 23.75 13.6939C23.75 14.3811 24.31 14.9388 25 14.9388Z" fill="#5D5C75"/>
<path d="M55 12.449H52.5C51.81 12.449 51.25 13.0067 51.25 13.6939C51.25 14.3811 51.81 14.9388 52.5 14.9388H55C55.69 14.9388 56.25 14.3811 56.25 13.6939C56.25 13.0067 55.69 12.449 55 12.449Z" fill="#5D5C75"/>
<path d="M8.75 14.9388H20C20.69 14.9388 21.25 14.3811 21.25 13.6939C21.25 13.0067 20.69 12.449 20 12.449H8.75C8.06 12.449 7.5 13.0067 7.5 13.6939C7.5 14.3811 8.06 14.9388 8.75 14.9388Z" fill="#5D5C75"/>
<path d="M71.25 12.449H60C59.31 12.449 58.75 13.0067 58.75 13.6939C58.75 14.3811 59.31 14.9388 60 14.9388H71.25C71.94 14.9388 72.5 14.3811 72.5 13.6939C72.5 13.0067 71.94 12.449 71.25 12.449Z" fill="#5D5C75"/>
</svg>
