<svg width="76" height="61" viewBox="0 0 76 61" fill="none" xmlns="http://www.w3.org/2000/svg">
<path d="M71.7762 32.5521C70.6884 32.0991 69.4218 31.8334 68.0952 31.8334C66.6062 31.8334 65.1949 32.165 63.9303 32.7601L63.9903 32.7344L49.0543 39.417C49.0626 39.2965 49.1215 39.1905 49.1215 39.069C49.0854 35.5392 46.2036 32.6922 42.654 32.6922C42.4751 32.6922 42.3024 32.7004 42.1266 32.7128L42.1504 32.7097H32.372L20.0676 29.1213C19.9073 29.0718 19.7212 29.044 19.5278 29.044H13.9164V27.0928C13.9164 26.0271 13.0479 25.1622 11.9777 25.1622H1.93872C0.868548 25.1622 0 26.0271 0 27.0928V58.5185C0 59.5842 0.868548 60.4491 1.93872 60.4491H11.9756C13.0458 60.4491 13.9143 59.5842 13.9143 58.5185V55.934C18.6138 56.6651 22.8221 57.844 26.8081 59.4503L26.4204 59.3113C29.4169 60.3822 32.8745 61 36.478 61C40.6315 61 44.5927 60.1783 48.2034 58.6884L47.9986 58.7625C51.2123 57.3395 53.9389 55.8382 56.5207 54.1321L56.3088 54.2639C57.1825 53.7264 58.051 53.1879 58.9299 52.671C63.1724 50.1709 66.5587 47.988 69.6027 45.7958C71.102 44.7322 72.41 43.6798 73.6528 42.5606L73.6146 42.5935C74.571 41.8192 75.3362 40.8462 75.8501 39.7362L75.8708 39.6868C75.9535 39.4808 76 39.244 76 38.9938C76 38.8496 75.9845 38.7075 75.9535 38.5716L75.9555 38.585C75.5761 35.9696 74.0013 33.7816 71.8113 32.5666L71.77 32.546L71.7731 32.5511L71.7762 32.5521ZM10.04 56.5951H3.88055V29.0307H10.04V56.5951ZM70.8849 39.8597C69.8199 40.8122 68.6587 41.7389 67.452 42.5956L67.33 42.678C64.3914 44.7939 61.0951 46.9182 56.954 49.3605C56.0544 49.8877 55.1683 50.4366 54.2729 50.9854C52.0632 52.463 49.5217 53.8716 46.8644 55.068L46.5283 55.2019C43.5504 56.419 40.0918 57.1274 36.4707 57.1274C33.3605 57.1274 30.3754 56.6074 27.5909 55.6467L27.7822 55.7034C23.762 54.025 19.0863 52.743 14.2111 52.0737L13.9143 52.0398V32.9084H19.2414L31.5459 36.4968C31.7061 36.5462 31.8922 36.574 32.0856 36.574H42.1463C44.4283 36.574 45.241 37.9178 45.241 39.071C45.241 40.2242 44.4293 41.568 42.1463 41.568H24.5447C23.4746 41.568 22.606 42.4329 22.606 43.4986C22.606 44.5643 23.4746 45.4293 24.5447 45.4293H44.6589C44.9463 45.4293 45.2172 45.3675 45.4633 45.2573L45.4509 45.2624L65.6012 36.2476C66.3436 35.9079 67.2111 35.7071 68.1262 35.7071C68.8138 35.7071 69.4725 35.8183 70.0908 36.0263L70.0463 36.0129C71.0338 36.6029 71.7472 37.5677 71.985 38.7034L71.9902 38.7292C71.6407 39.139 71.2767 39.5066 70.8859 39.8464L70.8735 39.8567L70.8838 39.8597H70.8849Z" fill="#5D5C75"/>
<path d="M39.6047 27.9145C38.1427 27.9145 36.7241 27.3945 35.6115 26.4503C35.0304 25.9571 34.32 25.6636 33.558 25.6029C32.1001 25.4875 30.728 24.8564 29.695 23.8267C28.661 22.797 28.0272 21.4306 27.9114 19.9788C27.8504 19.2199 27.5567 18.5136 27.0604 17.9338C26.1123 16.8259 25.5901 15.4132 25.5901 13.9572C25.5901 12.5013 26.1123 11.0886 27.0604 9.98064C27.5557 9.40196 27.8504 8.69457 27.9114 7.9357C28.0272 6.48386 28.661 5.11748 29.695 4.08781C30.729 3.05813 32.1011 2.42694 33.559 2.31162C34.3211 2.25087 35.0304 1.95844 35.6125 1.4642C36.7251 0.519986 38.1437 0 39.6058 0C41.0678 0 42.4865 0.519986 43.599 1.4642C44.1812 1.95741 44.8905 2.25087 45.6525 2.31162C47.1104 2.42694 48.4825 3.05813 49.5165 4.08781C50.5505 5.11748 51.1833 6.48386 51.3002 7.9357C51.3612 8.69457 51.6548 9.40093 52.1511 9.98064C53.0993 11.0886 53.6215 12.5013 53.6215 13.9572C53.6215 15.4132 53.0993 16.8259 52.1511 17.9338C51.6558 18.5125 51.3612 19.2199 51.3002 19.9788C51.1843 21.4306 50.5505 22.797 49.5165 23.8267C48.4825 24.8564 47.1104 25.4865 45.6525 25.6029C44.8905 25.6636 44.1812 25.956 43.599 26.4503C42.4865 27.3945 41.0678 27.9145 39.6058 27.9145H39.6047ZM33.6593 3.57812L33.7607 4.84256C31.9843 4.98363 30.5925 6.36957 30.4509 8.13855C30.3475 9.43285 29.845 10.6396 29.0002 11.6271C27.8442 12.978 27.8442 14.9375 29.0002 16.2884C29.846 17.2769 30.3475 18.4827 30.4509 19.777C30.5925 21.5459 31.9843 22.9319 33.7607 23.073C35.0604 23.1759 36.2722 23.6763 37.2638 24.5186C37.9421 25.0942 38.7734 25.3815 39.6037 25.3815C40.435 25.3815 41.2664 25.0942 41.9436 24.5186C42.9362 23.6763 44.147 23.177 45.4468 23.074C47.2231 22.9329 48.6149 21.547 48.7565 19.778C48.8599 18.4837 49.3625 17.2769 50.2083 16.2895C51.3643 14.9396 51.3643 12.9791 50.2083 11.6281C49.3625 10.6407 48.861 9.43388 48.7576 8.13958C48.6159 6.3706 47.2242 4.98466 45.4478 4.84359C44.1481 4.74062 42.9373 4.2402 41.9446 3.39896C40.5891 2.24778 38.6204 2.24778 37.2638 3.39896C36.2712 4.24123 35.0604 4.74062 33.7607 4.84359L33.6593 3.57915V3.57812ZM38.3298 17.765C37.9917 17.765 37.6681 17.6311 37.4292 17.3933L34.8815 14.8561C34.3842 14.3609 34.3842 13.5577 34.8815 13.0614C35.3788 12.5662 36.1854 12.5662 36.6837 13.0614L38.3309 14.7017L43.1637 9.889C43.6611 9.39372 44.4676 9.39372 44.966 9.889C45.4633 10.3843 45.4633 11.1874 44.966 11.6837L39.2325 17.3933C38.9937 17.6311 38.67 17.765 38.3319 17.765H38.3298Z" fill="#5D5C75"/>
</svg>
