<svg width="61" height="61" viewBox="0 0 61 61" fill="none" xmlns="http://www.w3.org/2000/svg">
<path d="M53.5369 55.8733H27.9279C23.8126 55.8733 20.4649 52.5404 20.4649 48.4433V32.0921C20.4649 27.995 23.8126 24.6621 27.9279 24.6621H53.5369C57.6523 24.6621 61 27.995 61 32.0921V48.4433C61 52.5404 57.6523 55.8733 53.5369 55.8733ZM27.9279 26.785C24.9907 26.785 22.5972 29.1679 22.5972 32.0921V48.4433C22.5972 51.3675 24.9907 53.7504 27.9279 53.7504H53.5369C56.4742 53.7504 58.8677 51.3675 58.8677 48.4433V32.0921C58.8677 29.1679 56.4742 26.785 53.5369 26.785H27.9279Z" fill="#5D5C75"/>
<path d="M28.1198 0C23.8552 0 20.2729 2.94545 19.3081 6.89925C19.1428 7.57856 19.0575 8.28972 19.0575 9.0221V9.10171C19.0682 10.5134 19.4093 11.8508 20.0064 13.0396C20.3369 13.703 20.7474 14.3239 21.2325 14.8812C22.8957 16.8183 25.3638 18.0442 28.1198 18.0442C28.5356 18.0442 28.9727 18.0495 29.4152 18.0548C29.895 18.0601 30.3801 18.0654 30.8705 18.0654C33.8557 18.0654 36.9316 17.8638 38.6214 16.2026C39.4264 15.4066 39.8368 14.3717 39.8368 13.1245C39.8368 8.25788 33.1734 0 28.1198 0ZM37.1235 14.6901C35.7908 16.0063 32.2672 15.9691 29.4419 15.932C28.9887 15.9267 28.5463 15.9214 28.1198 15.9214C25.7476 15.9214 23.6526 14.7326 22.3999 12.9228C21.6376 11.8136 21.1898 10.4656 21.1898 9.0221C21.1898 8.71959 21.2111 8.4224 21.2485 8.1252C21.6909 4.74987 24.6015 2.12285 28.1198 2.12285C31.974 2.12285 37.7045 9.33522 37.7045 13.1245C37.7045 13.8038 37.518 14.3027 37.1235 14.6901Z" fill="#5D5C75"/>
<path d="M21.1898 9.0221C21.1898 8.71959 21.2111 8.4224 21.2485 8.1252C21.2325 8.10397 21.2115 8.08275 21.1901 8.06152C20.6411 7.51489 19.9957 7.12746 19.3081 6.89925C17.6075 6.33139 15.6462 6.71882 14.2921 8.06683C12.437 9.9137 11.84 14.9873 13.791 16.9244C14.3721 17.5029 15.0811 17.7523 15.8541 17.7523C17.5652 17.7523 19.5803 16.5317 21.1901 14.9289C21.2061 14.913 21.2218 14.8971 21.2325 14.8812C21.7922 14.3133 22.1813 13.6393 22.3999 12.9228C21.6376 11.8136 21.1898 10.4656 21.1898 9.0221ZM19.6815 13.4323C18.8766 14.2337 17.8904 14.9395 17.0481 15.3217C16.4671 15.5817 15.6888 15.8152 15.2943 15.4225C14.3135 14.446 14.6333 10.7257 15.8007 9.56343C16.3338 9.03272 17.0375 8.76737 17.7411 8.76737C18.1943 8.76737 18.647 8.87881 19.0575 9.10171C19.2814 9.21846 19.495 9.37769 19.6815 9.56343C20.6304 10.5081 20.7367 11.9782 20.0064 13.0396C19.9158 13.1776 19.8041 13.3103 19.6815 13.4323Z" fill="#5D5C75"/>
<path d="M36.8411 16.4203H34.7088V25.591H36.8411V16.4203Z" fill="#5D5C75"/>
<path d="M20.7631 31.6571C17.9591 28.4038 17.1009 27.0876 16.5198 25.3681C16.216 24.4553 16.0347 23.5053 15.9494 22.5501L15.3311 15.8206L21.7866 13.443L22.5276 15.4332L17.4634 17.3013V20.8305C17.4634 22.9375 18.151 24.9807 19.4304 26.6578C20.31 27.8094 21.3762 29.115 22.3783 30.2825L20.7578 31.6624L20.7631 31.6571Z" fill="#5D5C75"/>
<path d="M29.9532 22.237C30.5921 22.237 31.11 21.7214 31.11 21.0854C31.11 20.4493 30.5921 19.9337 29.9532 19.9337C29.3143 19.9337 28.7964 20.4493 28.7964 21.0854C28.7964 21.7214 29.3143 22.237 29.9532 22.237Z" fill="#5D5C75"/>
<path d="M22.5384 22.237C23.1772 22.237 23.6951 21.7214 23.6951 21.0854C23.6951 20.4493 23.1772 19.9337 22.5384 19.9337C21.8995 19.9337 21.3816 20.4493 21.3816 21.0854C21.3816 21.7214 21.8995 22.237 22.5384 22.237Z" fill="#5D5C75"/>
<path d="M40.5351 44.5373C38.1096 44.5373 36.1318 42.5736 36.1318 40.1536C36.1318 37.7336 38.1042 35.7699 40.5351 35.7699C42.9659 35.7699 44.9329 37.7336 44.9329 40.1536C44.9329 42.5736 42.9606 44.5373 40.5351 44.5373ZM40.5351 37.8981C39.2823 37.8981 38.2641 38.9117 38.2641 40.1589C38.2641 41.4061 39.2823 42.4197 40.5351 42.4197C41.7878 42.4197 42.8006 41.4061 42.8006 40.1589C42.8006 38.9117 41.7825 37.8981 40.5351 37.8981Z" fill="#5D5C75"/>
<path d="M51.4952 61H7.80424C1.96705 61 0 56.7808 0 54.8597V48.7618C0 36.1627 15.6724 32.0497 21.0725 32.0497V34.1725C16.8932 34.1725 2.13231 37.6646 2.13231 48.7618V54.8597C2.13231 55.6557 3.13982 58.8771 7.80424 58.8771H51.4952V61Z" fill="#5D5C75"/>
<path d="M45.6418 60.9787H36.0251V52.896H45.6418V60.9787ZM38.1574 58.8559H43.5095V55.0188H38.1574V58.8559Z" fill="#5D5C75"/>
<path d="M28.7645 60.7081H20.0967V53.2091H28.7645V60.7081ZM22.229 58.5852H26.6322V55.332H22.229V58.5852Z" fill="#5D5C75"/>
<path d="M22.9327 50.9963H11.9993V53.1192H22.9327V50.9963Z" fill="#5D5C75"/>
</svg>
