<svg width="22" height="22" viewBox="0 0 22 22" fill="none" xmlns="http://www.w3.org/2000/svg">
<path d="M11 1C5.47715 1 0.999999 5.47715 0.999999 11C1 16.5228 5.47715 21 11 21C16.5228 21 21 16.5228 21 11C21 5.47715 16.5228 1 11 1Z" fill="var(--info)"/>
<path d="M11 7L11 11M11 15L10.99 15M0.999999 11C0.999999 5.47715 5.47715 1 11 1C16.5228 1 21 5.47715 21 11C21 16.5228 16.5228 21 11 21C5.47715 21 1 16.5228 0.999999 11Z" stroke="var(--info)" strokeWidth="2" strokeLinecap="round" strokeLinejoin="round"/>
<path d="M11 7L11 11" stroke="white" strokeWidth="2" strokeLinecap="round"/>
<circle cx="11" cy="15" r="1" transform="rotate(180 11 15)" fill="#FEFEFE"/>
</svg>
