<svg width="58" height="60" viewBox="0 0 58 60" fill="none" xmlns="http://www.w3.org/2000/svg">
<path d="M58 7.14286V17.1429H55.2381V7.14286C55.2366 6.00668 54.7997 4.91747 54.0231 4.11407C53.2464 3.31067 52.1935 2.85865 51.0952 2.85714H41.4286V0H51.0952C52.9258 0.00226837 54.6808 0.755546 55.9752 2.0946C57.2696 3.43365 57.9978 5.24915 58 7.14286ZM6.90476 57.1429C5.80646 57.1413 4.75355 56.6893 3.97693 55.8859C3.20031 55.0825 2.76337 53.9933 2.7619 52.8571V42.8571H0V52.8571C0.00219276 54.7509 0.730361 56.5663 2.02478 57.9054C3.3192 59.2445 5.07418 59.9977 6.90476 60H16.5714V57.1429H6.90476ZM55.2381 52.8571C55.2366 53.9933 54.7997 55.0825 54.0231 55.8859C53.2464 56.6893 52.1935 57.1413 51.0952 57.1429H41.4286V60H51.0952C52.9258 59.9977 54.6808 59.2445 55.9752 57.9054C57.2696 56.5663 57.9978 54.7509 58 52.8571V42.8571H55.2381V52.8571ZM2.7619 7.14286C2.76337 6.00668 3.20031 4.91747 3.97693 4.11407C4.75355 3.31067 5.80646 2.85865 6.90476 2.85714H16.5714V0H6.90476C5.07418 0.00226837 3.3192 0.755546 2.02478 2.0946C0.730361 3.43365 0.00219276 5.24915 0 7.14286V17.1429H2.7619V7.14286ZM22.0952 48.5714V11.4286H19.3333V48.5714H22.0952ZM11.0476 11.4286V48.5714H16.5714V11.4286H11.0476ZM33.1429 48.5714V11.4286H27.619V48.5714H33.1429ZM41.4286 11.4286V48.5714H46.9524V11.4286H41.4286ZM35.9048 11.4286V48.5714H38.6667V11.4286H35.9048Z" fill="#363088"/>
</svg>
