<svg width="24" height="24" viewBox="0 0 24 24" fill="none" xmlns="http://www.w3.org/2000/svg">
<path d="M23.0624 11.8949C22.4323 12.02 21.8197 11.6109 21.6947 10.9809C20.8117 6.54394 17.2994 3.10149 12.8455 2.30861C12.2131 2.19568 11.7919 1.59181 11.9043 0.95935C12.0168 0.326886 12.6206 -0.0942724 13.2531 0.0181657C18.6501 0.97922 22.9063 5.15058 23.9759 10.5272C24.1014 11.1568 23.6924 11.7694 23.0624 11.8949Z" fill="#868686"/>
<path d="M18.6705 14.1224C18.0308 14.1805 17.4652 13.7085 17.4075 13.0687C17.0949 9.62047 14.3271 6.90791 10.873 6.66607C10.2318 6.62148 9.74911 6.06559 9.7937 5.4244C9.83877 4.7837 10.3947 4.30051 11.0354 4.34558C15.6284 4.66738 19.3088 8.27364 19.7241 12.8589C19.7823 13.4986 19.3102 14.0647 18.6705 14.1224Z" fill="#868686"/>
<path d="M19.5894 17.6181C19.2991 16.8563 18.7849 16.218 18.102 15.7721C18.0986 15.7702 18.0952 15.7677 18.0918 15.7658C17.4075 15.3296 16.617 15.1169 15.8101 15.1517C14.9974 15.1842 14.2151 15.4464 13.5473 15.9102C12.8765 16.3702 12.3463 17.0055 12.0139 17.7485C11.6824 18.4905 11.5738 19.3071 11.7003 20.1097C11.7875 20.6636 11.9887 21.1735 12.2775 21.6174C9.78595 21.3567 7.44801 20.2013 5.71976 18.3301C5.70037 18.3092 5.68002 18.2889 5.65918 18.269C3.79232 16.5262 2.64177 14.1786 2.38248 11.6797C2.82739 11.9691 3.32851 12.1624 3.86308 12.2497C4.08408 12.2855 4.30604 12.303 4.52704 12.303C5.11201 12.303 5.69117 12.1794 6.22864 11.9366C6.97354 11.6041 7.61037 11.072 8.06739 10.4027C8.52974 9.73146 8.79097 8.94585 8.82247 8.13309C8.85494 7.3184 8.64024 6.52503 8.20115 5.83781C8.20018 5.83635 8.19921 5.8349 8.19824 5.83296C7.75576 5.14767 7.11893 4.63055 6.35319 4.33637C5.59181 4.04655 4.76985 3.99421 3.98036 4.18322C3.18748 4.37078 2.46536 4.77546 1.89153 5.35364C1.88863 5.35655 1.88523 5.35994 1.88281 5.36285C1.85082 5.39581 1.82029 5.43119 1.7917 5.4685C1.4413 5.92698 1.13742 6.41599 0.882499 6.92875C0.474426 7.74828 0.191877 8.62792 0.0474522 9.53857C0.0421211 9.57007 0.0387286 9.60206 0.0363053 9.63356C-0.254967 13.4986 1.21787 17.2871 4.04094 19.941C6.675 22.7733 10.4543 24.2544 14.3121 23.9641C14.3445 23.9617 14.377 23.9578 14.409 23.9525C15.3439 23.8027 16.2458 23.5066 17.0828 23.0777C17.5684 22.829 18.0322 22.5353 18.4679 22.1995C18.4824 22.1883 18.4965 22.1772 18.5101 22.1656C18.5329 22.1433 18.5551 22.1215 18.5774 22.0992C18.6002 22.0759 18.623 22.0526 18.6458 22.0294C19.1857 21.4643 19.5642 20.7664 19.742 20.0079C19.932 19.2121 19.8797 18.3863 19.5894 17.6181ZM2.94613 8.33858C2.95339 8.1646 2.98296 7.99448 3.03288 7.83164C3.03336 7.83116 3.03336 7.83067 3.03336 7.83067C3.12932 7.51905 3.3004 7.23359 3.53642 6.99902C3.53836 6.99708 3.5403 6.99514 3.54224 6.9932C3.55872 6.97673 3.5752 6.96025 3.59216 6.94425C3.59216 6.94377 3.59264 6.94377 3.59313 6.94328C3.85145 6.69999 4.16937 6.52891 4.51929 6.44604C4.85515 6.36559 5.20361 6.38788 5.52251 6.50904C5.82008 6.6239 6.06919 6.82552 6.24269 7.09304C6.42298 7.37656 6.51119 7.7037 6.49762 8.0415C6.48356 8.41516 6.36385 8.77525 6.14916 9.08688C5.93203 9.40481 5.63107 9.65585 5.27582 9.81433C4.9482 9.96215 4.58762 10.0101 4.2348 9.95343C3.91639 9.90157 3.62705 9.75375 3.3983 9.52597C3.09152 9.21143 2.92674 8.77961 2.94613 8.33858ZM17.4783 19.4724C17.3949 19.8281 17.219 20.1543 16.9674 20.4179C16.9563 20.4305 16.9447 20.4422 16.9325 20.4543C16.9316 20.4552 16.9306 20.4562 16.9296 20.4572C16.7062 20.6816 16.4372 20.8468 16.1431 20.9438C15.9681 21.0014 15.7849 21.0344 15.5969 21.0417C15.5935 21.0417 15.5896 21.0421 15.5862 21.0421C14.8035 21.0795 14.1201 20.5231 13.9985 19.7477C13.9423 19.3905 13.9903 19.0275 14.1376 18.6984C14.2951 18.3465 14.5466 18.0451 14.865 17.8275C14.8675 17.8255 14.8704 17.8236 14.8728 17.8222C15.1762 17.6104 15.5324 17.4907 15.9061 17.4761C15.9293 17.4751 15.9526 17.4747 15.9759 17.4747C16.2807 17.4747 16.5763 17.56 16.8356 17.7238C17.1017 17.8987 17.3018 18.1483 17.4143 18.4435C17.5384 18.7721 17.5611 19.1263 17.4783 19.4724Z" fill="#868686"/>
</svg>
