<svg width="40" height="28" viewBox="0 0 40 28" fill="none" xmlns="http://www.w3.org/2000/svg">
<g clip-path="url(#clip0_998_3090)">
<path d="M35.2817 0H5.12804C2.74907 0 0.820312 1.92876 0.820312 4.30773V23.6923C0.820312 26.0712 2.74907 28 5.12804 28H35.2817C37.6606 28 39.5894 26.0712 39.5894 23.6923V4.30773C39.5894 1.92876 37.6606 0 35.2817 0Z" fill="#006C35"/>
<path d="M10.4251 9.74613C11.1055 9.81059 10.7299 8.59469 10.9766 8.37419C11.0231 8.26564 11.1089 8.26419 11.1157 8.4023V9.43404C11.1094 9.76988 11.3299 9.86826 11.5014 9.93804C11.6802 9.92399 11.7985 9.93029 11.8688 10.1038L11.9526 11.8891C11.9526 11.8891 12.366 12.0073 12.3854 10.8845C12.4057 10.2254 12.254 9.67393 12.3432 9.54599C12.3466 9.41999 12.507 9.41224 12.6189 9.47378C12.7968 9.59881 12.8763 9.75389 13.152 9.69234C13.5731 9.577 13.8251 9.3725 13.8314 9.04926C13.8067 8.7425 13.7723 8.43525 13.6395 8.12849C13.658 8.07228 13.5586 7.92835 13.577 7.87213C13.6526 7.99038 13.7675 7.98069 13.7936 7.87213C13.7224 7.63613 13.6114 7.4103 13.4307 7.31192C13.2819 7.18059 13.0643 7.20724 12.9848 7.48105C12.948 7.79556 13.0992 8.17017 13.3274 8.47499C13.3759 8.59469 13.4447 8.7929 13.4147 8.97124C13.293 9.04005 13.1704 9.01195 13.0691 8.90436C13.0691 8.90436 12.7343 8.65333 12.7343 8.5976C12.8234 8.02915 12.7546 7.96421 12.7052 7.8072C12.6708 7.5896 12.5676 7.51982 12.4833 7.37104C12.3994 7.28284 12.286 7.28284 12.2322 7.37104C12.0834 7.6274 12.1527 8.17889 12.2603 8.42556C12.3369 8.65188 12.4551 8.79484 12.3994 8.79484C12.3529 8.92278 12.2584 8.89273 12.1896 8.74541C12.0907 8.43962 12.0713 7.98408 12.0713 7.77812C12.0413 7.52418 12.0088 6.97996 11.8421 6.84233C11.7399 6.70325 11.5882 6.77012 11.5353 6.89855C11.5247 7.15054 11.5223 7.40351 11.5513 7.6371C11.6657 8.04514 11.7021 8.40472 11.7583 8.82392C11.7733 9.3851 11.4341 9.06719 11.4491 8.78951C11.5276 8.42895 11.5072 7.86002 11.4375 7.7156C11.3827 7.57216 11.3168 7.53581 11.1835 7.55956C11.0779 7.55084 10.8045 7.85033 10.727 8.3456C10.727 8.3456 10.6611 8.60099 10.6335 8.82828C10.5957 9.08464 10.428 9.2654 10.3093 8.7929C10.207 8.44931 10.1445 7.60172 9.97344 7.79993C9.92401 8.46239 9.86488 9.6274 10.427 9.74613H10.4251Z" fill="white"/>
<path d="M11.4489 10.2297C10.8886 10.2404 10.0692 10.9654 10.0469 11.3671C10.6371 11.0827 11.2177 10.8093 11.8186 10.5161C11.7217 10.3708 11.8133 10.2404 11.4493 10.2297H11.4489Z" fill="white"/>
<path d="M14.5354 12.4017C14.7951 11.5372 14.4932 10.8994 14.6342 10.9028C14.9327 11.2246 15.3505 10.9459 15.4421 10.834C15.4818 10.7778 15.5797 10.7414 15.649 10.8146C15.8826 10.9828 16.294 10.9028 16.3793 10.6077C16.4331 10.3111 16.4661 10.0116 16.4782 9.71066C16.2877 9.76979 16.1453 9.80952 16.1327 9.88852L16.0929 10.1449C16.0769 10.2277 15.9122 10.2311 15.9054 10.1255C15.8332 9.79692 15.5337 9.75379 15.3529 10.2631C15.2313 10.362 15.0117 10.3814 14.988 10.234C15.0171 9.89288 14.8794 9.84635 14.6037 10.0068C14.5155 9.32927 14.4258 8.68231 14.3376 8.00482C14.453 8.00143 14.5586 8.08672 14.6628 7.95539C14.5475 7.59678 14.3042 6.86453 14.1695 6.8117C14.1036 6.73223 14.0478 6.78166 13.9626 6.80201C13.8181 6.84854 13.6834 6.97308 13.7256 7.21539C13.8966 8.2544 14.0086 9.04626 14.1792 10.0853C14.2049 10.2069 14.1036 10.3673 13.9722 10.3513C13.7493 10.2006 13.6931 9.89482 13.3122 9.90742C13.0355 9.91081 12.72 10.2098 12.6812 10.4996C12.6347 10.7288 12.6187 10.9789 12.6812 11.18C12.8751 11.4126 13.1087 11.3898 13.3122 11.337C13.4789 11.2682 13.618 11.1 13.6761 11.1398C13.7159 11.1882 13.6858 11.7407 12.8877 12.1652C12.404 12.3819 12.0197 12.4313 11.8128 12.0373C11.6849 11.7906 11.8225 10.8539 11.507 11.0715C10.5732 13.4785 13.6931 13.8124 14.042 11.1703C14.0755 11.0618 14.2068 10.9527 14.2296 11.1306C14.1574 13.5236 11.8162 13.6884 11.4188 12.9353C11.32 12.7574 11.2909 12.3634 11.2812 12.1265C11.2221 11.6559 10.9754 11.8367 10.9366 12.3029C10.8969 12.5626 10.9076 12.6358 10.9076 12.8844C11.0316 14.7744 14.0469 13.9622 14.5359 12.4008L14.5354 12.4017ZM13.3723 10.7671C13.3529 10.8039 13.2676 10.7884 13.2056 10.7884C13.1343 10.785 13.1009 10.7734 13.0583 10.7162C13.0389 10.6518 13.099 10.5902 13.1261 10.5418C13.1595 10.4846 13.3393 10.4255 13.4028 10.5849C13.4266 10.6465 13.4154 10.7162 13.3728 10.7671H13.3723Z" fill="white"/>
<path d="M15.4679 8.62523C15.6554 8.55642 16.5437 7.54067 16.5437 7.54067C16.4972 7.50093 16.4565 7.47185 16.41 7.43211C16.3606 7.38898 16.3659 7.34585 16.41 7.30418C16.6295 7.17624 16.5597 6.89516 16.4444 6.76674C16.2932 6.69259 16.1158 6.69405 15.9661 6.7711C15.812 6.91842 15.7756 7.1554 15.8973 7.30418C16.0155 7.36039 16.1342 7.47961 16.0557 7.54551C15.6928 7.9332 14.6979 8.60197 14.8132 8.62572C14.8379 8.65819 15.4485 8.65673 15.4679 8.62572V8.62523ZM16.126 7.03037C16.1832 7.01632 16.2564 7.0672 16.2908 7.14231C16.3252 7.21743 16.3068 7.28964 16.251 7.30369H16.2491C16.1929 7.31774 16.1197 7.26686 16.0853 7.19174C16.0519 7.11518 16.0703 7.04442 16.126 7.03037ZM10.3635 13.201C10.2171 13.4995 10.1556 13.2945 10.1425 13.1278C10.1255 12.8477 10.1396 12.5661 10.1846 12.2889C10.2215 12.0519 10.1846 12.1241 10.109 12.2201C9.77612 12.7498 9.74704 13.5426 9.9312 13.7786C10.0281 13.8906 10.1885 13.94 10.3082 13.9036C10.5171 13.813 10.6087 13.389 10.5593 13.2349C10.488 13.1263 10.4333 13.1089 10.3635 13.2014V13.201ZM21.3274 7.59252C21.7107 8.10718 22.0746 8.63153 22.4313 9.16606C22.5011 9.62935 22.552 10.0815 22.582 10.5307C22.6412 11.3967 22.6586 12.3335 22.6048 13.2455C22.7662 13.2518 23.0279 12.9829 23.1185 12.5899C23.1776 12.0461 23.0972 11.0779 23.0914 10.757C23.0841 10.5559 23.0744 10.3548 23.0623 10.1542C23.4868 10.8477 23.9002 11.5736 24.3039 12.38C24.4512 12.3112 24.4192 11.4864 24.3329 11.3701C24.0097 10.6776 23.5653 9.99281 23.4228 9.73015C23.37 9.63323 23.1902 9.35748 22.976 9.042C22.9576 8.79 22.9276 8.53946 22.8854 8.29036C22.8185 7.8295 23.0759 8.34076 23.0405 8.07277C22.9576 7.6119 22.7012 7.30078 22.4018 6.87868C22.3048 6.74202 22.3082 6.71392 22.1585 6.91212C22.1057 7.03085 22.0814 7.16024 22.0872 7.29012C22.0407 7.22131 21.9903 7.15491 21.9375 7.09095C21.7751 6.95089 21.6118 6.81132 21.4475 6.67321C21.339 6.59567 21.0739 6.45562 21.0264 6.68823C21.0046 6.85106 21.0124 7.0168 21.0502 7.17721C21.0783 7.29254 21.245 7.48397 21.3269 7.59397L21.3274 7.59252ZM22.1241 7.56684C22.1444 7.656 22.1662 7.74566 22.1803 7.83725L22.1963 7.92448C22.1512 7.86148 22.1042 7.79945 22.0553 7.73936C21.8789 7.53049 22.0252 7.57556 22.1241 7.56684Z" fill="white"/>
<path d="M24.4244 12.5922C24.0498 12.9833 23.509 13.4645 22.9211 13.6875C22.8576 13.7587 23.0781 14.0635 23.3626 14.0635C23.8395 14.0073 24.2596 13.7393 24.6483 13.0342C24.753 12.8704 24.9357 12.5186 24.94 12.2448C24.9754 10.6446 24.8606 9.39863 24.6202 8.24186C24.6042 8.14881 24.6086 8.05383 24.6333 7.96272C24.6633 7.92589 24.769 7.96272 24.8252 7.8721C24.9061 7.78826 24.6086 7.09866 24.4385 6.83406C24.3784 6.71581 24.3575 6.63585 24.2577 6.84811C24.152 7.02063 24.0823 7.32109 24.091 7.60072C24.3183 9.17619 24.3881 10.5559 24.5368 12.1314C24.5485 12.2831 24.5262 12.505 24.4249 12.5922H24.4244ZM30.7031 8.59708C30.6871 8.48514 30.6371 8.22441 30.6565 8.19098C30.6866 8.1115 30.8426 8.1997 30.8988 8.10811C30.9807 8.02524 30.4961 7.40251 30.327 7.13791C30.2654 7.01966 30.2451 6.9397 30.1448 7.15196C30.0391 7.32449 30.0028 7.63319 30.0445 7.90457C30.2974 9.61574 30.4859 10.9014 30.5247 12.4192C30.5019 12.5636 30.4976 12.6412 30.4297 12.8219C30.28 13.0138 30.1152 13.2528 29.9592 13.3691C29.8041 13.4844 29.4736 13.5954 29.3646 13.6802C29.0234 13.8794 29.0219 14.1067 29.3001 14.1144C29.776 14.0582 30.3406 14.0194 30.7292 13.4316C30.8339 13.2678 30.9575 12.8229 30.9628 12.5496C30.9982 10.9494 30.9425 9.75385 30.7021 8.59708H30.7031ZM27.0941 9.92928C27.0985 9.70975 27.1189 9.41899 27.131 9.23677C27.1363 9.16893 27.1523 9.09236 27.2172 9.0754C27.2831 9.05795 27.3994 9.14227 27.4004 9.07103C27.3873 8.93195 27.3597 8.7255 27.2807 8.62713C27.1731 8.46769 26.8877 8.50646 26.8368 8.75652C26.8378 8.84908 26.8799 8.89851 26.8722 8.98283C26.8591 9.03033 26.8097 9.06231 26.6924 9.00658C26.7118 8.98913 26.6158 8.85683 26.6158 8.85683C26.5242 8.80062 26.4016 8.86023 26.3231 8.91063C26.2654 9.02015 26.2562 9.14906 26.2974 9.26585C26.4268 9.51009 26.878 9.92492 27.0941 9.92928Z" fill="white"/>
<path d="M26.9414 8.0563C27.2568 8.44302 27.5791 8.83507 27.9028 9.23342C27.9726 10.1232 27.991 10.8511 28.0598 11.7403C28.0502 12.1174 27.9338 12.4459 27.8229 12.4929C27.8229 12.4929 27.6562 12.5899 27.5437 12.4832C27.4618 12.4498 27.1357 11.9395 27.1357 11.9395C26.969 11.7864 26.859 11.8295 26.7402 11.9395C26.4126 12.255 26.2653 12.8472 26.0434 13.2543C25.9852 13.3459 25.8238 13.4234 25.644 13.248C25.1885 12.6243 25.4555 11.7379 25.3998 11.9666C24.9937 12.4241 25.1725 13.1816 25.2641 13.3449C25.3979 13.6119 25.5064 13.7844 25.7671 13.9167C26.0041 14.0912 26.1892 13.9812 26.2905 13.8595C26.5294 13.6109 26.5328 12.9809 26.6448 12.8535C26.7223 12.6243 26.9215 12.663 27.0174 12.7653C27.1052 12.8893 27.2215 12.9901 27.3567 13.0594C27.5796 13.2567 27.8456 13.2921 28.1073 13.1123C28.2862 13.012 28.4034 12.8816 28.5081 12.6243C28.6244 12.3141 28.5609 10.8884 28.5372 10.033C28.7039 10.2482 28.8667 10.4735 29.0315 10.6984C29.1037 11.4122 29.1444 12.1232 29.1207 12.8491C29.1032 12.9945 29.6266 12.4183 29.6227 12.145C29.6208 11.924 29.6227 11.7239 29.6227 11.5353C29.8747 11.9143 30.1204 12.3054 30.3506 12.7188C30.495 12.6432 30.4475 11.8305 30.3559 11.7185C30.0899 11.2727 29.7356 10.8084 29.4914 10.4769C29.4754 10.4348 29.4667 10.3878 29.4473 10.3475C29.3494 10.1203 29.4105 9.93708 29.3644 9.69623C29.3194 9.45392 29.331 9.09191 29.2612 8.80454C29.2418 8.69259 29.1837 8.33301 29.2011 8.29957C29.2292 8.21864 29.3368 8.30151 29.3896 8.20895C29.4681 8.12269 29.1173 7.21258 28.9384 6.95235C28.874 6.83604 28.7577 6.87578 28.6133 7.06526C28.481 7.19029 28.5304 7.47427 28.5808 7.74469C28.7068 8.3994 28.8124 9.02746 28.9026 9.64874C28.7087 9.39141 28.5134 9.13553 28.3157 8.88111L28.307 8.83362C28.307 8.82198 28.2779 8.26953 28.2522 8.13771C28.2479 8.08489 28.2348 8.0689 28.291 8.0752C28.3501 8.12463 28.3579 8.12802 28.3957 8.14498C28.4558 8.15564 28.5086 8.05339 28.4732 7.95986L27.9164 6.93441C27.8723 6.89032 27.8141 6.84282 27.7439 6.94605C27.6562 7.02261 27.6058 7.13408 27.6062 7.25087C27.6237 7.49317 27.6654 7.74081 27.6818 7.98409L27.7056 8.11542C27.6809 8.08634 27.6508 8.04951 27.6377 8.03691C27.1648 7.53921 27.8553 7.95598 27.5471 7.57168C27.2864 7.28528 27.2113 7.19562 26.9869 7.02358C26.875 6.95138 26.8071 6.81375 26.7703 7.0483C26.7519 7.25426 26.7465 7.46119 26.7543 7.66764C26.7543 7.7665 26.8546 7.94774 26.9418 8.05533L26.9414 8.0563ZM17.3557 9.2184C17.6271 9.33034 17.8006 8.81326 17.9125 8.24723C17.9881 8.08779 18.0463 8.07083 18.085 8.15225C18.0754 8.90631 18.1388 9.07301 18.3327 9.30224C18.7645 9.63614 19.1221 9.3444 19.1512 9.31629L19.487 8.98045C19.5612 8.90195 19.6615 8.89662 19.7671 8.9664C19.8704 9.05896 19.8563 9.22034 20.0763 9.33277C20.2614 9.40691 20.6579 9.35021 20.7495 9.19078C20.8735 8.97948 20.9036 8.90631 20.9593 8.82683C21.0475 8.70955 21.1982 8.76238 21.1982 8.79872C21.1841 8.86463 21.0959 8.93005 21.156 9.04733C21.2617 9.12584 21.2854 9.07544 21.3479 9.05799C21.5675 8.95235 21.7313 8.47646 21.7313 8.47646C21.741 8.2986 21.6421 8.31362 21.5772 8.35046C21.4933 8.40086 21.488 8.4183 21.4037 8.47016C21.2961 8.48615 21.0882 8.55739 20.9859 8.39795C20.8803 8.20604 20.8784 7.93902 20.7984 7.74663C20.7984 7.73257 20.6583 7.44181 20.7887 7.42339C20.8546 7.43502 20.9932 7.47185 21.016 7.35554C21.0838 7.24118 20.8687 6.916 20.7218 6.75123C20.5939 6.61118 20.416 6.59422 20.245 6.73718C20.1243 6.84815 20.1417 6.97076 20.118 7.08804C20.0783 7.2562 20.1204 7.4326 20.2309 7.5649C20.3506 7.8009 20.5692 8.10573 20.497 8.53219C20.497 8.53219 20.37 8.73475 20.1471 8.70859C20.0545 8.68823 19.9038 8.64849 19.8238 8.05581C19.7637 7.60657 19.8389 6.979 19.6484 6.68484C19.5796 6.50699 19.5302 6.33592 19.362 6.63977C19.3169 6.75947 19.1231 6.94023 19.2641 7.31387C19.3794 7.54987 19.4255 7.93417 19.3741 8.36257C19.2946 8.48421 19.2772 8.5254 19.1725 8.64704C19.0262 8.80405 18.8677 8.76432 18.7461 8.70519C18.6317 8.62862 18.5435 8.58889 18.4921 8.34561C18.5018 7.95792 18.5231 7.32259 18.4524 7.18787C18.3477 6.979 18.1757 7.05411 18.1015 7.11808C17.7473 7.44229 17.5728 7.98845 17.4662 8.42218C17.3683 8.73863 17.2636 8.64849 17.1904 8.52007C17.0116 8.35191 17 7.04151 16.7834 7.25814C16.4354 8.24239 16.9792 9.32356 17.3562 9.21791L17.3557 9.2184Z" fill="white"/>
<path d="M22.5052 11.3337L22.402 11.2746L20.3763 11.2649C20.2716 11.2251 20.3031 11.1907 20.3763 11.1626C20.8599 11.0967 21.7201 10.9572 21.7773 10.1309C21.7676 9.70104 21.5922 9.419 21.0645 9.34146C20.6777 9.3715 20.401 9.74756 20.4451 10.16C20.4267 10.2719 20.4819 10.4895 20.3685 10.5142C19.6242 10.5821 18.8134 11.0473 18.7868 11.3812C18.7417 11.4122 18.6404 11.3221 18.653 11.1796C18.6172 10.5714 18.4422 9.97969 18.1413 9.45001C17.9067 9.21546 17.9799 9.293 17.8224 9.40349C17.7211 9.51979 17.7027 9.59927 17.708 9.83092C17.708 9.83964 17.8975 10.3684 18.0579 10.7386C18.1645 11.1185 18.2648 11.5527 18.1926 11.9632C17.9426 12.506 17.44 12.9925 16.9554 13.2566C16.7054 13.3376 16.4912 13.3085 16.4383 13.2523C16.2842 13.1491 16.292 12.9581 16.3036 12.9552C16.7117 12.6698 17.1793 12.4406 17.5452 11.6724C17.6528 11.3797 17.6852 11.2019 17.5786 10.7483C17.5491 10.5884 17.4754 10.4401 17.3664 10.3199C17.4323 10.2768 17.6203 10.4202 17.6494 10.3349C17.5946 10.0868 17.471 9.85902 17.2927 9.67778C17.1473 9.54548 16.9889 9.53046 16.8556 9.65209C16.7049 9.73593 16.6724 10.0354 16.7446 10.2981C16.8241 10.4963 17.0407 10.5297 17.1958 10.9271C17.1958 10.9358 17.252 11.2242 17.172 11.3376C17.1086 11.5358 16.2847 12.1827 16.2396 12.2118C16.2169 12.2399 16.2266 12.1978 16.2236 12.0902C16.2183 11.9589 16.2765 11.6487 16.2605 11.6463C15.9925 11.8198 15.9028 12.3504 15.8544 12.5079C15.1759 12.9765 14.4083 13.3255 13.9644 13.8014C13.7327 14.1619 15.5558 13.3865 15.7681 13.293C15.8156 13.3274 15.8103 13.4902 15.9372 13.6356C16.1267 13.892 16.5275 14.0504 16.9205 13.9521C17.5777 13.7141 17.9576 13.2659 18.3433 12.7696C18.3981 12.6887 18.4844 12.6276 18.5643 12.6887C18.8294 13.2818 19.5951 13.702 20.5823 13.7461C20.8115 13.467 20.7005 13.3327 20.6079 13.2746C20.6079 13.2659 20.1199 13.0807 20.0458 12.8956C20.0007 12.7275 20.1102 12.5801 20.3303 12.4682C20.9646 12.3916 21.5883 12.3068 22.1921 12.113C22.1984 11.9104 22.3162 11.607 22.3967 11.4752C22.4742 11.3415 22.5164 11.3817 22.5042 11.3332L22.5052 11.3337ZM20.8391 10.0718C20.8692 10.0214 20.9695 10.0233 21.063 10.0781C21.1565 10.1319 21.2093 10.2181 21.1783 10.2685C21.1483 10.3204 21.047 10.317 20.9535 10.2622C20.8599 10.2084 20.8091 10.1231 20.8391 10.0718ZM20.024 12.1178C19.8064 12.192 19.5975 12.2501 19.5975 12.5646C19.6785 13.0017 19.4865 12.852 19.3736 12.7919C19.2399 12.696 18.8643 12.4643 18.8105 11.9647C18.8018 11.845 18.8958 11.7451 19.0451 11.7451C19.2699 11.8067 19.6029 11.811 19.8917 11.8411C20.1277 11.8561 20.245 12.0412 20.024 12.1178ZM12.5212 7.26634C12.7538 7.37829 13.1934 7.3308 13.174 6.95425C13.174 6.92081 13.1653 6.80887 13.1623 6.77882C13.1149 6.66784 12.9859 6.69498 12.9554 6.80984C12.9457 6.84764 12.9714 6.90773 12.938 6.92711C12.9186 6.9465 12.8444 6.93487 12.8473 6.83116C12.8473 6.79772 12.8226 6.76234 12.8086 6.74199C12.7936 6.7323 12.7848 6.72891 12.7582 6.72891C12.7257 6.72988 12.7257 6.7386 12.7087 6.76671C12.701 6.79384 12.6903 6.82147 12.6903 6.85297C12.686 6.8898 12.6719 6.9024 12.6453 6.90918C12.6152 6.90918 12.6215 6.91257 12.5978 6.8961C12.5827 6.88011 12.5643 6.87332 12.5643 6.84667C12.5643 6.81517 12.559 6.78415 12.5493 6.75411C12.5362 6.73666 12.5159 6.72939 12.4921 6.72309C12.3652 6.72309 12.3564 6.86847 12.3642 6.92469C12.3526 6.93438 12.3482 7.1951 12.5212 7.26731V7.26634Z" fill="white"/>
<path d="M19.6791 9.72138C19.6791 9.68794 19.6544 9.65354 19.6404 9.63221C19.6253 9.62252 19.6166 9.61913 19.59 9.61913C19.5575 9.6201 19.5589 9.62882 19.5405 9.65693C19.5328 9.68504 19.5221 9.71169 19.5221 9.74319C19.5187 9.78099 19.5037 9.79359 19.477 9.79941C19.447 9.79941 19.4533 9.8028 19.4286 9.78778C19.4136 9.77178 19.3951 9.765 19.3951 9.73834C19.3951 9.70684 19.3903 9.67534 19.3801 9.64578C19.367 9.62834 19.3467 9.62107 19.3229 9.61574C19.196 9.61574 19.1873 9.76112 19.1936 9.81588C19.1839 9.82654 19.1785 10.0863 19.352 10.1595C19.5856 10.2705 20.1405 10.206 20.0048 9.84738C20.0024 9.78826 19.9985 9.72962 19.9932 9.67098C19.9457 9.56001 19.8153 9.58811 19.7862 9.702C19.7775 9.7398 19.8037 9.79989 19.7688 9.81927C19.7513 9.83866 19.6762 9.82703 19.6796 9.72235L19.6791 9.72138ZM23.3375 8.96005C23.5701 9.072 24.0082 9.02451 23.9888 8.64893C23.9864 8.58981 23.9825 8.53117 23.9772 8.47253C23.9297 8.36156 23.8008 8.38967 23.7717 8.50355C23.762 8.54135 23.7877 8.60144 23.7533 8.62083C23.7339 8.64021 23.6597 8.62955 23.6627 8.52487C23.6627 8.49143 23.6379 8.45606 23.6239 8.4357C23.6089 8.42601 23.6001 8.42262 23.572 8.42262C23.5396 8.42456 23.541 8.43231 23.5226 8.46042C23.5148 8.48853 23.5042 8.51518 23.5042 8.54668C23.4998 8.58448 23.4858 8.59708 23.4591 8.6029C23.4291 8.6029 23.4354 8.60629 23.4107 8.59126C23.3956 8.57527 23.3782 8.56849 23.3782 8.54183C23.3782 8.50985 23.3729 8.47835 23.3632 8.4483C23.3491 8.43086 23.3297 8.42359 23.305 8.41826C23.178 8.41826 23.1693 8.56364 23.1771 8.6184C23.1693 8.62906 23.164 8.88882 23.3375 8.96102V8.96005ZM23.4945 7.50428C23.5774 7.73689 23.431 7.95884 23.5182 7.99083C23.5967 8.02766 23.7087 7.75046 23.7499 7.49555C23.7983 7.28862 23.651 6.86556 23.4417 6.77832C23.3147 6.74828 23.1335 6.82339 23.1916 6.99349C23.1625 7.07539 23.448 7.35308 23.494 7.50379L23.4945 7.50428ZM25.6428 12.9576C25.8056 12.9586 25.9927 12.5859 26.0726 12.2167C26.1167 11.7083 26.0426 11.3991 26.0295 11.1001C26.0155 10.8016 25.6922 8.5239 25.6258 8.29807C25.5473 7.87064 25.9413 8.24089 25.8982 7.99228C25.7615 7.67874 25.4223 7.2232 25.3147 6.95085C25.2502 6.83454 25.2779 6.73132 25.1339 6.9208C25.0016 7.35695 24.9551 7.71218 25.006 7.98356C25.3486 9.7713 25.6995 11.2576 25.6438 12.9576H25.6428ZM29.6879 8.28402C29.7257 8.40033 29.6307 8.77639 29.7092 8.81079C29.7814 8.84956 29.8827 8.55104 29.9205 8.27433C29.9408 8.12264 29.8298 7.59248 29.6394 7.49798C29.5231 7.46551 29.3583 7.54644 29.4121 7.73156C29.385 7.82073 29.6457 8.12022 29.6879 8.28402ZM15.5599 12.221C15.6297 12.2501 15.7257 12.0306 15.7625 11.827C15.7828 11.7151 15.6753 11.3264 15.493 11.2562C15.3811 11.2324 15.228 11.2625 15.2755 11.4287C15.2701 11.5178 15.5231 11.6259 15.5381 11.8338C15.5749 11.9201 15.4843 12.1968 15.5594 12.2215L15.5599 12.221ZM10.6537 7.25082C10.6891 7.33999 10.6183 7.62543 10.6925 7.65257C10.7603 7.68261 10.8563 7.45436 10.8916 7.24452C10.912 7.12822 10.896 6.73423 10.6266 6.65329C10.5156 6.62858 10.3615 6.69013 10.4124 6.83115C10.3867 6.89803 10.614 7.12628 10.6537 7.25131V7.25082ZM15.9326 8.51421C15.7271 8.62616 15.6462 8.95812 15.7756 9.15051C15.8953 9.32158 16.0848 9.25809 16.1104 9.25809C16.313 9.28281 16.4322 8.87912 16.4322 8.87912C16.4322 8.87912 16.4385 8.76621 16.1986 8.98041C16.0974 8.99979 16.0843 8.96199 16.0596 8.90384C16.0348 8.79868 16.046 8.6877 16.0906 8.58933C16.125 8.48901 16.0474 8.44491 15.9321 8.51373L15.9326 8.51421ZM17.4853 7.27263C17.5526 7.23095 17.5987 7.16311 17.6123 7.08509C17.6433 6.92807 17.4455 7.15923 17.4203 6.9838C17.3762 6.82097 17.5032 6.75458 17.6239 6.59708C17.6282 6.48853 17.6258 6.41196 17.4785 6.50016C17.3753 6.56994 17.1684 6.78317 17.1621 7.02887C17.1558 7.16795 17.1296 7.1665 17.2212 7.25519C17.2871 7.35114 17.3525 7.34145 17.4848 7.27263H17.4853ZM18.8844 7.35647C19.0181 6.99446 19.0181 6.84181 19.0278 6.6877C18.9871 6.45412 18.8286 6.46139 18.724 6.72114C18.6789 6.81903 18.6261 7.33515 18.6348 7.33515C18.5994 7.48925 18.7952 7.55468 18.8849 7.35647H18.8844ZM27.683 9.92298C27.683 9.92298 26.6028 10.6906 26.5771 10.7177C26.4695 10.8127 26.5233 11.1486 26.5771 11.1098C26.6537 11.1398 27.7402 10.4023 27.7189 10.316C27.7693 10.3179 27.7945 9.88421 27.6835 9.92298H27.683ZM27.5507 12.0059C27.6229 12.0446 27.8134 11.8086 27.8061 11.5149C27.8274 11.3633 27.7513 10.8064 27.5619 10.7114C27.4455 10.679 27.2905 10.7783 27.3443 10.9625C27.3171 11.0507 27.478 11.3599 27.5197 11.5237C27.5575 11.6409 27.4722 11.9714 27.5507 12.0063V12.0059ZM21.4339 13.6167C21.4339 13.6264 21.5255 13.7049 21.6331 13.6424C21.8594 13.5552 22.0014 13.4713 22.3179 13.4011C22.4007 13.4001 22.3954 13.1772 22.2641 13.1694C22.093 13.1781 21.9336 13.1869 21.762 13.3225C21.6564 13.3463 21.6394 13.2828 21.6156 13.2247C21.59 13.0812 21.6748 12.9823 21.6564 12.8757C21.6627 12.882 21.5585 12.7866 21.4518 12.8404C21.4465 12.8404 21.2139 12.9974 21.1398 13.1074C21.0932 13.1428 21.099 13.1733 21.1126 13.2324C21.148 13.3143 21.2115 13.2896 21.2827 13.2508C21.3777 13.2377 21.4228 13.3003 21.415 13.4137C21.3699 13.5571 21.4334 13.6094 21.4334 13.6172L21.4339 13.6167ZM28.4889 13.7955C28.4535 13.8571 28.4298 13.9496 28.5393 13.9787C28.7419 14.0359 29.2081 13.732 29.2081 13.7267C29.2837 13.6695 29.2585 13.5629 29.2522 13.5629C29.2081 13.5125 29.1087 13.5416 29.0423 13.5338C29.0113 13.5338 28.9057 13.5178 28.9561 13.4253C28.9915 13.3754 29.0201 13.3206 29.0399 13.2625C29.0709 13.1927 29.0443 13.1461 28.9299 13.1083C28.8146 13.087 28.7685 13.0977 28.6401 13.1083C28.5713 13.1234 28.5476 13.1534 28.5345 13.2377C28.5398 13.3647 28.6164 13.3584 28.6958 13.4088C28.7424 13.4679 28.7724 13.5217 28.6925 13.6177C28.6169 13.6875 28.5645 13.7262 28.488 13.7955H28.4889ZM28.282 19.3846H26.6668V18.8462C26.6668 18.5486 26.4259 18.3078 26.1284 18.3078C25.8308 18.3078 25.59 18.5486 25.59 18.8462V19.3846H12.6658C12.6658 19.3846 12.6658 20.4614 15.8967 20.4614H25.589V20.9998C25.589 21.2973 25.8298 21.5382 26.1274 21.5382C26.4249 21.5382 26.6658 21.2973 26.6658 20.9998V20.4614H27.7426V20.9998C27.7426 21.2973 27.9835 21.5382 28.281 21.5382C28.5786 21.5382 28.8194 21.2973 28.8194 20.9998V19.923C28.8194 19.6254 28.5786 19.3846 28.281 19.3846H28.282Z" fill="white"/>
</g>
<defs>
<clipPath id="clip0_998_3090">
<rect width="38.7691" height="28" fill="white" transform="translate(0.820312)"/>
</clipPath>
</defs>
</svg>
