<svg width="24" height="18" viewBox="0 0 24 18" fill="none" xmlns="http://www.w3.org/2000/svg">
<g clip-path="url(#clip0_1005_661)">
<path d="M22.5001 3.00015H1.49986C0.671404 3.00015 0 2.3283 0 1.49985C0 0.6714 0.671404 0 1.49986 0H22.5001C23.3286 0 24 0.6714 24 1.49985C24 2.3283 23.3286 2.9997 22.5001 2.9997V3.00015Z" fill="#868686"/>
<path d="M22.5001 17.9999H1.49986C0.671404 17.9999 0 17.3285 0 16.5001C0 15.6716 0.671404 15.0002 1.49986 15.0002H22.5001C23.3286 15.0002 24 15.6716 24 16.5001C24 17.3285 23.3286 17.9999 22.5001 17.9999Z" fill="#868686"/>
<path d="M22.5001 10.4998H1.49986C0.671404 10.4998 0 9.82842 0 8.99997C0 8.17152 0.671404 7.50012 1.49986 7.50012H22.5001C23.3286 7.50012 24 8.17152 24 8.99997C24 9.82842 23.3286 10.4998 22.5001 10.4998Z" fill="#868686"/>
</g>
<defs>
<clipPath id="clip0_1005_661">
<rect width="24" height="18" fill="white"/>
</clipPath>
</defs>
</svg>
