
<svg width="79" height="68" viewBox="0 0 79 68" fill="none" xmlns="http://www.w3.org/2000/svg">
<path d="M59.2514 28.2137C63.9244 28.2137 67.7157 24.4224 67.7157 19.7494C67.7157 15.0765 63.9244 11.2852 59.2514 11.2852C54.5784 11.2852 50.7871 15.0765 50.7871 19.7494C50.7871 24.4224 54.5784 28.2137 59.2514 28.2137Z" fill="#26262F"/>
<path d="M74.0625 0H4.9375C2.18661 0 0 2.23951 0 4.9904V62.7239C0 65.4748 2.18661 67.7143 4.9375 67.7143H74.0625C76.8134 67.7143 79 65.4748 79 62.7239V4.9904C79 2.23951 76.8134 0 74.0625 0ZM55.8819 34.8623C55.3529 34.2451 54.5417 33.769 53.6248 33.769C52.7254 33.769 52.0906 34.1922 51.3676 34.7741L48.0701 37.5603C47.3824 38.054 46.8357 38.3891 46.0422 38.3891C45.2839 38.3891 44.5962 38.1069 44.1025 37.6661C43.9261 37.5074 43.6087 37.2076 43.3442 36.9431L33.8571 26.6801C33.1518 25.869 32.0938 25.3576 30.9123 25.3576C29.7308 25.3576 28.6375 25.9395 27.9498 26.733L5.64286 53.6424V7.70603C5.8192 6.50692 6.75379 5.64286 7.9529 5.64286H71.0295C72.2462 5.64286 73.2337 6.54219 73.3042 7.75893L73.3571 53.6777L55.8819 34.8623Z" fill="#26262F"/>
</svg>
