<svg width="120" height="96" viewBox="0 0 120 96" fill="none" xmlns="http://www.w3.org/2000/svg">
  <defs>
    <linearGradient id="bg" x1="16" y1="10" x2="104" y2="86" gradientUnits="userSpaceOnUse">
      <stop stop-color="#F8FAFC"/>
      <stop offset="1" stop-color="#EDF2F7"/>
    </linearGradient>
    <linearGradient id="hill1" x1="24" y1="70" x2="70" y2="38" gradientUnits="userSpaceOnUse">
      <stop stop-color="#D8E7F8"/>
      <stop offset="1" stop-color="#C4D9F3"/>
    </linearGradient>
    <linearGradient id="hill2" x1="56" y1="76" x2="100" y2="44" gradientUnits="userSpaceOnUse">
      <stop stop-color="#CBEAD6"/>
      <stop offset="1" stop-color="#B3DFC3"/>
    </linearGradient>
  </defs>

  <rect x="8" y="8" width="104" height="80" rx="14" fill="url(#bg)" stroke="#D6DEE8" stroke-width="2"/>
  <rect x="20" y="20" width="80" height="10" rx="5" fill="#E7ECF3"/>
  <circle cx="89" cy="47" r="8" fill="#F8DDB5"/>

  <path d="M22 74C22 74 33 59 42 59C50 59 57 66 63 70C67 73 72 74 72 74H22Z" fill="url(#hill1)"/>
  <path d="M50 74C50 74 62 54 73 54C83 54 90 65 98 74H50Z" fill="url(#hill2)"/>

  <g opacity="0.95">
    <rect x="48" y="36" width="24" height="18" rx="3" fill="#FFFFFF" stroke="#C5D3E3" stroke-width="1.6"/>
    <path d="M48 42L60 47L72 42" stroke="#B1C2D7" stroke-width="1.6" stroke-linecap="round" stroke-linejoin="round"/>
    <path d="M60 47V54" stroke="#B1C2D7" stroke-width="1.6" stroke-linecap="round"/>
  </g>

  <rect x="20" y="74" width="80" height="4" rx="2" fill="#DAE3EE"/>
</svg>
