<svg width="43" height="52" viewBox="0 0 43 52" fill="none" xmlns="http://www.w3.org/2000/svg">
<path d="M27.7254 34.176C28.572 33.5434 29.3272 32.8157 29.9646 31.9716C31.9015 29.4041 32.3415 26.5279 31.6311 23.4527C31.1515 21.3758 29.975 19.7094 28.382 18.3183C25.9356 16.1818 23.0763 15.5816 19.9488 16.0962C18.0306 16.4117 16.3896 17.3295 14.9871 18.6746C13.2031 20.3854 12.0903 22.4378 11.9066 24.9258C11.8298 25.9622 11.8163 27.0106 12.0277 28.0428C12.5146 30.4253 13.7793 32.3304 15.6333 33.8578C17.7895 35.6349 20.3001 36.2456 23.0382 35.9891C24.7487 35.8287 26.3031 35.2123 27.7259 34.176H27.7254ZM18.3636 45.8896C16.3604 44.8391 14.3744 43.7965 12.3878 42.7554C10.2165 41.6177 8.03107 40.5061 5.87801 39.3344C4.49014 38.579 3.37525 37.4962 2.50985 36.1672C1.35947 34.4016 0.808289 32.461 0.892845 30.3569C0.968528 28.48 1.54424 26.752 2.61529 25.2063C4.31476 22.7538 6.67869 21.3695 9.60841 20.9213C9.89652 20.8774 10.1893 20.8623 10.5563 20.8268C10.288 20.6821 10.0797 20.5677 9.87043 20.4564C8.53475 19.747 7.14114 19.127 5.87331 18.3121C2.68471 16.2623 1.08023 13.2973 1.19923 9.4861C1.28431 6.77186 2.40337 4.48596 4.38993 2.65139C5.99441 1.16943 7.90841 0.316918 10.0849 0.0667025C12.3581 -0.194483 14.4563 0.324231 16.4601 1.39718C19.3178 2.92773 22.2 4.41283 25.0718 5.91726C27.1121 6.98655 29.1519 8.05689 31.1917 9.12671C33.4084 10.289 35.6533 11.4011 37.834 12.6276C40.4511 14.0997 42.1344 16.3417 42.6809 19.3093C43.433 23.3911 42.0556 26.7123 38.7908 29.2255C37.3288 30.3506 35.6215 30.9394 33.7795 31.1138C33.6323 31.1279 33.4862 31.1467 33.2664 31.1718C33.4094 31.2575 33.5018 31.3191 33.5989 31.3703C34.8991 32.0546 36.2181 32.7055 37.4963 33.4279C39.9276 34.8012 41.5827 36.8312 42.2617 39.5506C43.2039 43.3227 42.2482 46.6314 39.4312 49.2882C36.989 51.5913 34.0123 52.379 30.7 51.8347C29.6295 51.6587 28.6252 51.2685 27.6643 50.7639C24.6709 49.192 21.6749 47.6254 18.6799 46.0562C18.5797 46.004 18.4806 45.9497 18.3642 45.8875L18.3636 45.8896Z" fill="#363088"/>
<mask id="mask0_218_1239" style="mask-type:luminance" maskUnits="userSpaceOnUse" x="0" y="0" width="43" height="52">
<path d="M27.7238 34.176C28.5704 33.5434 29.3257 32.8157 29.963 31.9716C31.8999 29.4041 32.3399 26.5279 31.6296 23.4527C31.1499 21.3758 29.9734 19.7094 28.3804 18.3183C25.934 16.1818 23.0748 15.5816 19.9472 16.0962C18.029 16.4117 16.388 17.3295 14.9855 18.6746C13.2015 20.3854 12.0887 22.4378 11.905 24.9258C11.8282 25.9622 11.8147 27.0106 12.0261 28.0428C12.513 30.4253 13.7777 32.3304 15.6317 33.8578C17.7879 35.6349 20.2985 36.2456 23.0367 35.9891C24.7471 35.8287 26.3015 35.2123 27.7243 34.176H27.7238ZM18.362 45.8896C16.3588 44.8391 14.3728 43.7965 12.3862 42.7554C10.2149 41.6177 8.02948 40.5061 5.87642 39.3344C4.48855 38.579 3.37366 37.4962 2.50827 36.1672C1.35788 34.4016 0.806702 32.461 0.891258 30.3569C0.966941 28.48 1.54265 26.752 2.6137 25.2063C4.31318 22.7538 6.6771 21.3695 9.60682 20.9213C9.89494 20.8774 10.1878 20.8623 10.5547 20.8268C10.2864 20.6821 10.0781 20.5677 9.86884 20.4564C8.53316 19.747 7.13955 19.127 5.87173 18.3121C2.68312 16.2623 1.07864 13.2973 1.19764 9.4861C1.28272 6.77186 2.40179 4.48596 4.38834 2.65139C5.99282 1.16943 7.90682 0.316918 10.0834 0.0667025C12.3565 -0.194483 14.4547 0.324231 16.4585 1.39718C19.3162 2.92773 22.1984 4.41283 25.0702 5.91726C27.1105 6.98655 29.1503 8.05689 31.1901 9.12671C33.4068 10.289 35.6517 11.4011 37.8324 12.6276C40.4495 14.0997 42.1328 16.3417 42.6793 19.3093C43.4314 23.3911 42.054 26.7123 38.7892 29.2255C37.3272 30.3506 35.6199 30.9394 33.7779 31.1138C33.6307 31.1279 33.4846 31.1467 33.2648 31.1718C33.4078 31.2575 33.5002 31.3191 33.5973 31.3703C34.8975 32.0546 36.2165 32.7055 37.4947 33.4279C39.926 34.8012 41.5811 36.8312 42.2602 39.5506C43.2023 43.3227 42.2466 46.6314 39.4296 49.2882C36.9874 51.5913 34.0107 52.379 30.6984 51.8347C29.6279 51.6587 28.6236 51.2685 27.6627 50.7639C24.6693 49.192 21.6733 47.6254 18.6784 46.0562C18.5781 46.004 18.479 45.9497 18.3626 45.8875L18.362 45.8896Z" fill="white"/>
</mask>
<g mask="url(#mask0_218_1239)">
<path d="M23.1005 36.6651C24.9414 36.4927 26.6106 35.8272 28.1243 34.725L27.3257 33.627C25.9942 34.597 24.5541 35.1654 22.9742 35.3132L23.1005 36.6656V36.6651ZM15.2012 34.3818C17.5166 36.29 20.2125 36.9357 23.1005 36.6651L22.9742 35.3127C20.3863 35.555 18.0615 34.9794 16.064 33.3334L15.2012 34.3818ZM11.3618 28.1781C11.8837 30.7325 13.2434 32.7682 15.2012 34.3818L16.064 33.3334C14.3134 31.8911 13.1432 30.1172 12.6917 27.9065L11.3623 28.1786L11.3618 28.1781ZM11.2292 24.8752C11.1509 25.934 11.1326 27.055 11.3618 28.1781L12.6912 27.906C12.4986 26.9641 12.5074 25.9883 12.5821 24.9749L11.2287 24.8747L11.2292 24.8752ZM14.517 18.1841C12.6322 19.9915 11.427 22.1944 11.2292 24.8752L12.5826 24.9755C12.7522 22.6807 13.7732 20.7787 15.456 19.1646L14.517 18.1841ZM19.8377 15.4255C17.7635 15.7671 16.0019 16.7591 14.517 18.1836L15.456 19.1641C16.776 17.8979 18.2959 17.0553 20.058 16.7654L19.8377 15.425V15.4255ZM28.8273 17.8065C26.205 15.5164 23.1318 14.8838 19.8377 15.426L20.058 16.7664C23.019 16.279 25.6648 16.8474 27.9348 18.8303L28.8268 17.807L28.8273 17.8065ZM32.2915 23.2992C31.7722 21.0509 30.5002 19.2665 28.8273 17.8059L27.9353 18.8293C29.449 20.1509 30.5294 21.6997 30.9694 23.6053L32.2915 23.2992ZM30.5054 32.3806C32.5791 29.6319 33.0411 26.5436 32.2915 23.2997L30.9694 23.6058C31.6412 26.5118 31.2231 29.1759 29.4224 31.5626L30.5054 32.3811V32.3806ZM28.1305 34.7198C29.0225 34.0532 29.8253 33.2817 30.5054 32.3801L29.4224 31.5615C28.8284 32.3493 28.1206 33.032 27.3189 33.6312L28.1305 34.7193V34.7198ZM18.9937 45.4571C18.8925 45.4044 18.8111 45.3594 18.6811 45.29L18.0448 46.4898C18.1487 46.5447 18.2651 46.6084 18.3643 46.6601L18.9937 45.4571ZM27.9792 50.1647C24.9852 48.5929 21.9887 47.0258 18.9943 45.4571L18.3648 46.6607C21.3603 48.2299 24.3558 49.7965 27.3486 51.3677L27.9792 50.1652V50.1647ZM30.8092 51.1666C29.83 51.0057 28.8962 50.6464 27.9792 50.1647L27.3486 51.3672C28.3534 51.8948 29.4271 52.3158 30.5894 52.5065L30.8092 51.1661V51.1666ZM38.9647 48.7956C36.6905 50.9404 33.932 51.6791 30.8092 51.1666L30.5894 52.507C34.0902 53.0822 37.2861 52.2459 39.8959 49.7844L38.9652 48.7961L38.9647 48.7956ZM41.6026 39.7168C42.4858 43.2527 41.6016 46.3091 38.9652 48.7956L39.8959 49.7839C42.8929 46.9568 43.9201 43.3953 42.919 39.3877L41.6026 39.7168ZM37.1619 34.0208C39.4454 35.3111 40.9721 37.1937 41.6026 39.7173L42.919 39.3882C42.1909 36.4723 40.4079 34.2956 37.8289 32.8387L37.1619 34.0214V34.0208ZM33.2822 31.9732C34.6043 32.669 35.894 33.3047 37.1619 34.0208L37.8289 32.8382C36.5397 32.11 35.192 31.444 33.9138 30.7712L33.2822 31.9732ZM32.9163 31.7558C33.0223 31.8196 33.1632 31.9105 33.2822 31.9732L33.9138 30.7712C33.8376 30.731 33.7942 30.6991 33.6142 30.591L32.9163 31.7558ZM33.7144 30.4389C33.5594 30.4536 33.3934 30.475 33.1888 30.4985L33.3422 31.8478C33.5766 31.8211 33.7034 31.8039 33.8423 31.7908L33.7144 30.4389ZM38.3759 28.6885C37.0314 29.7233 35.4504 30.2749 33.7144 30.4395L33.8423 31.7914C35.7902 31.607 37.6243 30.9801 39.2032 29.7651L38.3759 28.6885ZM42.0124 19.4336C42.3683 21.3659 42.2159 23.085 41.6105 24.6051C41.0045 26.1273 39.9293 27.4923 38.3754 28.688L39.2027 29.7646C40.9142 28.4471 42.1601 26.8947 42.871 25.1076C43.5829 23.319 43.7426 21.3366 43.3465 19.1871L42.0119 19.4336H42.0124ZM37.5001 13.2211C39.9517 14.6001 41.504 16.676 42.0124 19.4342L43.347 19.1876C42.7614 16.0105 40.9476 13.6024 38.1651 12.0369L37.5001 13.2206V13.2211ZM30.8755 9.72955C33.111 10.9023 35.3309 12.0008 37.5001 13.2211L38.1651 12.0374C35.9734 10.8046 33.7029 9.6794 31.5055 8.52705L30.8755 9.73007V9.72955ZM24.7556 6.5201C26.7959 7.5894 28.8357 8.65921 30.8755 9.72903L31.5055 8.52601C29.4657 7.45619 27.4254 6.38585 25.3851 5.31656L24.7556 6.51958V6.5201ZM16.1387 1.99689C19 3.52953 21.8901 5.01829 24.7556 6.5201L25.3851 5.31708C22.5075 3.809 19.6331 2.3286 16.7786 0.799617L16.1381 1.99689H16.1387ZM10.1613 0.742156C12.2736 0.499254 14.2341 0.976701 16.1387 1.99689L16.7791 0.799617C14.6767 -0.326615 12.4401 -0.886597 10.0063 -0.607128L10.1613 0.742156ZM4.84884 3.15133C6.34371 1.7707 8.122 0.976701 10.1608 0.742156L10.0057 -0.607128C7.69192 -0.341241 5.64273 0.569774 3.92812 2.15308L4.84832 3.15133H4.84884ZM1.87684 9.50806C1.95566 6.98867 2.98704 4.87098 4.84936 3.15133L3.92916 2.15308C1.81838 4.10205 0.611109 6.55615 0.520289 9.46523L1.87684 9.50754V9.50806ZM6.2388 17.7417C3.24592 15.8178 1.76462 13.0753 1.87632 9.50806L0.519767 9.46575C0.392933 13.5214 2.1206 16.7084 5.50493 18.8846L6.23828 17.7417H6.2388ZM10.1874 19.8573C8.79376 19.1171 7.47739 18.5372 6.2388 17.7412L5.50546 18.8841C6.80303 19.7183 8.27337 20.3786 9.55111 21.0572L10.1874 19.8573ZM10.8774 20.2297C10.6143 20.0876 10.3993 19.9701 10.1868 19.8573L9.55059 21.0572C9.7578 21.1674 9.9598 21.2776 10.2323 21.4254L10.8769 20.2303L10.8774 20.2297ZM9.71031 21.5936C9.97546 21.5529 10.2119 21.5435 10.6216 21.5033L10.4896 20.1514C10.1654 20.1832 9.81626 20.2031 9.50518 20.2506L9.71031 21.5931V21.5936ZM3.17233 25.5945C4.75802 23.306 6.95126 22.0162 9.71031 21.5936L9.50518 20.2511C6.40478 20.7255 3.8707 22.2038 2.05744 24.8203L3.17285 25.5945H3.17233ZM1.56994 30.3851C1.6404 28.6368 2.17488 27.0336 3.17233 25.594L2.05692 24.8198C0.912275 26.4726 0.294806 28.3254 0.213903 30.3308L1.56994 30.3857V30.3851ZM3.07733 35.7969C2.00159 34.1462 1.49112 32.344 1.56994 30.3851L0.213903 30.3303C0.123083 32.5786 0.715499 34.6581 1.94052 36.5387L3.07733 35.7969ZM6.20174 38.7384C4.92296 38.0426 3.88845 37.0417 3.07786 35.7969L1.94104 36.5387C2.86177 37.9517 4.05652 39.1166 5.55348 39.9315L6.20174 38.7384ZM12.7021 42.1542C10.5209 41.0112 8.34853 39.9064 6.20174 38.7384L5.55348 39.9315C7.71227 41.1063 9.91178 42.2247 12.0727 43.3572L12.7021 42.1542ZM18.678 45.2884C16.6752 44.2384 14.6887 43.1953 12.7021 42.1542L12.0727 43.3572C14.0592 44.3983 16.0442 45.4404 18.0485 46.4909L18.6785 45.2879L18.678 45.2884ZM27.725 34.176L28.1243 34.725L28.1274 34.7224L28.1305 34.7198L27.7244 34.1755L27.725 34.176ZM33.265 31.1734L33.1882 30.4985L31.1996 30.7252L32.9163 31.7553L33.2655 31.1729L33.265 31.1734ZM10.5553 20.8273L10.6211 21.5033L12.8347 21.287L10.8774 20.2297L10.5553 20.8273ZM18.3632 45.8896L18.6811 45.29L18.6795 45.2889L18.678 45.2879L18.3632 45.8896Z" fill="#363088"/>
</g>
</svg>
