<svg width="24" height="24" viewBox="0 0 24 24" fill="none" xmlns="http://www.w3.org/2000/svg">
<path fill-rule="evenodd" clip-rule="evenodd" d="M12.0002 2.5C10.8241 2.49964 9.6789 2.87629 8.7326 3.57467C7.78631 4.27305 7.0888 5.25638 6.74245 6.38032C6.39611 7.50427 6.41917 8.70964 6.80825 9.81952C7.19732 10.9294 7.93193 11.8853 8.90424 12.547C7.21674 13.1659 5.75307 14.2757 4.7016 15.7335C3.65014 17.1913 3.05899 18.9304 3.00424 20.727C2.99828 20.9259 3.07157 21.119 3.208 21.2639C3.34444 21.4088 3.53283 21.4935 3.73174 21.4995C3.93066 21.5055 4.12379 21.4322 4.26866 21.2957C4.41354 21.1593 4.49828 20.9709 4.50424 20.772C4.56379 18.8235 5.3797 16.9747 6.77907 15.6174C8.17844 14.2602 10.0513 13.5011 12.0007 13.5011C13.9502 13.5011 15.8231 14.2602 17.2224 15.6174C18.6218 16.9747 19.4377 18.8235 19.4972 20.772C19.498 20.8719 19.5187 20.9706 19.5581 21.0623C19.5975 21.1541 19.6549 21.237 19.7268 21.3063C19.7987 21.3756 19.8837 21.4299 19.9769 21.4659C20.07 21.5019 20.1694 21.5189 20.2692 21.516C20.369 21.513 20.4673 21.4902 20.5582 21.4488C20.649 21.4074 20.7307 21.3483 20.7984 21.2749C20.8662 21.2015 20.9185 21.1153 20.9525 21.0214C20.9865 20.9275 21.0013 20.8277 20.9962 20.728C20.9417 18.9312 20.3506 17.1919 19.2992 15.7339C18.2477 14.2759 16.7839 13.166 15.0962 12.547C16.0686 11.8853 16.8032 10.9294 17.1922 9.81952C17.5813 8.70964 17.6044 7.50427 17.258 6.38032C16.9117 5.25638 16.2142 4.27305 15.2679 3.57467C14.3216 2.87629 13.1763 2.49964 12.0002 2.5ZM8.00024 8C8.00024 6.93913 8.42167 5.92172 9.17182 5.17157C9.92196 4.42143 10.9394 4 12.0002 4C13.0611 4 14.0785 4.42143 14.8287 5.17157C15.5788 5.92172 16.0002 6.93913 16.0002 8C16.0002 9.06087 15.5788 10.0783 14.8287 10.8284C14.0785 11.5786 13.0611 12 12.0002 12C10.9394 12 9.92196 11.5786 9.17182 10.8284C8.42167 10.0783 8.00024 9.06087 8.00024 8Z" fill="#868686"/>
</svg>
