<svg width="20" height="22" viewBox="0 0 20 22" fill="none" xmlns="http://www.w3.org/2000/svg">
<path d="M1 1V7M1 7H7M1 7L4 4.3C5.51344 2.96645 7.43099 2.17997 9.44496 2.06678C11.4589 1.95358 13.4525 2.52024 15.1059 3.67581C16.7592 4.83137 17.9764 6.50886 18.5622 8.43908C19.1479 10.3693 19.0683 12.4403 18.336 14.3199C17.6037 16.1994 16.2613 17.7784 14.524 18.8036C12.7868 19.8288 10.7556 20.2406 8.75628 19.9731C6.75695 19.7055 4.90547 18.7741 3.49893 17.3282C2.09239 15.8824 1.21234 14.0059 1 12" stroke="#DB2525" stroke-width="2" stroke-linecap="round" stroke-linejoin="round"/>
</svg>
