<svg width="19" height="25" viewBox="0 0 19 25" fill="none" xmlns="http://www.w3.org/2000/svg">
<path d="M15.0227 1.63801C13.5188 1.63801 13.5188 0 12.0148 0C10.5109 0 10.5109 1.63801 9.00698 1.63801C7.50305 1.63801 7.50305 0 5.99912 0C4.49518 0 4.49518 1.63801 2.99125 1.63801C1.48732 1.63801 1.50393 0 0 0V24.67C1.50393 24.67 1.50393 23.032 3.00787 23.032C4.5118 23.032 4.5118 24.67 6.01573 24.67C7.51967 24.67 7.51967 23.032 9.0236 23.032C10.5275 23.032 10.5275 24.67 12.0315 24.67C13.5354 24.67 13.5354 23.032 15.0393 23.032C16.5433 23.032 16.5433 24.67 18.0472 24.67V0C16.5433 0 16.5433 1.63801 15.0393 1.63801H15.0227ZM15.4548 18.3175H2.44285V16.1556H15.4548V18.3175ZM15.4548 13.4866H2.44285V11.3248H15.4548V13.4866ZM15.4548 8.71391H2.44285V6.55206H15.4548V8.71391Z" fill="#868686"/>
</svg>
