<svg width="19" height="19" viewBox="0 0 19 19" fill="none" xmlns="http://www.w3.org/2000/svg">
<path d="M16.16 2.7552C15.2888 1.87812 14.2521 1.18309 13.1096 0.709992C11.9675 0.236898 10.7423 -0.00428013 9.50606 -5.18513e-06C7.8531 0.00177604 6.22936 0.437108 4.79777 1.26324C3.36617 2.08937 2.17698 3.27674 1.34889 4.70635C0.521163 6.13632 0.0837711 7.75867 0.0805629 9.41058C0.0773546 11.0625 0.508687 12.6863 1.33071 14.1194L0 19L4.99062 17.6936C6.36874 18.4599 7.91726 18.8682 9.49394 18.881C12.0007 18.881 14.4061 17.8917 16.1864 16.1279C17.9666 14.3645 18.9779 11.9695 19 9.46437C18.9918 8.2143 18.7366 6.97813 18.2493 5.82675C17.762 4.67536 17.0519 3.63156 16.1603 2.75484L16.16 2.7552ZM9.5057 17.2544C8.10084 17.2555 6.72165 16.8778 5.51321 16.1618L5.22803 15.9837L2.26931 16.7674L3.05355 13.8818L2.86355 13.5851C1.85259 11.9542 1.47544 10.0094 1.80304 8.11919C2.13099 6.22895 3.14088 4.52467 4.64199 3.32875C6.1431 2.13319 8.03098 1.529 9.94773 1.63124C11.8645 1.73349 13.6775 2.53468 15.0428 3.88307C16.5353 5.34154 17.3895 7.33081 17.4194 9.41663C17.4005 11.5017 16.5585 13.4949 15.0763 14.963C13.5944 16.4307 11.5921 17.2544 9.5057 17.254V17.2544ZM13.7951 11.3881C13.5574 11.2695 12.4049 10.6995 12.191 10.6282C11.9771 10.557 11.8107 10.5096 11.6563 10.7469C11.4239 11.0653 11.174 11.3703 10.9077 11.6613C10.7769 11.8277 10.6343 11.8395 10.3969 11.6613C9.04193 11.1263 7.91298 10.1405 7.20039 8.87086C6.95086 8.45513 7.43816 8.47899 7.88946 7.58838C7.92296 7.52426 7.94008 7.45301 7.94008 7.38069C7.94008 7.30837 7.92261 7.23712 7.88946 7.173C7.88946 7.05437 7.35475 5.89051 7.16475 5.4274C6.97475 4.96428 6.78439 5.03553 6.63004 5.02377H6.16662C6.04649 5.02555 5.92814 5.05298 5.81977 5.10428C5.71141 5.15558 5.6148 5.22932 5.53709 5.32052C5.27045 5.57951 5.06263 5.89265 4.92717 6.23892C4.79206 6.58519 4.73253 6.9564 4.75285 7.32725C4.82735 8.21573 5.16208 9.06217 5.71533 9.76148C6.72807 11.2766 8.11582 12.5039 9.74347 13.3239C10.5972 13.822 11.5893 14.0304 12.5714 13.9178C12.8983 13.853 13.208 13.7201 13.4804 13.5277C13.7527 13.3353 13.9816 13.0881 14.1516 12.8017C14.3095 12.4522 14.3591 12.0635 14.2942 11.6856C14.1873 11.5669 14.0329 11.5074 13.7951 11.3888V11.3881Z" fill="#868686"/>
</svg>
