<svg width="18" height="19" viewBox="0 0 18 19" fill="none" xmlns="http://www.w3.org/2000/svg">
<path d="M10.3416 0H7.60566V8.31338H10.3416V0Z" fill="#868686"/>
<path d="M6.10927 3.88691V1.43139C2.56065 2.64282 0 6.01332 0 9.97548C0 14.9514 4.03807 19 8.99979 19C13.9615 19 18 14.9518 18 9.97548C18 6.01332 15.4394 2.64282 11.8907 1.43139V3.88815C14.1574 4.9743 15.7259 7.29462 15.7259 9.97548C15.7259 13.6945 12.7088 16.7198 8.99979 16.7198C5.29077 16.7198 2.27366 13.6949 2.27366 9.97548C2.27366 7.29462 3.84262 4.9743 6.10886 3.88691H6.10927Z" fill="#868686"/>
</svg>
