<svg width="20" height="20" viewBox="0 0 20 20" fill="none" xmlns="http://www.w3.org/2000/svg">
<path d="M15.109 11.1125C15.109 11.2198 15.1062 11.3265 15.101 11.4328C14.9397 14.614 12.389 17.1645 9.208 17.3258C9.102 17.3313 8.99525 17.3337 8.88775 17.3337C8.78025 17.3337 8.67375 17.331 8.5675 17.3258C5.3865 17.1645 2.83575 14.6138 2.6745 11.4328C2.669 11.3268 2.6665 11.22 2.6665 11.1125C2.6665 7.784 5.2805 5.066 8.56775 4.89925C8.67375 4.89375 8.7805 4.89125 8.888 4.89125C8.9955 4.89125 9.102 4.894 9.20825 4.89925C10.0782 4.9435 10.9008 5.1665 11.6405 5.532L13.5977 3.57475C12.2322 2.71975 10.618 2.22475 8.888 2.22475C3.979 2.22475 0 6.204 0 11.1125C0 16.021 3.979 20 8.8875 20C13.796 20 17.775 16.021 17.775 11.1125C17.775 9.3825 17.2803 7.76825 16.4253 6.40275L14.468 8.36C14.878 9.19 15.109 10.124 15.109 11.1125Z" fill="#868686"/>
<path d="M10.6315 12.1965L7.2985 12.7015L7.80325 9.3685L10.6282 6.5435C10.0875 6.33725 9.50075 6.224 8.8875 6.224C6.18775 6.224 3.99925 8.4125 3.99925 11.1122C3.99925 13.812 6.18775 16.0005 8.8875 16.0005C11.5872 16.0005 13.7758 13.812 13.7758 11.1122C13.7758 10.499 13.6625 9.91225 13.4563 9.3715L10.6312 12.1965H10.6315Z" fill="#868686"/>
<path d="M19.1 1.84275L18.1572 0.9L17.2128 1.84475V0H15.8795V3.17775L9.056 10.0015L8.8875 11.1125L9.9985 10.944L16.8223 4.1205H20V2.7875H18.1553L19.1 1.84275Z" fill="#868686"/>
</svg>
