<svg width="20" height="20" viewBox="0 0 20 20" fill="none" xmlns="http://www.w3.org/2000/svg">
<path d="M13.024 20C14.2771 20 15.3524 19.9342 16.2508 19.7345C17.1607 19.5323 17.9494 19.1798 18.5646 18.5646C19.1798 17.9494 19.5323 17.1607 19.7345 16.2508C19.9342 15.3524 20 14.2771 20 13.024V10C20 8.8954 19.1046 8 18 8H9.99999C8.89539 8 7.99999 8.8954 7.99999 10V18C7.99999 19.1046 8.89539 20 9.99999 20H13.024Z" fill="#868686"/>
<path d="M0 13.024C0 14.2771 0.0658401 15.3524 0.26552 16.2508C0.46772 17.1607 0.82021 17.9494 1.43543 18.5646C2.05065 19.1798 2.83933 19.5323 3.74915 19.7345C3.83628 19.7538 3.92385 19.772 4.01178 19.789C5.09629 19.9985 6 19.0806 6 17.976V10C6 8.8954 5.10457 8 4 8H2C0.89543 8 0 8.8954 0 10V13.024Z" fill="#868686"/>
<path d="M6.97597 0C5.72284 0 4.64759 0.0658401 3.74912 0.26552C2.8393 0.46772 2.05062 0.82021 1.4354 1.43543C0.820181 2.05065 0.467691 2.83933 0.265491 3.74915C0.248891 3.82386 0.233271 3.89881 0.218601 3.97398C0.00422141 5.07267 0.938901 6 2.0583 6H17.976C19.0806 6 19.9985 5.09629 19.789 4.01178C19.772 3.92385 19.7538 3.83628 19.7345 3.74915C19.5322 2.83933 19.1798 2.05065 18.5645 1.43543C17.9493 0.82021 17.1606 0.46772 16.2508 0.26552C15.3523 0.0658401 14.2771 0 13.024 0H6.97597Z" fill="#868686"/>
</svg>
