<svg width="18" height="18" viewBox="0 0 18 18" fill="none" xmlns="http://www.w3.org/2000/svg">
<path d="M0 4.02986C0 2.79072 -7.72476e-08 2.17116 0.199512 1.68139C0.473805 1.00806 1.00806 0.473805 1.68139 0.199512C2.17116 -7.72476e-08 2.79072 0 4.02986 0C5.26899 0 5.88856 -7.72476e-08 6.37832 0.199512C7.05165 0.473805 7.58592 1.00806 7.86024 1.68139C8.05968 2.17116 8.05968 2.79072 8.05968 4.02986C8.05968 5.26899 8.05968 5.88856 7.86024 6.37832C7.58592 7.05165 7.05165 7.58592 6.37832 7.86024C5.88856 8.05968 5.26899 8.05968 4.02986 8.05968C2.79072 8.05968 2.17116 8.05968 1.68139 7.86024C1.00806 7.58592 0.473805 7.05165 0.199512 6.37832C-7.72476e-08 5.88856 0 5.26899 0 4.02986Z" fill="#868686"/>
<path d="M0 13.9702C0 12.731 -7.72476e-08 12.1115 0.199512 11.6217C0.473805 10.9484 1.00806 10.4141 1.68139 10.1399C2.17116 9.94032 2.79072 9.94032 4.02986 9.94032C5.26899 9.94032 5.88856 9.94032 6.37832 10.1399C7.05165 10.4141 7.58592 10.9484 7.86024 11.6217C8.05968 12.1115 8.05968 12.731 8.05968 13.9702C8.05968 15.2093 8.05968 15.8288 7.86024 16.3186C7.58592 16.992 7.05165 17.5262 6.37832 17.8005C5.88856 18 5.26899 18 4.02986 18C2.79072 18 2.17116 18 1.68139 17.8005C1.00806 17.5262 0.473805 16.992 0.199512 16.3186C-7.72476e-08 15.8288 0 15.2093 0 13.9702Z" fill="#868686"/>
<path d="M9.94041 13.9702C9.94041 12.731 9.94041 12.1115 10.1399 11.6217C10.4143 10.9484 10.9485 10.4141 11.6218 10.1399C12.1116 9.94032 12.7311 9.94032 13.9702 9.94032C15.2095 9.94032 15.829 9.94032 16.3187 10.1399C16.9921 10.4141 17.5263 10.9484 17.8006 11.6217C18.0002 12.1115 18.0002 12.731 18.0002 13.9702C18.0002 15.2093 18.0002 15.8288 17.8006 16.3186C17.5263 16.992 16.9921 17.5262 16.3187 17.8005C15.829 18 15.2095 18 13.9702 18C12.7311 18 12.1116 18 11.6218 17.8005C10.9485 17.5262 10.4143 16.992 10.1399 16.3186C9.94041 15.8288 9.94041 15.2093 9.94041 13.9702Z" fill="#868686"/>
<path fill-rule="evenodd" clip-rule="evenodd" d="M13.2952 6.72989C13.2952 7.10268 13.5974 7.40493 13.9702 7.40493C14.343 7.40493 14.6452 7.10268 14.6452 6.72989V4.70489H16.6702C17.043 4.70489 17.3452 4.40268 17.3452 4.02989C17.3452 3.65711 17.043 3.35489 16.6702 3.35489H14.6452V1.32989C14.6452 0.957105 14.343 0.654894 13.9702 0.654894C13.5974 0.654894 13.2952 0.957105 13.2952 1.32989V3.35489H11.2702C10.8974 3.35489 10.5952 3.65711 10.5952 4.02989C10.5952 4.40268 10.8974 4.70489 11.2702 4.70489H13.2952V6.72989Z" fill="#868686"/>
</svg>
