<svg width="76" height="94" viewBox="0 0 76 94" fill="none" xmlns="http://www.w3.org/2000/svg">
<path d="M48.5238 61.7797C50.0542 60.6361 51.4194 59.3208 52.5715 57.7948C56.0729 53.1537 56.8683 47.9545 55.5842 42.3955C54.7171 38.641 52.5904 35.6288 49.7107 33.1142C45.2884 29.2521 40.1198 28.1671 34.4662 29.0972C30.9988 29.6676 28.0324 31.3267 25.4971 33.7582C22.2722 36.8507 20.2606 40.5608 19.9284 45.0584C19.7897 46.9318 19.7652 48.827 20.1473 50.6929C21.0276 54.9997 23.3138 58.4435 26.6652 61.2046C30.5629 64.417 35.1012 65.5209 40.0509 65.0573C43.1429 64.7674 45.9527 63.6531 48.5247 61.7797H48.5238ZM31.6008 82.9542C27.9795 81.0552 24.3894 79.1704 20.7984 77.2885C16.8733 75.2319 12.9228 73.2224 9.03076 71.1044C6.52193 69.739 4.50657 67.7815 2.94221 65.3793C0.862682 62.1876 -0.133677 58.6796 0.0191731 54.876C0.155984 51.4832 1.19669 48.3596 3.1328 45.5654C6.20491 41.1321 10.4781 38.6297 15.7741 37.8195C16.2949 37.7402 16.8243 37.7128 17.4875 37.6486C17.0026 37.387 16.6261 37.1802 16.2478 36.9791C13.8333 35.6968 11.3141 34.5759 9.02226 33.1028C3.25829 29.3975 0.357898 24.0378 0.573021 17.1483C0.726815 12.2418 2.74973 8.10967 6.34077 4.79336C9.24116 2.11444 12.7011 0.573375 16.6355 0.121065C20.7446 -0.351075 24.5375 0.586595 28.1597 2.52614C33.3255 5.29288 38.5356 7.97747 43.7269 10.697C47.4151 12.6299 51.1024 14.5648 54.7897 16.4986C58.7968 18.5997 62.8549 20.61 66.797 22.8272C71.5278 25.4882 74.5707 29.541 75.5585 34.9055C76.9181 42.2841 74.4282 48.2878 68.5265 52.8307C65.8836 54.8647 62.7974 55.9289 59.4677 56.2443C59.2016 56.2698 58.9374 56.3038 58.5402 56.3491C58.7987 56.504 58.9657 56.6154 59.1412 56.7079C61.4916 57.9449 63.8758 59.1215 66.1865 60.4275C70.5814 62.91 73.5734 66.5794 74.8009 71.4954C76.5039 78.314 74.7763 84.2951 69.6842 89.0977C65.2694 93.261 59.8885 94.685 53.9009 93.701C51.9657 93.3828 50.1504 92.6774 48.4134 91.7653C43.0023 88.9239 37.5865 86.092 32.1725 83.2554C31.9914 83.161 31.8121 83.0628 31.6017 82.9504L31.6008 82.9542Z" fill="#7272F6"/>
<mask id="mask0_1483_11019" style="mask-type:luminance" maskUnits="userSpaceOnUse" x="0" y="0" width="76" height="94">
<path d="M48.5199 61.7792C50.0503 60.6357 51.4155 59.3203 52.5676 57.7943C56.069 53.1532 56.8644 47.954 55.5802 42.395C54.7132 38.6406 52.5865 35.6283 49.7068 33.1137C45.2845 29.2516 40.1159 28.1666 34.4623 29.0967C30.9949 29.6671 28.0285 31.3262 25.4932 33.7577C22.2682 36.8502 20.2567 40.5603 19.9245 45.0579C19.7858 46.9313 19.7613 48.8265 20.1434 50.6924C21.0237 54.9993 23.3099 58.443 26.6613 61.2041C30.559 64.4165 35.0973 65.5204 40.047 65.0568C43.139 64.7669 45.9488 63.6526 48.5208 61.7792H48.5199ZM31.5969 82.9537C27.9756 81.0547 24.3855 79.17 20.7945 77.288C16.8694 75.2314 12.9189 73.2219 9.02685 71.1039C6.51802 69.7385 4.50266 67.781 2.9383 65.3788C0.858776 62.1871 -0.137584 58.6791 0.0152669 54.8755C0.152078 51.4828 1.19278 48.3591 3.12889 45.565C6.201 41.1316 10.4742 38.6292 15.7702 37.819C16.291 37.7397 16.8203 37.7123 17.4836 37.6481C16.9987 37.3866 16.6222 37.1798 16.2439 36.9786C13.8294 35.6963 11.3102 34.5754 9.01836 33.1024C3.25438 29.397 0.353992 24.0373 0.569115 17.1478C0.722909 12.2413 2.74582 8.10918 6.33687 4.79287C9.23726 2.11395 12.6972 0.572886 16.6316 0.120577C20.7407 -0.351563 24.5336 0.586106 28.1558 2.52566C33.3216 5.29239 38.5317 7.97698 43.723 10.6965C47.4112 12.6294 51.0985 14.5643 54.7858 16.4982C58.7929 18.5992 62.851 20.6095 66.7931 22.8267C71.5239 25.4877 74.5668 29.5405 75.5546 34.905C76.9142 42.2836 74.4243 48.2873 68.5225 52.8302C65.8797 54.8642 62.7935 55.9284 59.4638 56.2438C59.1977 56.2693 58.9335 56.3033 58.5363 56.3486C58.7948 56.5035 58.9618 56.6149 59.1373 56.7075C61.4876 57.9445 63.8719 59.121 66.1826 60.427C70.5775 62.9095 73.5695 66.5789 74.797 71.4949C76.5 78.3135 74.7724 84.2946 69.6803 89.0972C65.2655 93.2605 59.8846 94.6845 53.897 93.7005C51.9618 93.3823 50.1465 92.6769 48.4095 91.7648C42.9984 88.9234 37.5826 86.0915 32.1686 83.2549C31.9875 83.1605 31.8082 83.0623 31.5978 82.9499L31.5969 82.9537Z" fill="white"/>
</mask>
<g mask="url(#mask0_1483_11019)">
<path d="M40.1614 66.2777C43.4892 65.9661 46.5066 64.7631 49.2428 62.7706L47.7992 60.7857C45.3923 62.5393 42.7891 63.5667 39.9331 63.8339L40.1614 66.2786V66.2777ZM25.8821 62.1502C30.0676 65.5997 34.9409 66.7668 40.1614 66.2777L39.9331 63.8329C35.2551 64.2711 31.0526 63.2305 27.4418 60.2551L25.8821 62.1502ZM18.9416 50.936C19.8851 55.5535 22.343 59.2334 25.8821 62.1502L27.4418 60.2551C24.2772 57.6479 22.1618 54.4411 21.3457 50.445L18.9425 50.9369L18.9416 50.936ZM18.7019 44.9653C18.5604 46.8794 18.5274 48.9058 18.9416 50.936L21.3447 50.444C20.9966 48.7415 21.0126 46.9776 21.1475 45.1457L18.701 44.9644L18.7019 44.9653ZM24.6452 32.87C21.2381 36.1372 19.0595 40.1193 18.7019 44.9653L21.1485 45.1466C21.4551 40.9984 23.3007 37.5603 26.3426 34.6424L24.6452 32.87ZM34.2635 27.8833C30.5139 28.5008 27.3295 30.294 24.6452 32.8691L26.3426 34.6415C28.7287 32.3526 31.4763 30.8294 34.6616 30.3054L34.2635 27.8823V27.8833ZM50.5137 32.1873C45.7735 28.0476 40.218 26.9041 34.2635 27.8842L34.6616 30.3073C40.0142 29.4262 44.7969 30.4536 48.9003 34.0381L50.5128 32.1883L50.5137 32.1873ZM56.7759 42.1164C55.8371 38.0522 53.5377 34.8266 50.5137 32.1864L48.9013 34.0362C51.6375 36.4252 53.5906 39.225 54.386 42.6698L56.7759 42.1164ZM53.5472 58.5327C57.2958 53.5639 58.1308 47.9813 56.7759 42.1174L54.386 42.6707C55.6003 47.9237 54.8445 52.7395 51.5894 57.054L53.5472 58.5336V58.5327ZM49.2541 62.7612C50.8666 61.5563 52.3178 60.1616 53.5472 58.5318L51.5894 57.0521C50.5156 58.476 49.2362 59.7102 47.787 60.7933L49.2541 62.7602V62.7612ZM32.7378 82.1708C32.5547 82.0755 32.4075 81.9943 32.1726 81.8687L31.0224 84.0377C31.2102 84.1368 31.4206 84.252 31.5999 84.3455L32.7378 82.1708ZM48.9805 90.6807C43.5685 87.8394 38.1517 85.0065 32.7387 82.1708L31.6008 84.3465C37.0157 87.1831 42.4306 90.015 47.8407 92.8554L48.9805 90.6816V90.6807ZM54.0963 92.4918C52.3262 92.201 50.6383 91.5513 48.9805 90.6807L47.8407 92.8544C49.657 93.8081 51.5978 94.5692 53.6991 94.9139L54.0963 92.4909V92.4918ZM68.8388 88.2057C64.7279 92.0829 59.7414 93.4182 54.0963 92.4918L53.6991 94.9148C60.0273 95.9545 65.8045 94.4427 70.5221 89.9933L68.8398 88.2067L68.8388 88.2057ZM73.6074 71.7942C75.2038 78.186 73.6055 83.711 68.8398 88.2057L70.5221 89.9923C75.9398 84.8819 77.7966 78.4438 75.987 71.1993L73.6074 71.7942ZM65.5799 61.4977C69.7078 63.8301 72.4676 67.2333 73.6074 71.7951L75.987 71.2002C74.6707 65.9292 71.4477 61.9944 66.7857 59.3608L65.5799 61.4987V61.4977ZM58.5667 57.7962C60.9566 59.0539 63.2881 60.2031 65.5799 61.4977L66.7857 59.3599C64.4552 58.0436 62.0191 56.8396 59.7084 55.6234L58.5667 57.7962ZM57.9053 57.4033C58.0968 57.5185 58.3516 57.6828 58.5667 57.7962L59.7084 55.6234C59.5706 55.5507 59.4923 55.4931 59.1668 55.2976L57.9053 57.4033ZM59.3479 55.0228C59.0677 55.0493 58.7677 55.088 58.3978 55.1305L58.6752 57.5695C59.0989 57.5214 59.3281 57.4902 59.5791 57.4666L59.3479 55.0228ZM67.7745 51.8585C65.344 53.7291 62.4861 54.7263 59.3479 55.0238L59.5791 57.4676C63.1003 57.1342 66.4159 56.0011 69.27 53.8047L67.7745 51.8585ZM74.3481 35.1287C74.9915 38.6216 74.716 41.7293 73.6216 44.4771C72.5261 47.2287 70.5825 49.6961 67.7736 51.8576L69.2691 53.8038C72.3629 51.4223 74.6151 48.6159 75.9002 45.3855C77.1871 42.1523 77.4758 38.5688 76.7597 34.683L74.3471 35.1287H74.3481ZM66.1913 23.8984C70.623 26.3913 73.4291 30.1439 74.3481 35.1297L76.7607 34.684C75.702 28.9409 72.4233 24.5877 67.3934 21.7577L66.1913 23.8975V23.8984ZM54.2161 17.5869C58.2572 19.7068 62.27 21.6926 66.1913 23.8984L67.3934 21.7587C63.4315 19.5302 59.3272 17.4962 55.355 15.4131L54.2161 17.5878V17.5869ZM43.1533 11.7852C46.8415 13.7182 50.5288 15.652 54.2161 17.5859L55.355 15.4112C51.6677 13.4774 47.9794 11.5425 44.2912 9.60959L43.1533 11.7843V11.7852ZM27.5767 3.6087C32.7491 6.37921 37.9734 9.07041 43.1533 11.7852L44.2912 9.61054C39.0896 6.8844 33.8936 4.20831 28.7335 1.44441L27.5758 3.6087H27.5767ZM16.7715 1.34054C20.5899 0.901449 24.1338 1.76452 27.5767 3.6087L28.7344 1.44441C24.9339 -0.591457 20.8909 -1.60372 16.4913 -1.09853L16.7715 1.34054ZM7.16831 5.69555C9.87056 3.19982 13.0851 1.76452 16.7705 1.34054L16.4903 -1.09853C12.3077 -0.617897 8.60341 1.02893 5.50394 3.89104L7.16737 5.69555H7.16831ZM1.79589 17.1865C1.93837 12.6322 3.80277 8.80412 7.16926 5.69555L5.50582 3.89104C1.69022 7.41414 -0.492148 11.8504 -0.656321 17.1091L1.79589 17.1855V17.1865ZM9.68091 32.0702C4.27075 28.5924 1.59304 23.635 1.79495 17.1865L-0.657264 17.11C-0.88654 24.4414 2.23652 30.2024 8.35432 34.1363L9.67997 32.0702H9.68091ZM16.8187 35.8946C14.2995 34.5565 11.9199 33.5084 9.68091 32.0693L8.35526 34.1354C10.7009 35.6434 13.3588 36.8369 15.6685 38.0636L16.8187 35.8946ZM18.066 36.5678C17.5905 36.311 17.2017 36.0985 16.8177 35.8946L15.6676 38.0636C16.0421 38.2628 16.4073 38.462 16.8998 38.7293L18.0651 36.5688L18.066 36.5678ZM15.9563 39.0333C16.4356 38.9597 16.863 38.9427 17.6037 38.87L17.365 36.4262C16.779 36.4838 16.1478 36.5197 15.5855 36.6056L15.9563 39.0324V39.0333ZM4.13772 46.2656C7.00414 42.1287 10.9688 39.7973 15.9563 39.0333L15.5855 36.6065C9.98095 37.4639 5.40015 40.1363 2.12235 44.8661L4.13866 46.2656H4.13772ZM1.2411 54.9256C1.36848 51.765 2.33465 48.8671 4.13772 46.2646L2.12141 44.8652C0.0522646 47.8529 -1.06392 51.2023 -1.21017 54.8273L1.2411 54.9265V54.9256ZM3.966 64.7083C2.0214 61.7244 1.09863 58.4666 1.2411 54.9256L-1.21017 54.8264C-1.37434 58.8906 -0.303443 62.6498 1.911 66.0492L3.966 64.7083ZM9.61392 70.0255C7.30229 68.7677 5.43223 66.9585 3.96694 64.7083L1.91195 66.0492C3.57632 68.6034 5.73604 70.7092 8.44207 72.1823L9.61392 70.0255ZM21.3646 76.2002C17.4216 74.1341 13.4946 72.1369 9.61392 70.0255L8.44207 72.1823C12.3445 74.3059 16.3205 76.3276 20.2267 78.3748L21.3646 76.2002ZM32.1669 81.8658C28.5466 79.9678 24.9556 78.0821 21.3646 76.2002L20.2267 78.3748C23.8177 80.2568 27.4059 82.1406 31.0291 84.0396L32.1679 81.8649L32.1669 81.8658ZM48.521 61.7782L49.2428 62.7706L49.2485 62.7659L49.2541 62.7612L48.5201 61.7772L48.521 61.7782ZM58.5356 56.3505L58.3969 55.1305L54.8021 55.5403L57.9053 57.4024L58.5365 56.3495L58.5356 56.3505ZM17.4838 37.6481L17.6027 38.87L21.6042 38.479L18.066 36.5678L17.4838 37.6481ZM31.598 82.9527L32.1726 81.8687L32.1698 81.8668L32.1669 81.8649L31.598 82.9527Z" fill="#7272F6"/>
</g>
</svg>
